<svg width="271" height="358" viewBox="0 0 271 358" fill="none" xmlns="http://www.w3.org/2000/svg">
<path d="M14.1397 27L10.0517 19.58H8.90368V27H4.11568V7.344H12.1517C13.701 7.344 15.017 7.61467 16.0997 8.156C17.201 8.69733 18.0224 9.444 18.5637 10.396C19.105 11.3293 19.3757 12.3747 19.3757 13.532C19.3757 14.8387 19.0024 16.0053 18.2557 17.032C17.5277 18.0587 16.445 18.7867 15.0077 19.216L19.5437 27H14.1397ZM8.90368 16.192H11.8717C12.749 16.192 13.4024 15.9773 13.8317 15.548C14.2797 15.1187 14.5037 14.512 14.5037 13.728C14.5037 12.9813 14.2797 12.3933 13.8317 11.964C13.4024 11.5347 12.749 11.32 11.8717 11.32H8.90368V16.192ZM37.9493 18.936C37.9493 19.384 37.9213 19.8507 37.8653 20.336H27.0293C27.104 21.3067 27.412 22.0533 27.9533 22.576C28.5133 23.08 29.1946 23.332 29.9973 23.332C31.192 23.332 32.0226 22.828 32.4893 21.82H37.5853C37.324 22.8467 36.848 23.7707 36.1573 24.592C35.4853 25.4133 34.636 26.0573 33.6093 26.524C32.5826 26.9907 31.4346 27.224 30.1653 27.224C28.6346 27.224 27.272 26.8973 26.0773 26.244C24.8826 25.5907 23.9493 24.6573 23.2773 23.444C22.6053 22.2307 22.2693 20.812 22.2693 19.188C22.2693 17.564 22.596 16.1453 23.2493 14.932C23.9213 13.7187 24.8546 12.7853 26.0493 12.132C27.244 11.4787 28.616 11.152 30.1653 11.152C31.6773 11.152 33.0213 11.4693 34.1973 12.104C35.3733 12.7387 36.288 13.644 36.9413 14.82C37.6133 15.996 37.9493 17.368 37.9493 18.936ZM33.0493 17.676C33.0493 16.8547 32.7693 16.2013 32.2093 15.716C31.6493 15.2307 30.9493 14.988 30.1093 14.988C29.3066 14.988 28.6253 15.2213 28.0653 15.688C27.524 16.1547 27.188 16.8173 27.0573 17.676H33.0493ZM46.1032 13.588C46.5699 12.86 47.2139 12.272 48.0352 11.824C48.8565 11.376 49.8179 11.152 50.9192 11.152C52.2072 11.152 53.3739 11.4787 54.4192 12.132C55.4646 12.7853 56.2859 13.7187 56.8832 14.932C57.4992 16.1453 57.8072 17.5547 57.8072 19.16C57.8072 20.7653 57.4992 22.184 56.8832 23.416C56.2859 24.6293 55.4646 25.572 54.4192 26.244C53.3739 26.8973 52.2072 27.224 50.9192 27.224C49.8365 27.224 48.8752 27 48.0352 26.552C47.2139 26.104 46.5699 25.5253 46.1032 24.816V34.448H41.3152V11.376H46.1032V13.588ZM52.9352 19.16C52.9352 17.9653 52.5992 17.032 51.9272 16.36C51.2739 15.6693 50.4619 15.324 49.4912 15.324C48.5392 15.324 47.7272 15.6693 47.0552 16.36C46.4019 17.0507 46.0752 17.9933 46.0752 19.188C46.0752 20.3827 46.4019 21.3253 47.0552 22.016C47.7272 22.7067 48.5392 23.052 49.4912 23.052C50.4432 23.052 51.2552 22.7067 51.9272 22.016C52.5992 21.3067 52.9352 20.3547 52.9352 19.16ZM68.2711 27.224C66.7405 27.224 65.3591 26.8973 64.1271 26.244C62.9138 25.5907 61.9525 24.6573 61.2431 23.444C60.5525 22.2307 60.2071 20.812 60.2071 19.188C60.2071 17.5827 60.5618 16.1733 61.2711 14.96C61.9805 13.728 62.9511 12.7853 64.1831 12.132C65.4151 11.4787 66.7965 11.152 68.3271 11.152C69.8578 11.152 71.2391 11.4787 72.4711 12.132C73.7031 12.7853 74.6738 13.728 75.3831 14.96C76.0925 16.1733 76.4471 17.5827 76.4471 19.188C76.4471 20.7933 76.0831 22.212 75.3551 23.444C74.6458 24.6573 73.6658 25.5907 72.4151 26.244C71.1831 26.8973 69.8018 27.224 68.2711 27.224ZM68.2711 23.08C69.1858 23.08 69.9605 22.744 70.5951 22.072C71.2485 21.4 71.5751 20.4387 71.5751 19.188C71.5751 17.9373 71.2578 16.976 70.6231 16.304C70.0071 15.632 69.2418 15.296 68.3271 15.296C67.3938 15.296 66.6191 15.632 66.0031 16.304C65.3871 16.9573 65.0791 17.9187 65.0791 19.188C65.0791 20.4387 65.3778 21.4 65.9751 22.072C66.5911 22.744 67.3565 23.08 68.2711 23.08ZM84.6152 13.98C85.1752 13.1213 85.8752 12.4493 86.7152 11.964C87.5552 11.46 88.4886 11.208 89.5152 11.208V16.276H88.1992C87.0046 16.276 86.1086 16.5373 85.5112 17.06C84.9139 17.564 84.6152 18.46 84.6152 19.748V27H79.8272V11.376H84.6152V13.98ZM101.352 22.94V27H98.9158C97.1798 27 95.8265 26.58 94.8558 25.74C93.8851 24.8813 93.3998 23.4907 93.3998 21.568V15.352H91.4958V11.376H93.3998V7.568H98.1878V11.376H101.324V15.352H98.1878V21.624C98.1878 22.0907 98.2998 22.4267 98.5238 22.632C98.7478 22.8373 99.1211 22.94 99.6438 22.94H101.352ZM118.744 27.196C117.307 27.196 116.019 26.9627 114.88 26.496C113.742 26.0293 112.827 25.3387 112.136 24.424C111.464 23.5093 111.11 22.408 111.072 21.12H116.168C116.243 21.848 116.495 22.408 116.924 22.8C117.354 23.1733 117.914 23.36 118.604 23.36C119.314 23.36 119.874 23.2013 120.284 22.884C120.695 22.548 120.9 22.0907 120.9 21.512C120.9 21.0267 120.732 20.6253 120.396 20.308C120.079 19.9907 119.678 19.7293 119.192 19.524C118.726 19.3187 118.054 19.0853 117.176 18.824C115.907 18.432 114.871 18.04 114.068 17.648C113.266 17.256 112.575 16.6773 111.996 15.912C111.418 15.1467 111.128 14.148 111.128 12.916C111.128 11.0867 111.791 9.65867 113.116 8.632C114.442 7.58667 116.168 7.064 118.296 7.064C120.462 7.064 122.207 7.58667 123.532 8.632C124.858 9.65867 125.567 11.096 125.66 12.944H120.48C120.443 12.3093 120.21 11.8147 119.78 11.46C119.351 11.0867 118.8 10.9 118.128 10.9C117.55 10.9 117.083 11.0587 116.728 11.376C116.374 11.6747 116.196 12.1133 116.196 12.692C116.196 13.3267 116.495 13.8213 117.092 14.176C117.69 14.5307 118.623 14.9133 119.892 15.324C121.162 15.7533 122.188 16.164 122.972 16.556C123.775 16.948 124.466 17.5173 125.044 18.264C125.623 19.0107 125.912 19.972 125.912 21.148C125.912 22.268 125.623 23.2853 125.044 24.2C124.484 25.1147 123.663 25.8427 122.58 26.384C121.498 26.9253 120.219 27.196 118.744 27.196ZM145.127 11.376V27H140.339V24.872C139.854 25.5627 139.191 26.1227 138.351 26.552C137.53 26.9627 136.615 27.168 135.607 27.168C134.412 27.168 133.358 26.9067 132.443 26.384C131.528 25.8427 130.819 25.068 130.315 24.06C129.811 23.052 129.559 21.8667 129.559 20.504V11.376H134.319V19.86C134.319 20.9053 134.59 21.7173 135.131 22.296C135.672 22.8747 136.4 23.164 137.315 23.164C138.248 23.164 138.986 22.8747 139.527 22.296C140.068 21.7173 140.339 20.9053 140.339 19.86V11.376H145.127ZM154.194 13.588C154.642 12.86 155.286 12.272 156.126 11.824C156.966 11.376 157.927 11.152 159.01 11.152C160.298 11.152 161.465 11.4787 162.51 12.132C163.555 12.7853 164.377 13.7187 164.974 14.932C165.59 16.1453 165.898 17.5547 165.898 19.16C165.898 20.7653 165.59 22.184 164.974 23.416C164.377 24.6293 163.555 25.572 162.51 26.244C161.465 26.8973 160.298 27.224 159.01 27.224C157.909 27.224 156.947 27.0093 156.126 26.58C155.305 26.132 154.661 25.544 154.194 24.816V27H149.406V6.28H154.194V13.588ZM161.026 19.16C161.026 17.9653 160.69 17.032 160.018 16.36C159.365 15.6693 158.553 15.324 157.582 15.324C156.63 15.324 155.818 15.6693 155.146 16.36C154.493 17.0507 154.166 17.9933 154.166 19.188C154.166 20.3827 154.493 21.3253 155.146 22.016C155.818 22.7067 156.63 23.052 157.582 23.052C158.534 23.052 159.346 22.7067 160.018 22.016C160.69 21.3067 161.026 20.3547 161.026 19.16ZM189.186 11.208C191.127 11.208 192.667 11.796 193.806 12.972C194.963 14.148 195.542 15.7813 195.542 17.872V27H190.782V18.516C190.782 17.508 190.511 16.7333 189.97 16.192C189.447 15.632 188.719 15.352 187.786 15.352C186.853 15.352 186.115 15.632 185.574 16.192C185.051 16.7333 184.79 17.508 184.79 18.516V27H180.03V18.516C180.03 17.508 179.759 16.7333 179.218 16.192C178.695 15.632 177.967 15.352 177.034 15.352C176.101 15.352 175.363 15.632 174.822 16.192C174.299 16.7333 174.038 17.508 174.038 18.516V27H169.25V11.376H174.038V13.336C174.523 12.6827 175.158 12.1693 175.942 11.796C176.726 11.404 177.613 11.208 178.602 11.208C179.778 11.208 180.823 11.46 181.738 11.964C182.671 12.468 183.399 13.1867 183.922 14.12C184.463 13.2613 185.201 12.5613 186.134 12.02C187.067 11.4787 188.085 11.208 189.186 11.208ZM202.139 9.752C201.299 9.752 200.608 9.50933 200.067 9.024C199.544 8.52 199.283 7.904 199.283 7.176C199.283 6.42933 199.544 5.81333 200.067 5.328C200.608 4.824 201.299 4.572 202.139 4.572C202.96 4.572 203.632 4.824 204.155 5.328C204.696 5.81333 204.967 6.42933 204.967 7.176C204.967 7.904 204.696 8.52 204.155 9.024C203.632 9.50933 202.96 9.752 202.139 9.752ZM204.519 11.376V27H199.731V11.376H204.519ZM217.536 22.94V27H215.1C213.364 27 212.011 26.58 211.04 25.74C210.07 24.8813 209.584 23.4907 209.584 21.568V15.352H207.68V11.376H209.584V7.568H214.372V11.376H217.508V15.352H214.372V21.624C214.372 22.0907 214.484 22.4267 214.708 22.632C214.932 22.8373 215.306 22.94 215.828 22.94H217.536ZM229.751 22.94V27H227.315C225.579 27 224.226 26.58 223.255 25.74C222.285 24.8813 221.799 23.4907 221.799 21.568V15.352H219.895V11.376H221.799V7.568H226.587V11.376H229.723V15.352H226.587V21.624C226.587 22.0907 226.699 22.4267 226.923 22.632C227.147 22.8373 227.521 22.94 228.043 22.94H229.751ZM247.986 18.936C247.986 19.384 247.958 19.8507 247.902 20.336H237.066C237.141 21.3067 237.449 22.0533 237.99 22.576C238.55 23.08 239.232 23.332 240.034 23.332C241.229 23.332 242.06 22.828 242.526 21.82H247.622C247.361 22.8467 246.885 23.7707 246.194 24.592C245.522 25.4133 244.673 26.0573 243.646 26.524C242.62 26.9907 241.472 27.224 240.202 27.224C238.672 27.224 237.309 26.8973 236.114 26.244C234.92 25.5907 233.986 24.6573 233.314 23.444C232.642 22.2307 232.306 20.812 232.306 19.188C232.306 17.564 232.633 16.1453 233.286 14.932C233.958 13.7187 234.892 12.7853 236.086 12.132C237.281 11.4787 238.653 11.152 240.202 11.152C241.714 11.152 243.058 11.4693 244.234 12.104C245.41 12.7387 246.325 13.644 246.978 14.82C247.65 15.996 247.986 17.368 247.986 18.936ZM243.086 17.676C243.086 16.8547 242.806 16.2013 242.246 15.716C241.686 15.2307 240.986 14.988 240.146 14.988C239.344 14.988 238.662 15.2213 238.102 15.688C237.561 16.1547 237.225 16.8173 237.094 17.676H243.086ZM250.4 19.16C250.4 17.5547 250.699 16.1453 251.296 14.932C251.912 13.7187 252.743 12.7853 253.788 12.132C254.834 11.4787 256 11.152 257.288 11.152C258.315 11.152 259.248 11.3667 260.088 11.796C260.947 12.2253 261.619 12.804 262.104 13.532V6.28H266.892V27H262.104V24.76C261.656 25.5067 261.012 26.104 260.172 26.552C259.351 27 258.39 27.224 257.288 27.224C256 27.224 254.834 26.8973 253.788 26.244C252.743 25.572 251.912 24.6293 251.296 23.416C250.699 22.184 250.4 20.7653 250.4 19.16ZM262.104 19.188C262.104 17.9933 261.768 17.0507 261.096 16.36C260.443 15.6693 259.64 15.324 258.688 15.324C257.736 15.324 256.924 15.6693 256.252 16.36C255.599 17.032 255.272 17.9653 255.272 19.16C255.272 20.3547 255.599 21.3067 256.252 22.016C256.924 22.7067 257.736 23.052 258.688 23.052C259.64 23.052 260.443 22.7067 261.096 22.016C261.768 21.3253 262.104 20.3827 262.104 19.188Z" fill="black"/>
<g opacity="0.5">
<path d="M212.883 177.075C219.179 177.094 222.445 175.787 227.921 171.508C231.49 172.429 249.566 181.56 250.478 186.353C259.232 202.552 269.314 247.103 257.997 271.709C246.68 296.316 203.485 277.279 203.485 271.709V264.287C202.993 259.844 202.255 257.74 199.725 255.009C197.356 253.977 197.603 249.745 199.725 238.309C200.79 235.596 201.742 234.547 203.485 232.742C203.088 224.283 196.886 219.991 199.725 210.475C201.596 202.233 212.531 181.341 212.883 177.075Z" fill="#FFDE71"/>
<path d="M203.485 271.709V264.287C202.993 259.844 202.255 257.74 199.725 255.009C197.356 253.977 197.603 249.745 199.725 238.309C200.79 235.596 201.742 234.547 203.485 232.742C203.088 224.283 196.886 219.991 199.725 210.475C201.596 202.233 212.531 181.341 212.883 177.075C219.179 177.094 222.445 175.787 227.921 171.508C231.49 172.429 249.566 181.56 250.478 186.353C259.232 202.552 269.314 247.103 257.997 271.709C246.68 296.316 203.485 277.279 203.485 271.709ZM203.485 264.287C203.485 264.287 203.485 266.14 203.485 271.709" stroke="#FFDE71"/>
</g>
<g opacity="0.8">
<path d="M93.7573 152.345C94.9747 152.502 73.6503 143.718 73.1359 144.748C72.9571 147.269 72.8538 148.693 73.1359 148.547C81.2323 151.794 91.1222 155.732 92.045 156.134C92.9667 154.714 93.5361 153.924 93.7573 152.345Z" fill="#003873"/>
<path d="M92.045 156.134C91.1222 155.732 81.2323 151.794 73.1359 148.547C72.8538 148.693 72.9571 147.269 73.1359 144.748C73.6503 143.718 94.9747 152.502 93.7573 152.345C93.5361 153.924 92.9667 154.714 92.045 156.134ZM92.045 156.134C92.1382 156.175 92.1399 156.18 92.0388 156.144C92.0409 156.141 92.0429 156.138 92.045 156.134Z" stroke="#003873"/>
</g>
<g opacity="0.8">
<path d="M9.40457 161.339C7.87693 160.782 14.7597 156.087 27.9041 147.221C28.2255 147.403 29.2893 148.573 31.2194 150.697L31.2195 150.697L31.2676 150.75C31.0721 152.033 16.0965 165.205 14.4499 164.868C15.0733 166.097 10.0196 162.409 9.40457 161.339Z" fill="#003873"/>
<path d="M31.2195 150.697C31.2355 150.715 31.2515 150.733 31.2676 150.75C31.0721 152.033 16.0965 165.205 14.4499 164.868C15.0733 166.097 10.0196 162.409 9.40457 161.339C7.87693 160.782 14.7597 156.087 27.9041 147.221C28.2255 147.403 29.2893 148.573 31.2195 150.697ZM31.2676 150.75L31.2195 150.697" stroke="#003873"/>
</g>
<path d="M172.872 252.168C149.32 275.808 115.083 257.093 100.908 244.78C107.632 244.78 122.061 244.666 125.986 244.212C130.893 243.644 144.523 220.344 126.532 220.344C108.541 220.344 116.173 217.503 113.993 210.683C111.812 203.864 104.179 215.798 102.544 215.23C100.908 214.661 104.179 186.816 109.631 181.701C113.993 177.609 124.169 177.344 128.712 177.723C129.984 174.882 133.292 168.971 136.345 168.062C140.161 166.926 139.616 169.767 146.158 177.155C155.426 170.335 193.589 213.525 163.059 222.617C132.529 231.71 152.155 248.758 156.517 251.031C160.878 253.304 173.962 248.19 174.507 248.758C174.944 249.213 173.599 251.221 172.872 252.168Z" fill="#FFB0B0" fill-opacity="0.5"/>
<path d="M89.0649 180.534C86.1062 183.902 52.8408 194.365 37.123 199.177L40.2286 212.815L92.4669 195.973C92.9292 190.56 92.0235 177.166 89.0649 180.534Z" fill="#FF383C" fill-opacity="0.5"/>
<ellipse opacity="0.5" cx="78.0111" cy="107.823" rx="5.99698" ry="6.25109" fill="#FFB1B1"/>
<ellipse opacity="0.5" cx="214.307" cy="139.648" rx="5.99698" ry="6.25109" fill="#FFB1B1"/>
<ellipse opacity="0.5" cx="49.662" cy="115.78" rx="5.99698" ry="6.25109" fill="#FFB1B1"/>
<path d="M203.469 257.967C203.745 257.967 203.969 258.191 203.969 258.467V269.09C203.968 269.366 203.745 269.59 203.469 269.59C203.192 269.59 202.969 269.366 202.969 269.09V258.467C202.969 258.191 203.192 257.967 203.469 257.967ZM253.056 185.445C253.294 185.305 253.601 185.384 253.741 185.622C257.371 191.787 259.185 201.074 260.058 214.558C260.933 228.059 260.869 245.855 260.685 269.094C260.683 269.37 260.457 269.592 260.181 269.59C259.905 269.588 259.683 269.362 259.685 269.086C259.869 245.835 259.933 228.079 259.061 214.623C258.189 201.151 256.38 192.075 252.88 186.13C252.74 185.892 252.819 185.585 253.056 185.445ZM5.34448 166.245C5.43092 165.983 5.71408 165.84 5.97632 165.927C6.23846 166.013 6.38104 166.296 6.29468 166.558C2.28722 178.727 1.04556 192.525 1.00171 203.225C0.9798 208.573 1.25684 213.136 1.63355 216.321C1.82222 217.916 2.03425 219.151 2.24195 219.963C2.34724 220.374 2.4447 220.647 2.5232 220.799C2.52408 220.8 2.52526 220.802 2.52612 220.804L2.5857 220.831C8.49875 223.469 16.763 223.126 24.1316 221.39C27.8046 220.524 31.2275 219.318 33.9871 217.986C36.6729 216.69 38.6729 215.3 39.6921 214.031C39.6988 211.224 38.8065 206.612 37.4998 201.508C36.1717 196.321 34.434 190.684 32.8455 186.039C32.7562 185.778 32.8957 185.494 33.157 185.404C33.4182 185.315 33.7024 185.454 33.7917 185.716C35.387 190.38 37.1327 196.042 38.4685 201.26C39.7994 206.458 40.7393 211.273 40.6931 214.213L40.6912 214.377L40.5925 214.507C39.8551 215.483 38.6533 216.468 37.1277 217.413C37.1743 217.465 37.2111 217.527 37.2332 217.598C38.238 220.834 38.6733 222.623 39.0632 224.015C39.4499 225.396 39.7982 226.41 40.6433 228.151C40.6797 228.226 40.7881 228.349 41.073 228.484C41.3518 228.616 41.7467 228.733 42.2634 228.829C43.2952 229.02 44.7253 229.108 46.4871 229.107C50.0052 229.107 54.754 228.754 60.0789 228.223C70.6793 227.165 83.416 225.416 93.2283 224.351C96.5484 220.653 98.4279 218.703 101.558 215.766C101.385 210.906 101.401 206.493 101.641 202.555C99.1881 203.65 97.6692 203.966 95.2146 204.082C94.9391 204.095 94.7054 203.882 94.6921 203.606C94.6791 203.33 94.8919 203.096 95.1677 203.083C97.6494 202.965 99.0763 202.648 101.718 201.421C102.143 195.654 103.081 190.96 104.648 187.431C106.02 184.342 107.889 182.108 110.354 180.847C112.794 179.598 115.748 179.339 119.246 180.054C122.159 179.396 124.893 178.836 127.46 178.371C128.586 175.343 129.806 172.884 131.119 171.094C132.458 169.267 133.937 168.077 135.561 167.757C137.21 167.432 138.875 168.027 140.515 169.472C142.149 170.91 143.803 173.227 145.477 176.466C145.518 176.544 145.533 176.628 145.53 176.71C149.723 176.883 153.117 177.611 155.89 178.881C162.44 181.879 165.418 187.828 167.325 196.152C170.298 197.835 173.067 199.486 175.477 201.872C177.912 204.282 179.96 207.424 181.528 212.068C190.362 216.21 194.419 217.697 198.255 217.248C198.529 217.216 198.777 217.412 198.809 217.686C198.841 217.961 198.645 218.209 198.371 218.241C194.171 218.733 189.809 217.062 180.913 212.886L180.719 212.795L180.651 212.591C179.118 207.964 177.121 204.907 174.774 202.583C173.178 201.002 171.409 199.755 169.487 198.577C169.425 198.656 169.341 198.717 169.238 198.748C167.643 199.225 166.724 199.548 166.258 199.792C166.249 199.796 166.242 199.8 166.234 199.805C167.321 200.466 168.173 200.979 168.752 201.309L169.097 201.311C169.952 201.315 170.44 201.981 170.716 202.751C170.996 203.534 171.143 204.625 171.222 205.908C171.378 208.4 171.292 211.838 171.312 215.611C172.78 216.116 173.822 216.841 174.552 217.744C175.337 218.714 175.728 219.847 175.933 221.03C176.138 222.206 176.164 223.465 176.193 224.689C176.223 225.929 176.257 227.138 176.462 228.281C176.504 228.516 176.374 228.742 176.162 228.83C177.634 229.888 178.879 230.836 179.622 231.44C188.69 233.186 193.264 233.978 200.102 234.957C200.376 234.996 200.565 235.249 200.526 235.522C200.487 235.796 200.234 235.985 199.961 235.946C193.071 234.96 188.47 234.164 179.312 232.4L179.187 232.376L179.09 232.296C177.694 231.149 174.121 228.503 170.761 226.368C169.079 225.299 167.471 224.371 166.224 223.821C165.597 223.544 165.094 223.379 164.735 223.327C164.556 223.301 164.456 223.31 164.403 223.321C164.398 223.427 164.41 223.565 164.453 223.742C164.516 224 164.632 224.303 164.795 224.64C165.12 225.316 165.598 226.073 166.091 226.812C166.573 227.536 167.081 228.259 167.423 228.815C167.593 229.093 167.743 229.36 167.83 229.588C167.873 229.699 167.914 229.834 167.921 229.973C167.927 230.114 167.901 230.336 167.717 230.507L167.586 230.628L167.408 230.639C161.835 230.989 156.817 231.616 153.357 232.28C151.621 232.613 150.302 232.952 149.505 233.26C149.288 233.344 149.129 233.419 149.017 233.48L149.116 233.561L149.101 233.586C149.112 233.591 149.122 233.597 149.134 233.602C149.442 233.744 149.923 233.916 150.532 234.108C151.743 234.491 153.391 234.933 155.014 235.345C156.636 235.756 158.224 236.136 159.315 236.397C159.859 236.527 160.283 236.63 160.523 236.69C160.583 236.706 160.636 236.718 160.676 236.729C160.701 236.736 160.758 236.752 160.804 236.771C160.813 236.775 160.829 236.782 160.847 236.792C160.859 236.798 160.903 236.821 160.949 236.862C160.974 236.886 161.029 236.954 161.056 236.999C161.089 237.074 161.115 237.264 161.097 237.372C161.059 237.469 160.949 237.609 160.89 237.654C160.85 237.678 160.779 237.709 160.749 237.719C160.695 237.733 160.651 237.736 160.636 237.736C160.617 237.737 160.6 237.737 160.591 237.736C160.571 237.735 160.554 237.734 160.545 237.733C160.529 237.732 160.51 237.727 160.491 237.724C156.332 238.179 153.071 238.535 150.987 238.818C150.529 238.881 150.133 238.94 149.801 238.994L148.738 239.422C148.895 239.484 149.091 239.552 149.328 239.618C150.522 239.953 152.48 240.269 154.55 240.565C156.599 240.859 158.753 241.133 160.277 241.379C161.035 241.501 161.671 241.621 162.073 241.742C162.175 241.773 162.274 241.807 162.36 241.846C162.436 241.879 162.548 241.935 162.639 242.026C162.688 242.075 162.753 242.155 162.789 242.269C162.829 242.396 162.823 242.531 162.771 242.653C162.685 242.856 162.506 242.948 162.438 242.981L162.368 243.016L162.289 243.027C158.281 243.586 154.928 244.051 152.751 244.365C152.421 244.413 152.119 244.458 151.845 244.498C152.096 244.563 152.374 244.628 152.676 244.691C153.904 244.948 155.463 245.169 156.973 245.338C158.483 245.507 159.93 245.622 160.928 245.667C161.318 245.684 161.628 245.686 161.844 245.682C161.909 245.657 161.975 245.632 162.041 245.606L162.23 245.534L162.416 245.613C162.446 245.626 162.485 245.644 162.525 245.669C162.558 245.689 162.632 245.739 162.692 245.826C162.765 245.931 162.83 246.115 162.747 246.317C162.681 246.478 162.557 246.554 162.511 246.579C162.414 246.633 162.312 246.65 162.268 246.657C162.208 246.667 162.141 246.673 162.074 246.678C162.063 246.678 162.051 246.678 162.04 246.679C158.94 247.87 156.999 248.659 155.993 249.172C155.983 249.177 155.973 249.182 155.964 249.187L156.207 249.218L155.813 249.812C155.817 249.815 155.821 249.819 155.826 249.821C156.044 249.944 156.482 250.065 157.153 250.147C158.467 250.308 160.44 250.29 162.677 250.046C167.168 249.555 172.54 248.175 175.657 245.682L175.884 245.501L176.154 245.608L198.497 254.461C198.753 254.563 198.879 254.854 198.777 255.11C198.675 255.366 198.385 255.492 198.129 255.39L176.05 246.642C175.512 247.051 174.921 247.429 174.289 247.777C174.425 247.869 174.513 248.024 174.51 248.2C174.48 250.104 173.577 251.814 172.064 253.303C170.555 254.787 168.419 256.075 165.851 257.157L165.817 257.172L165.78 257.181C158.788 258.946 152.711 260.365 147.555 261.171C142.407 261.975 138.13 262.176 134.756 261.473C133.412 261.192 132.208 260.766 131.148 260.18C123.112 260 116.555 259.346 112.236 257.321C110.05 256.296 108.401 254.904 107.438 253.015C107.166 252.481 106.954 251.912 106.798 251.308C105.001 250.527 103.385 249.53 102.173 248.389C100.914 247.203 100.046 245.822 99.9304 244.342C99.9238 244.257 99.9406 244.176 99.9724 244.103C98.9055 243.808 97.8817 243.466 96.9177 243.075C83.8498 248.824 70.7959 254.314 36.8328 259.564L36.8103 259.567L36.7878 259.569C30.4808 259.971 25.3826 259.976 20.6912 255.422C17.5257 252.348 14.5707 247.221 11.4753 238.825C11.4773 251.099 11.4765 255.903 11.4753 265.55C11.4753 265.826 11.2515 266.05 10.9753 266.05C10.6993 266.049 10.4753 265.826 10.4753 265.55C10.4766 255.199 10.478 250.423 10.4753 236.012C9.36393 232.776 8.22921 229.112 7.05737 224.965C6.98232 224.699 7.13655 224.423 7.4021 224.348C7.66777 224.272 7.94412 224.427 8.01929 224.692C9.10682 228.541 10.1597 231.962 11.1873 235C11.3572 235.08 11.4752 235.251 11.4753 235.451C11.4754 235.583 11.4753 235.714 11.4753 235.844C14.8985 245.772 18.0603 251.474 21.3875 254.704C25.7343 258.924 30.4123 258.972 36.7009 258.572C70.7184 253.312 83.6472 247.825 96.7087 242.076L96.9041 241.99L97.1023 242.072C102.707 244.403 110.598 245.006 116.985 244.496C120.176 244.241 122.953 243.711 124.855 243.001C125.811 242.644 126.507 242.256 126.927 241.866C127.251 241.565 127.372 241.301 127.377 241.062C127.271 241.015 127.109 240.956 126.875 240.895C126.504 240.799 126.027 240.711 125.476 240.631C124.376 240.471 123.028 240.347 121.74 240.234C120.463 240.122 119.234 240.02 118.402 239.902C118.001 239.845 117.634 239.778 117.4 239.684C117.338 239.66 117.262 239.624 117.19 239.571C117.125 239.524 117.008 239.421 116.96 239.246C116.903 239.04 116.974 238.862 117.058 238.752C117.132 238.655 117.223 238.594 117.285 238.558L117.376 238.507L117.479 238.496C121.847 238.008 125.982 237.484 128.878 236.905C130.334 236.614 131.436 236.316 132.094 236.018C132.361 235.897 132.506 235.796 132.577 235.73C132.434 235.6 132.141 235.443 131.648 235.292C131.117 235.129 130.432 234.994 129.638 234.885C128.054 234.666 126.101 234.556 124.218 234.493C122.33 234.43 120.546 234.415 119.266 234.384C118.636 234.368 118.118 234.349 117.787 234.315C117.645 234.301 117.46 234.279 117.326 234.222C117.289 234.206 117.214 234.17 117.143 234.101C117.064 234.024 116.961 233.87 116.989 233.659C117.013 233.478 117.122 233.369 117.169 233.328C117.223 233.281 117.277 233.251 117.312 233.233L117.382 233.198L117.458 233.186C124.432 232.11 128.536 231.404 130.766 230.881C131.677 230.667 132.228 230.492 132.53 230.356C132.334 230.149 132.009 229.943 131.535 229.754C131.003 229.541 130.332 229.369 129.561 229.233C128.021 228.962 126.146 228.845 124.329 228.807C122.516 228.77 120.777 228.81 119.51 228.848C118.881 228.866 118.361 228.884 118.014 228.891C117.843 228.895 117.699 228.896 117.601 228.892C117.567 228.891 117.488 228.888 117.415 228.869C117.394 228.864 117.348 228.85 117.297 228.823C117.263 228.805 117.117 228.726 117.053 228.54C116.973 228.303 117.087 228.117 117.153 228.043C117.213 227.975 117.277 227.94 117.299 227.929L117.357 227.897L117.422 227.883C122.04 226.811 125.375 225.985 127.591 225.184C128.699 224.784 129.492 224.402 130.017 224.019C130.442 223.71 130.654 223.427 130.744 223.164C130.577 222.99 130.245 222.79 129.667 222.604C128.971 222.38 128.039 222.211 126.938 222.089C124.74 221.845 121.954 221.796 119.222 221.818C116.489 221.841 113.843 221.934 111.899 221.972C110.935 221.99 110.136 221.995 109.597 221.969C109.338 221.956 109.1 221.935 108.929 221.891C108.884 221.88 108.831 221.863 108.777 221.84C108.729 221.818 108.648 221.777 108.575 221.701C108.492 221.615 108.41 221.472 108.424 221.287C108.433 221.156 108.487 221.057 108.535 220.994C111.307 216.991 112.776 213.784 113.042 211.938C113.107 211.482 113.094 211.147 113.033 210.92C112.975 210.703 112.884 210.611 112.799 210.566C112.7 210.515 112.513 210.478 112.184 210.551C111.864 210.621 111.453 210.787 110.944 211.078C110.356 211.58 109.877 212.044 109.389 212.5C109.077 212.792 108.761 213.076 108.421 213.359C108.408 213.371 108.395 213.383 108.381 213.393C108.194 213.548 108.001 213.703 107.794 213.855C106.601 214.732 105.041 215.543 102.329 216.414C99.131 219.41 97.2611 221.352 93.8445 225.162L93.7166 225.305L93.5261 225.325C83.7654 226.379 70.8185 228.156 60.1775 229.218C54.8472 229.75 50.0576 230.107 46.4871 230.107C44.705 230.108 43.2033 230.02 42.0818 229.812C41.5219 229.709 41.034 229.572 40.6462 229.389C40.2651 229.208 39.9224 228.955 39.7439 228.588C38.8703 226.788 38.5015 225.717 38.1003 224.285C37.7031 222.867 37.2795 221.119 36.2839 217.913C35.6991 218.245 35.0768 218.571 34.4216 218.888C31.589 220.254 28.0963 221.483 24.3611 222.363C16.9566 224.108 8.48856 224.508 2.28784 221.79C2.12945 221.775 1.99692 221.702 1.90796 221.626C1.78557 221.521 1.69816 221.381 1.63452 221.258C1.50295 221.003 1.38359 220.642 1.2732 220.211C1.04946 219.337 0.831166 218.051 0.640382 216.438C0.258098 213.206 -0.0203288 208.603 0.00171062 203.222C0.0457922 192.464 1.29185 178.55 5.34448 166.245ZM95.0193 244.851C95.1207 244.786 95.2739 244.742 95.4412 244.793C95.5833 244.837 95.6634 244.928 95.696 244.972C95.7321 245.019 95.7526 245.063 95.7625 245.087C95.7952 245.165 95.805 245.245 95.8083 245.27C95.814 245.313 95.8185 245.361 95.822 245.411C95.8491 245.795 95.8565 246.731 95.8513 248.129C95.8409 250.944 95.7774 255.73 95.6912 262.015C95.6874 262.292 95.4604 262.512 95.1843 262.509C94.9083 262.505 94.6874 262.278 94.6912 262.002C94.7774 255.714 94.841 250.934 94.8513 248.125C94.8539 247.437 94.8535 246.872 94.8494 246.435C94.7436 246.335 94.6807 246.192 94.6931 246.035C94.7242 245.646 94.7528 245.362 94.783 245.221C94.7875 245.199 94.7937 245.173 94.8025 245.144C94.8086 245.125 94.8267 245.066 94.8669 245.004C94.8864 244.974 94.9339 244.907 95.0193 244.851ZM155.474 179.79C148.847 176.756 138.285 176.886 120.722 180.749C126.795 183.969 130.271 187.968 132.289 193.387C134.424 199.119 134.913 206.415 135.22 215.958C135.229 216.234 135.013 216.466 134.737 216.474C134.461 216.483 134.23 216.266 134.221 215.99C133.913 206.42 133.421 199.29 131.352 193.735C129.307 188.243 125.707 184.267 119.09 181.042C115.725 180.347 113.002 180.615 110.81 181.736C108.606 182.864 106.87 184.891 105.562 187.836C102.98 193.651 102.13 202.899 102.545 215.289C102.853 215.185 103.144 215.082 103.42 214.979C103.554 210.288 104.612 203.745 106.635 197.805C107.673 194.759 108.969 191.856 110.534 189.436C112.069 187.063 113.883 185.127 115.993 183.992C116.611 183.081 117.26 182.217 117.94 181.387C118.115 181.173 118.431 181.141 118.644 181.316C118.858 181.491 118.889 181.807 118.714 182.02C113.786 188.039 110.463 195.935 108.719 211.757C109.201 211.306 109.713 210.813 110.336 210.283L110.37 210.254L110.41 210.231C110.984 209.9 111.506 209.676 111.969 209.574C112.429 209.472 112.879 209.481 113.26 209.679C113.653 209.883 113.887 210.244 113.999 210.662C114.107 211.069 114.108 211.553 114.032 212.081C113.746 214.066 112.298 217.207 109.76 220.973C110.258 220.991 110.984 220.989 111.881 220.972C113.799 220.934 116.477 220.841 119.215 220.818C121.403 220.8 123.653 220.83 125.622 220.97C125.534 213.445 125.595 207.4 126.067 202.544C126.55 197.575 127.467 193.8 129.133 190.936C129.271 190.698 129.577 190.616 129.816 190.755C130.055 190.894 130.136 191.2 129.997 191.438C128.439 194.118 127.54 197.725 127.062 202.64C126.594 207.458 126.533 213.486 126.623 221.054C126.767 221.068 126.909 221.079 127.049 221.095C128.177 221.22 129.185 221.398 129.973 221.652C130.729 221.895 131.419 222.249 131.725 222.822L131.802 222.967L131.779 223.129C131.681 223.808 131.248 224.36 130.606 224.828C129.967 225.293 129.07 225.713 127.93 226.125C126.456 226.657 124.516 227.194 122.087 227.797C122.806 227.791 123.571 227.792 124.35 227.808C126.186 227.847 128.119 227.964 129.734 228.249C130.542 228.391 131.286 228.577 131.906 228.824C132.489 229.057 133.006 229.362 133.349 229.776C133.496 229.889 133.7 230.091 133.704 230.399C133.708 230.773 133.423 230.998 133.245 231.11C132.85 231.358 132.109 231.593 130.995 231.854C129.282 232.256 126.511 232.759 122.273 233.441C122.908 233.455 123.575 233.471 124.251 233.494C126.142 233.557 128.137 233.669 129.774 233.894C130.592 234.007 131.337 234.15 131.941 234.336C132.45 234.492 132.929 234.697 133.253 234.993L133.382 235.125L133.387 235.132L133.392 235.139C133.513 235.289 133.605 235.477 133.614 235.698C133.623 235.921 133.544 236.115 133.433 236.268C133.23 236.551 132.878 236.761 132.507 236.93C131.737 237.278 130.537 237.593 129.074 237.886C126.831 238.334 123.872 238.747 120.658 239.134C121.032 239.167 121.425 239.203 121.828 239.238C123.112 239.351 124.488 239.477 125.621 239.641C126.187 239.724 126.705 239.817 127.127 239.928C127.473 240.018 127.822 240.135 128.071 240.307L128.172 240.384L128.296 240.49L128.333 240.649C128.51 241.407 128.173 242.073 127.606 242.599C127.047 243.118 126.212 243.562 125.206 243.937C123.182 244.692 120.303 245.234 117.064 245.493C112.048 245.894 106.074 245.622 100.937 244.356C101.054 245.464 101.728 246.595 102.858 247.66C103.83 248.575 105.11 249.41 106.567 250.105C106.41 248.869 106.463 247.5 106.73 245.986C106.778 245.714 107.037 245.533 107.309 245.581C107.581 245.629 107.763 245.888 107.715 246.16C107.242 248.836 107.494 250.921 108.33 252.56C109.165 254.199 110.615 255.456 112.661 256.416C116.498 258.215 122.302 258.908 129.622 259.139C128.701 258.369 127.93 257.424 127.315 256.284C125.796 253.468 125.26 249.528 125.629 244.267C125.648 243.992 125.887 243.784 126.163 243.804C126.438 243.823 126.646 244.062 126.627 244.338C126.264 249.525 126.809 253.239 128.195 255.809C129.565 258.348 131.79 259.832 134.96 260.493C138.155 261.159 142.288 260.981 147.401 260.182C152.499 259.386 158.525 257.979 165.5 256.219C167.983 255.168 169.983 253.948 171.363 252.59C172.745 251.23 173.485 249.756 173.51 248.184V248.182C170.29 249.763 166.23 250.664 162.785 251.04C160.766 251.26 158.922 251.304 157.543 251.191C157.41 251.431 157.109 251.521 156.868 251.39C156.814 251.361 156.673 251.323 156.377 251.341C156.094 251.357 155.737 251.418 155.304 251.515C154.418 251.711 153.376 252.017 152.129 252.321C149.711 252.911 146.729 253.44 144.081 252.628C143.896 252.571 143.713 252.507 143.532 252.437C143.183 255.339 142.698 258.058 142.079 260.367C142.007 260.633 141.733 260.791 141.467 260.72C141.2 260.648 141.042 260.374 141.113 260.107C141.742 257.762 142.23 254.973 142.577 251.991C140.549 250.865 138.916 248.716 138.089 245C137.073 240.437 137.255 233.465 139.387 222.957L139.395 222.919L139.409 222.882C139.592 222.389 139.766 221.812 140.459 221.266C141.113 220.752 142.203 220.281 144.141 219.767C147.995 218.746 155.467 217.489 170.312 215.536C170.293 211.745 170.375 208.411 170.223 205.97C170.144 204.7 170.004 203.73 169.774 203.089C169.707 202.903 169.637 202.761 169.57 202.651C169.476 202.684 169.396 202.684 169.36 202.682C169.305 202.68 169.258 202.669 169.227 202.661C169.165 202.645 169.102 202.621 169.05 202.598C168.941 202.552 168.804 202.482 168.648 202.398C168.024 202.062 166.898 201.382 165.397 200.467L165.345 200.435L165.302 200.392C165.217 200.306 165.12 200.182 165.072 200.019C165.02 199.841 165.039 199.658 165.118 199.496C165.25 199.224 165.532 199.042 165.794 198.905C166.041 198.776 166.374 198.638 166.801 198.483C164.92 189.095 162.103 182.824 155.474 179.79ZM199.804 150.02C200.05 149.895 200.351 149.993 200.476 150.238C202.493 154.192 204.354 156.263 206.577 157.184C208.812 158.111 211.527 157.924 215.39 157.059L215.627 157.007L215.815 157.16C216.327 157.577 216.671 158.208 216.907 158.923C217.144 159.643 217.286 160.495 217.361 161.407C217.511 163.231 217.399 165.368 217.188 167.336C216.977 169.308 216.666 171.132 216.412 172.338C216.286 172.934 216.17 173.4 216.083 173.658C216.061 173.722 216.035 173.791 216.005 173.851C215.991 173.879 215.965 173.928 215.925 173.977C215.904 174.002 215.867 174.043 215.812 174.081C215.787 174.099 215.75 174.119 215.705 174.137C215.546 174.448 215.472 174.68 215.454 174.843C215.442 174.949 215.457 175.004 215.467 175.028C215.474 175.047 215.487 175.067 215.521 175.089C215.611 175.147 215.829 175.21 216.253 175.184C216.66 175.16 217.187 175.059 217.826 174.878C220.39 174.15 224.443 172.215 228.994 169.512C229.231 169.371 229.537 169.448 229.678 169.685C229.819 169.923 229.742 170.23 229.505 170.371C224.934 173.086 220.79 175.075 218.098 175.84C217.423 176.031 216.82 176.152 216.312 176.182C215.913 176.206 215.521 176.176 215.193 176.038C207.757 191.259 204.598 197.753 203.045 201.309C201.486 204.877 201.567 205.424 200.516 209.014C199.621 213.424 199.6 215.796 199.999 217.578C200.199 218.471 200.508 219.235 200.891 220.057C201.174 220.662 201.51 221.323 201.858 222.075L202.209 222.858L202.232 222.911L202.242 222.968C202.609 224.999 203.154 226.525 203.573 228.203C203.987 229.86 204.244 231.558 203.965 233.743C203.959 233.787 203.946 233.829 203.929 233.868C205.939 234.441 207.922 234.754 209.563 234.775C210.66 234.789 211.572 234.672 212.229 234.437C212.892 234.201 213.205 233.882 213.299 233.546C213.443 233.027 213.643 231.691 213.914 229.666C214.048 228.664 214.198 227.506 214.366 226.214C214.534 224.922 214.719 223.498 214.925 221.966C215.745 215.837 216.881 207.976 218.446 199.944C218.499 199.673 218.762 199.496 219.033 199.549C219.304 199.602 219.48 199.865 219.427 200.136C217.868 208.139 216.736 215.977 215.916 222.098C215.711 223.629 215.526 225.051 215.358 226.343C215.19 227.634 215.039 228.794 214.905 229.799C214.639 231.786 214.43 233.211 214.262 233.813C214.044 234.598 213.373 235.092 212.565 235.38C211.752 235.67 210.708 235.79 209.551 235.775C207.368 235.748 204.666 235.238 202.07 234.327C201.097 237.553 200.543 242.664 200.314 247.018C200.194 249.3 200.164 251.354 200.205 252.789C200.226 253.51 200.265 254.059 200.315 254.398C200.322 254.447 200.331 254.489 200.338 254.525C204.88 257.197 208.347 258.4 211.676 258.986C215.021 259.576 218.224 259.546 222.322 259.733C226.419 258.723 229.622 255.726 232.155 251.578C234.702 247.408 236.54 242.128 237.911 236.699C239.281 231.275 240.178 225.731 240.859 221.046C241.536 216.389 242.006 212.524 242.514 210.539C242.583 210.271 242.855 210.11 243.123 210.179C243.39 210.247 243.552 210.52 243.483 210.787C242.992 212.704 242.536 216.469 241.849 221.19C241.167 225.884 240.264 231.469 238.881 236.944C237.499 242.415 235.631 247.805 233.009 252.099C230.386 256.394 226.975 259.644 222.491 260.723L222.422 260.74L222.351 260.736C218.289 260.548 214.952 260.579 211.502 259.971C208.063 259.365 204.511 258.126 199.926 255.441C199.863 255.434 199.803 255.417 199.748 255.39C199.563 255.298 199.485 255.131 199.46 255.076C199.393 254.929 199.354 254.733 199.326 254.546C199.266 254.145 199.227 253.549 199.206 252.818C199.164 251.349 199.195 249.267 199.316 246.967C199.557 242.383 200.158 236.842 201.276 233.52L201.441 233.03L201.925 233.211C202.273 233.341 202.625 233.462 202.976 233.577C203.227 231.572 202.995 230.015 202.603 228.446C202.218 226.904 201.642 225.241 201.269 223.208C200.812 222.154 200.382 221.33 199.985 220.479C199.588 219.629 199.246 218.79 199.023 217.796C198.578 215.806 198.632 213.265 199.542 208.793L199.546 208.772L199.552 208.752C200.587 205.218 200.534 204.56 202.129 200.909C203.706 197.298 206.918 190.696 214.482 175.213C214.448 175.057 214.442 174.896 214.46 174.735C214.508 174.29 214.729 173.781 215.073 173.221L215.249 172.933C215.302 172.723 215.365 172.453 215.433 172.131C215.681 170.957 215.986 169.166 216.193 167.229C216.401 165.289 216.508 163.222 216.365 161.488C216.294 160.621 216.161 159.855 215.957 159.236C215.789 158.727 215.581 158.349 215.345 158.093C211.591 158.914 208.682 159.139 206.194 158.108C203.637 157.048 201.636 154.712 199.586 150.693C199.46 150.447 199.558 150.146 199.804 150.02ZM64.2546 254.427C64.5307 254.427 64.7544 254.651 64.7546 254.927V258.468C64.7546 258.744 64.5308 258.968 64.2546 258.968C63.9786 258.967 63.7546 258.744 63.7546 258.468V254.927C63.7548 254.651 63.9788 254.427 64.2546 254.427ZM143.886 234.18C144.007 235.513 144.091 236.912 144.138 238.348C144.279 242.574 144.11 247.154 143.652 251.406C143.889 251.508 144.13 251.597 144.374 251.672C146.738 252.396 149.482 251.938 151.892 251.349C153.059 251.065 154.208 250.733 155.087 250.538C155.094 250.536 155.101 250.535 155.108 250.533C154.989 250.433 154.881 250.308 154.818 250.145C154.797 250.09 154.783 250.034 154.774 249.979C154.752 249.969 154.729 249.96 154.708 249.948C154.617 249.896 154.491 249.8 154.42 249.635C154.342 249.453 154.368 249.276 154.425 249.144C154.476 249.025 154.554 248.933 154.621 248.867C154.691 248.798 154.774 248.733 154.861 248.673C155.035 248.552 155.263 248.421 155.54 248.28C156.33 247.878 157.639 247.327 159.533 246.58C158.725 246.52 157.804 246.437 156.862 246.332C155.337 246.161 153.743 245.935 152.47 245.67C151.836 245.537 151.268 245.392 150.824 245.234C150.602 245.155 150.398 245.069 150.228 244.973C150.149 244.927 150.065 244.873 149.986 244.808C149.972 244.808 149.954 244.809 149.934 244.807C149.923 244.805 149.858 244.799 149.786 244.769C149.758 244.758 149.645 244.711 149.56 244.589C149.511 244.517 149.474 244.422 149.472 244.311C149.471 244.204 149.503 244.118 149.536 244.058C149.594 243.954 149.675 243.901 149.697 243.886C149.73 243.864 149.759 243.85 149.774 243.843C149.827 243.819 149.88 243.805 149.899 243.801C149.929 243.793 149.963 243.785 149.998 243.778C150.069 243.764 150.162 243.747 150.273 243.728C150.717 243.653 151.52 243.533 152.608 243.376C154.379 243.121 156.924 242.765 159.964 242.342C158.461 242.104 156.416 241.843 154.408 241.556C152.351 241.261 150.326 240.936 149.058 240.581C148.739 240.492 148.454 240.396 148.221 240.293C148.007 240.198 147.769 240.068 147.615 239.878C147.531 239.773 147.451 239.625 147.445 239.439C147.439 239.25 147.513 239.091 147.603 238.974C147.664 238.897 147.738 238.828 147.821 238.768C147.843 238.672 147.887 238.595 147.928 238.543C148.035 238.41 148.185 238.346 148.252 238.318C148.344 238.28 148.452 238.248 148.567 238.218C149.021 238.099 149.804 237.97 150.852 237.827C152.472 237.607 154.791 237.347 157.672 237.03C156.794 236.818 155.788 236.572 154.768 236.313C153.142 235.901 151.471 235.454 150.23 235.061C149.614 234.866 149.085 234.68 148.718 234.512C148.54 234.431 148.366 234.339 148.237 234.234C148.219 234.22 148.2 234.2 148.178 234.18H143.886ZM140.197 224.021C138.239 233.996 138.122 240.547 139.065 244.783C139.785 248.016 141.112 249.873 142.698 250.898C143.118 246.817 143.274 242.439 143.139 238.382C143.016 234.669 142.652 231.247 142.04 228.58C141.734 227.246 141.369 226.116 140.949 225.239C140.708 224.735 140.455 224.332 140.197 224.021ZM170.768 216.485C155.693 218.465 148.206 219.724 144.397 220.734C142.481 221.242 141.561 221.672 141.077 222.053C140.742 222.316 140.604 222.56 140.475 222.884C141.014 223.34 141.468 224.008 141.851 224.807C142.314 225.774 142.699 226.981 143.014 228.356C143.343 229.787 143.598 231.417 143.787 233.18H147.92C147.971 233.067 148.044 232.977 148.11 232.91C148.339 232.679 148.72 232.491 149.144 232.327C150.028 231.985 151.419 231.634 153.169 231.299C156.559 230.648 161.395 230.039 166.769 229.681C166.716 229.582 166.65 229.468 166.571 229.339C166.242 228.803 165.764 228.126 165.259 227.367C164.763 226.624 164.251 225.817 163.893 225.073C163.714 224.701 163.567 224.329 163.481 223.978C163.397 223.633 163.364 223.267 163.457 222.927L163.475 222.855L163.514 222.794C163.826 222.293 164.426 222.272 164.878 222.337C165.373 222.408 165.974 222.618 166.628 222.906C167.944 223.487 169.604 224.447 171.298 225.523C172.704 226.417 174.146 227.402 175.456 228.329C175.255 227.137 175.222 225.898 175.193 224.713C175.163 223.47 175.137 222.289 174.948 221.201C174.76 220.12 174.417 219.166 173.775 218.373C173.151 217.601 172.213 216.944 170.768 216.485ZM76.2468 98.6219C76.522 98.601 76.7627 98.8067 76.7839 99.0819C77.7466 111.704 77.1768 120.205 74.4294 125.797C72.1496 130.437 68.403 133.018 62.9939 134.331C63.0179 134.386 63.0343 134.446 63.0369 134.51C63.1968 138.555 63.2648 140.892 63.2585 142.162C63.2555 142.78 63.2357 143.195 63.1853 143.431C63.1722 143.492 63.1508 143.574 63.1101 143.653C63.0834 143.705 63.005 143.836 62.8464 143.91C61.7316 146.371 60.9917 149.225 60.5046 151.847C60.6737 151.71 60.9184 151.694 61.1052 151.825C63.551 153.542 65.5722 155.044 67.0583 156.039C67.8023 156.537 68.3775 156.884 68.7791 157.06C68.8991 157.113 68.9891 157.142 69.0515 157.158L69.2761 156.742L69.6414 157.078C69.6541 156.985 69.6667 156.872 69.6716 156.739C69.702 155.91 69.5512 154.554 69.2898 152.954C68.7702 149.774 67.8406 145.788 67.2107 143.515L67.1042 143.133C67.0288 143.051 66.9355 142.955 66.822 142.843C66.2256 142.253 65.2306 141.37 63.9246 140.215C63.7179 140.032 63.6979 139.716 63.8806 139.51C64.0636 139.303 64.3799 139.284 64.5867 139.467C65.8819 140.613 66.9041 141.517 67.5251 142.131C67.8246 142.427 68.0731 142.696 68.2009 142.907C68.2351 142.964 68.2745 143.037 68.2996 143.121C68.3229 143.199 68.3512 143.342 68.2947 143.501C68.2855 143.527 68.2734 143.55 68.2615 143.573C68.8951 145.914 69.7738 149.718 70.2761 152.793C70.5376 154.393 70.7049 155.837 70.6707 156.775C70.662 157.013 70.6396 157.235 70.5974 157.427C70.5576 157.607 70.4889 157.816 70.3494 157.98C70.1819 158.177 69.9299 158.285 69.6482 158.234C69.5584 158.218 69.4754 158.184 69.3972 158.143C69.2961 158.172 69.1933 158.181 69.1003 158.177C68.8671 158.166 68.6159 158.08 68.3767 157.975C67.887 157.76 67.2485 157.369 66.5027 156.87C65.0089 155.87 62.9389 154.334 60.531 152.643C60.4712 152.601 60.4235 152.548 60.3884 152.489C60.1946 153.609 60.0454 154.674 59.9324 155.635C59.736 157.303 59.6472 158.641 59.6101 159.372C63.0129 185.724 64.0159 201.042 64.7556 226.581C64.7636 226.857 64.5459 227.087 64.2703 227.096C63.9943 227.104 63.7638 226.886 63.7556 226.61C63.0234 201.329 62.0331 186.091 58.7087 160.211C58.6724 160.187 58.6394 160.158 58.6121 160.125C58.6003 160.083 58.5901 160.025 58.5886 160.011C58.5872 159.994 58.5867 159.98 58.5867 159.977C58.5865 159.969 58.5866 159.961 58.5867 159.957C58.5867 159.948 58.5874 159.936 58.5876 159.924C58.5882 159.898 58.589 159.86 58.5906 159.811C58.5913 159.789 58.5925 159.764 58.5935 159.737C58.5955 159.634 58.5975 159.493 58.5994 159.311C58.6003 159.215 58.556 159.027 58.3953 158.727C58.2405 158.439 58.0035 158.092 57.6873 157.692C57.0553 156.894 56.1415 155.929 55.0339 154.855C52.8207 152.71 49.877 150.175 46.9753 147.742C44.084 145.318 41.2194 142.983 39.2039 141.27C38.196 140.414 37.3815 139.698 36.8718 139.192C36.6257 138.948 36.4174 138.72 36.3015 138.536C36.2707 138.487 36.237 138.426 36.2117 138.358C36.1887 138.297 36.1552 138.184 36.1746 138.05C36.1979 137.887 36.292 137.74 36.4412 137.652C36.5646 137.58 36.6875 137.57 36.7566 137.57L36.8572 137.58C37.0849 137.627 37.2566 137.829 37.2566 138.07C37.2566 138.092 37.2525 138.113 37.2498 138.135C37.3222 138.22 37.4288 138.335 37.5769 138.482C38.056 138.958 38.8427 139.652 39.8513 140.509C41.8694 142.224 44.7046 144.534 47.6179 146.976C50.5212 149.41 53.4891 151.965 55.7302 154.137C56.8496 155.221 57.7993 156.223 58.4714 157.072C58.5681 157.194 58.6597 157.315 58.7458 157.432C58.795 156.865 58.8566 156.22 58.9392 155.518C59.3486 152.04 60.2246 147.101 62.0847 143.168L62.2419 142.833C62.2498 142.666 62.2571 142.445 62.2585 142.157C62.2646 140.913 62.197 138.599 62.0369 134.549V134.547C61.1232 134.737 60.1654 134.897 59.1619 135.026C58.8881 135.061 58.6375 134.867 58.6023 134.594C58.5674 134.32 58.7612 134.069 59.0349 134.034C66.3654 133.092 70.9522 130.606 73.532 125.355C76.1479 120.03 76.7494 111.779 75.7869 99.1581C75.766 98.883 75.9718 98.6432 76.2468 98.6219ZM91.6951 181.84C91.9691 181.807 92.218 182.003 92.2507 182.277C93.5018 192.761 94.1843 203.394 94.4285 211.188C94.5505 215.084 94.5633 218.279 94.4812 220.396C94.4404 221.448 94.3756 222.259 94.283 222.76C94.2595 222.887 94.2327 223.006 94.2 223.108C94.1707 223.2 94.1223 223.325 94.0378 223.431C93.9933 223.486 93.9177 223.564 93.8025 223.613C93.6743 223.668 93.5324 223.672 93.4021 223.628C93.1886 223.555 93.0799 223.378 93.0398 223.308C92.9017 223.069 92.9834 222.763 93.2224 222.625C93.2461 222.611 93.2708 222.6 93.2957 222.591C93.2964 222.586 93.2988 222.582 93.2996 222.578C93.3779 222.154 93.4415 221.406 93.4822 220.358C93.5629 218.275 93.5511 215.106 93.4294 211.22C93.1861 203.45 92.5048 192.847 91.2576 182.395C91.2249 182.121 91.4209 181.872 91.6951 181.84ZM114.663 186.114C113.47 187.122 112.372 188.437 111.374 189.98C109.866 192.311 108.602 195.133 107.582 198.127C105.651 203.795 104.614 210.024 104.432 214.58C105.654 214.061 106.506 213.561 107.202 213.05C107.343 212.946 107.478 212.84 107.609 212.734C108.938 199.876 111.269 191.977 114.663 186.114ZM167.755 198.16C167.967 198.092 168.195 198.022 168.438 197.947C168.165 197.787 167.891 197.626 167.612 197.467C167.66 197.696 167.708 197.927 167.755 198.16ZM68.9412 143.212C69.0354 142.952 69.3223 142.818 69.5818 142.912C70.2447 143.152 76.2193 145.197 82.0759 147.275C84.9976 148.312 87.8847 149.356 90.0466 150.181C91.1264 150.593 92.0315 150.953 92.6716 151.231C92.99 151.37 93.2538 151.493 93.4431 151.596C93.5355 151.645 93.6256 151.698 93.699 151.753C93.7349 151.78 93.7823 151.818 93.8259 151.867C93.8581 151.903 93.9508 152.012 93.9695 152.18L93.9744 152.224L93.9714 152.268C93.8864 153.551 93.6669 154.472 93.3162 155.112C93.2489 155.235 93.1738 155.345 93.0974 155.447C93.1132 155.429 93.1295 155.411 93.1482 155.395C93.3584 155.216 93.6742 155.242 93.8533 155.452C99.6129 162.213 102.653 167.973 107.693 182.169C107.786 182.429 107.65 182.715 107.389 182.807C107.129 182.9 106.843 182.764 106.751 182.504C101.729 168.36 98.739 162.728 93.0925 156.1C92.9446 155.927 92.9373 155.682 93.0574 155.501C92.7264 155.92 92.3202 156.161 91.863 156.264L91.7195 156.296L91.5808 156.245C87.3785 154.695 82.4815 152.957 78.7097 151.587C76.8274 150.903 75.2238 150.31 74.1345 149.88C73.5928 149.666 73.165 149.487 72.8923 149.355C72.768 149.295 72.6334 149.224 72.5398 149.15C72.5139 149.13 72.4736 149.095 72.4353 149.048C72.4052 149.01 72.3229 148.901 72.3162 148.736C72.3131 148.662 72.3259 148.594 72.3484 148.535V145.153C72.3484 145.08 72.3648 145.01 72.3933 144.947C70.6915 144.358 69.5113 143.95 69.241 143.852C68.9813 143.758 68.8471 143.471 68.9412 143.212ZM215.498 96.8505C232.188 95.1438 241.49 99.1476 246.967 106.627C252.378 114.018 253.964 124.709 255.51 136.133C257.445 139.333 260.608 143.719 263.674 148.475C266.74 153.234 269.68 158.323 270.977 162.72L271 162.796L270.997 162.876C270.884 166.614 270.292 171.497 267.57 175.285C264.815 179.118 259.957 181.73 251.552 181.064L251.531 181.062L251.51 181.058C244.075 179.823 237.844 178.506 233.108 173.147C228.391 167.81 225.229 158.551 223.595 141.663L223.573 141.432L223.734 141.266C225.973 138.954 227.458 136.572 228.059 134.488C228.66 132.407 228.364 130.704 227.185 129.583C225.957 128.415 224.673 128.274 223.596 128.659C222.488 129.056 221.552 130.03 221.124 131.168C221.058 131.343 220.945 131.58 220.723 131.714C220.594 131.792 220.439 131.827 220.279 131.801C220.131 131.776 220.017 131.706 219.936 131.641C219.784 131.518 219.668 131.34 219.579 131.179C219.484 131.006 219.392 130.797 219.303 130.569C218.952 129.665 218.581 128.258 218.235 126.873C217.885 125.469 217.56 124.081 217.298 123.159C217.262 123.034 217.228 122.921 217.197 122.822C214.678 124.939 211.011 125.81 207.606 124.621C204.36 123.487 201.443 120.518 199.966 115.183C199.405 116.967 198.937 118.346 198.514 119.285C198.244 119.886 197.962 120.379 197.639 120.671C197.47 120.824 197.256 120.951 196.998 120.976C196.732 121.003 196.495 120.913 196.302 120.774L196.209 120.708L196.154 120.607C191.789 112.568 192.448 106.155 196.445 101.971C200.384 97.8467 207.425 96.051 215.498 96.8505ZM139.854 170.222C138.362 168.907 137.001 168.492 135.755 168.738C134.484 168.989 133.197 169.95 131.925 171.685C130.765 173.267 129.655 175.445 128.607 178.167C129.389 178.032 130.154 177.908 130.904 177.791C131.802 176.044 132.627 174.702 133.439 173.768C134.269 172.814 135.135 172.228 136.099 172.137C137.065 172.046 137.998 172.464 138.934 173.212C139.871 173.96 140.872 175.088 141.992 176.539C142.027 176.585 142.052 176.635 142.069 176.687C142.892 176.666 143.689 176.663 144.46 176.678C142.857 173.622 141.315 171.508 139.854 170.222ZM136.193 173.133C135.595 173.189 134.946 173.56 134.194 174.425C133.555 175.159 132.88 176.209 132.131 177.605C135.328 177.14 138.231 176.849 140.871 176.73C139.904 175.509 139.067 174.597 138.31 173.993C137.469 173.321 136.79 173.076 136.193 173.133ZM29.5984 144.741C29.8259 144.585 30.1372 144.642 30.2937 144.87C30.4501 145.097 30.3931 145.409 30.1658 145.565C29.6283 145.935 29.1047 146.297 28.5935 146.649L31.8591 150.013C31.9121 150.039 31.9671 150.077 32.0164 150.134C32.1688 150.309 32.1436 150.507 32.1326 150.566C32.1189 150.64 32.0917 150.697 32.0779 150.724C32.027 150.825 31.9385 150.934 31.865 151.019C31.6954 151.216 31.4135 151.509 31.0369 151.877C30.2789 152.618 29.1006 153.703 27.572 155.026C24.5226 157.667 20.0659 161.268 14.7459 165.006C14.5049 165.257 14.1684 165.256 13.9568 165.219C13.7069 165.175 13.436 165.058 13.1775 164.921C12.6507 164.641 12.0232 164.194 11.4255 163.724C10.823 163.251 10.2305 162.738 9.76929 162.314C9.53879 162.103 9.33822 161.91 9.18433 161.755C9.0457 161.614 8.90664 161.466 8.83667 161.357L8.7732 161.259C8.70605 161.25 8.5296 161.225 8.38062 161.106C8.2907 161.034 8.20994 160.929 8.17456 160.789C8.14108 160.657 8.15867 160.536 8.1853 160.447C8.23397 160.285 8.33939 160.14 8.44116 160.019C8.55211 159.888 8.70382 159.737 8.89917 159.558C10.4341 158.158 15.419 154.492 29.5984 144.741ZM27.7644 147.221C15.3912 155.756 10.9573 159.033 9.573 160.297C9.54115 160.326 9.51212 160.354 9.48413 160.381C9.60386 160.444 9.75138 160.564 9.80249 160.784C9.81732 160.848 9.81915 160.91 9.81519 160.968C9.83964 160.993 9.86644 161.021 9.89624 161.052C10.0357 161.193 10.2235 161.374 10.446 161.578C10.8911 161.987 11.4641 162.483 12.0437 162.938C12.628 163.398 13.1994 163.801 13.6462 164.038C13.8605 164.152 14.0151 164.209 14.1111 164.229L14.1267 164.22C19.4354 160.493 23.8811 156.899 26.9167 154.27C28.4349 152.956 29.598 151.885 30.3376 151.162C30.6073 150.898 30.8136 150.683 30.9617 150.523L27.8044 147.271C27.7892 147.256 27.7772 147.238 27.7644 147.221ZM36.3767 135.974C36.5564 135.765 36.8721 135.74 37.0818 135.92C37.2911 136.099 37.3157 136.415 37.1365 136.625C35.3461 138.715 33.9521 140.338 33.0623 141.507C32.6151 142.094 32.3146 142.542 32.1541 142.861C32.0849 142.999 32.054 143.091 32.0417 143.144L32.0593 143.182C33.3009 146.044 36.6011 151.32 39.6658 155.681C41.1951 157.856 42.6525 159.785 43.7488 161.055C44.3019 161.695 44.7417 162.141 45.0408 162.372C45.0507 162.38 45.062 162.386 45.071 162.392C48.0965 158.27 49.7015 156.167 51.8455 153.679C52.0257 153.47 52.3424 153.446 52.5515 153.626C52.7601 153.806 52.7831 154.122 52.6033 154.331C50.4665 156.811 48.8705 158.904 45.7947 163.096C45.7513 163.198 45.6793 163.306 45.5593 163.388C45.3887 163.503 45.2044 163.51 45.0701 163.488C44.8335 163.449 44.6075 163.301 44.4304 163.165C44.0456 162.868 43.5506 162.355 42.9919 161.708C41.8637 160.402 40.385 158.442 38.8484 156.256C35.7984 151.916 32.4665 146.604 31.1648 143.632C31.0301 143.429 31.0211 143.2 31.0476 143.021C31.0775 142.821 31.1593 142.613 31.2605 142.412C31.465 142.005 31.8129 141.497 32.2664 140.901C33.1781 139.704 34.5961 138.053 36.3767 135.974ZM122.396 150.061C122.619 149.899 122.932 149.949 123.094 150.172L128.251 157.254C128.413 157.477 128.364 157.79 128.14 157.952C127.917 158.114 127.605 158.065 127.442 157.842L122.286 150.76C122.124 150.536 122.173 150.224 122.396 150.061ZM151.504 150.172C151.666 149.949 151.979 149.899 152.202 150.061C152.425 150.224 152.475 150.536 152.312 150.76L147.156 157.842C146.993 158.065 146.681 158.114 146.458 157.952C146.235 157.79 146.185 157.477 146.347 157.254L151.504 150.172ZM73.3484 148.464C73.5869 148.578 73.9765 148.742 74.5017 148.949C75.5766 149.374 77.1679 149.963 79.0505 150.647C82.7636 151.997 87.6046 153.714 91.7732 155.25C92.0132 155.167 92.2399 154.996 92.4392 154.632C92.6698 154.211 92.8604 153.534 92.9519 152.467C92.8005 152.386 92.5736 152.279 92.2732 152.148C91.6547 151.879 90.7664 151.526 89.6902 151.115C87.5397 150.295 84.662 149.255 81.7419 148.219C78.7426 147.154 75.692 146.091 73.3484 145.278V148.464ZM136.44 144.653C136.716 144.653 136.94 144.877 136.94 145.153V154.007C136.94 154.283 136.716 154.507 136.44 154.507C136.164 154.507 135.94 154.283 135.94 154.007V145.153C135.94 144.877 136.164 144.653 136.44 144.653ZM197.907 130.698C198.068 130.474 198.381 130.423 198.605 130.585C198.829 130.746 198.88 131.058 198.719 131.282C196.493 134.371 195.105 136.222 194.322 137.262C194.068 137.599 193.883 137.848 193.753 138.023C193.95 138.223 194.269 138.452 194.702 138.701C195.271 139.029 195.947 139.345 196.596 139.651C197.226 139.948 197.856 140.247 198.27 140.527C198.466 140.66 198.69 140.837 198.812 141.063C198.88 141.19 198.93 141.358 198.897 141.549C198.88 141.647 198.843 141.732 198.797 141.807C198.675 143.091 198.594 144.023 198.582 144.586C198.581 144.625 198.583 144.663 198.583 144.697C200.354 145.042 202.094 144.689 203.547 144.194C204.293 143.94 204.954 143.653 205.498 143.411C205.766 143.292 206.015 143.18 206.224 143.093C206.427 143.008 206.63 142.931 206.802 142.894C206.985 142.856 207.201 142.882 207.379 143.035C207.532 143.167 207.593 143.34 207.621 143.459C207.675 143.697 207.655 143.989 207.616 144.261C207.533 144.829 207.324 145.575 207.075 146.292C206.825 147.011 206.525 147.734 206.248 148.257C206.113 148.512 205.968 148.751 205.821 148.917C205.752 148.995 205.645 149.1 205.503 149.163C205.426 149.197 205.319 149.228 205.194 149.217C205.062 149.205 204.947 149.15 204.857 149.071C204.65 148.889 204.629 148.573 204.811 148.365C204.892 148.273 205 148.22 205.112 148.203C205.176 148.118 205.262 147.982 205.364 147.789C205.609 147.325 205.89 146.654 206.13 145.965C206.37 145.272 206.556 144.594 206.626 144.117C206.632 144.076 206.636 144.038 206.639 144.003C206.629 144.007 206.619 144.011 206.608 144.015C206.413 144.097 206.18 144.202 205.903 144.325C205.355 144.568 204.661 144.871 203.87 145.14C202.352 145.658 200.44 146.064 198.444 145.688C198.395 145.713 198.336 145.735 198.266 145.744C198.09 145.768 197.93 145.705 197.818 145.601C197.725 145.515 197.679 145.415 197.657 145.356C197.612 145.237 197.596 145.1 197.589 144.989C197.58 144.867 197.579 144.724 197.583 144.565C197.596 143.936 197.688 142.911 197.815 141.566L197.826 141.44C197.796 141.416 197.757 141.388 197.71 141.355C197.374 141.128 196.826 140.865 196.171 140.556C195.534 140.256 194.816 139.921 194.203 139.568C193.717 139.288 193.232 138.959 192.912 138.58C192.816 138.544 192.718 138.478 192.652 138.362C192.575 138.227 192.583 138.1 192.589 138.054C192.599 137.959 192.635 137.887 192.642 137.873C192.656 137.845 192.671 137.819 192.682 137.801C192.706 137.763 192.734 137.719 192.765 137.675C192.889 137.499 193.137 137.173 193.523 136.66C194.303 135.625 195.686 133.78 197.907 130.698ZM36.407 127.09C36.605 126.898 36.9217 126.902 37.114 127.099V127.1H37.115V127.101L37.1169 127.102C37.1182 127.104 37.1198 127.106 37.1218 127.108C37.126 127.113 37.1323 127.118 37.1394 127.126C37.1539 127.141 37.1744 127.164 37.2 127.192C37.2511 127.249 37.3227 127.33 37.408 127.432C37.5785 127.638 37.8068 127.931 38.0349 128.283C38.4811 128.973 38.9743 129.958 38.9744 130.989V138.071C38.9744 138.347 38.7504 138.571 38.4744 138.571C38.2326 138.571 38.0306 138.4 37.9841 138.172L37.9744 138.071V130.989C37.9743 130.25 37.6081 129.464 37.1951 128.826C36.9936 128.515 36.791 128.254 36.6394 128.072C36.5639 127.981 36.5015 127.91 36.4587 127.863C36.4375 127.84 36.4205 127.822 36.4099 127.81C36.405 127.805 36.4014 127.801 36.3992 127.799C36.3981 127.798 36.3966 127.797 36.3962 127.797C36.2042 127.599 36.2092 127.282 36.407 127.09ZM225.757 132.264C226.031 132.233 226.278 132.431 226.308 132.706C226.339 132.98 226.14 133.227 225.866 133.258C225.065 133.346 224.564 133.588 224.145 134.042C223.698 134.527 223.314 135.284 222.84 136.485C222.738 136.742 222.448 136.868 222.191 136.766C221.934 136.665 221.808 136.375 221.909 136.118C222.384 134.914 222.824 133.999 223.41 133.364C224.025 132.698 224.768 132.372 225.757 132.264ZM203.724 128.614C203.847 128.638 203.942 128.698 204.008 128.758C204.126 128.865 204.185 129 204.215 129.082C204.249 129.177 204.273 129.28 204.291 129.381C204.361 129.774 204.377 130.352 204.36 130.904C204.343 131.462 204.293 132.042 204.218 132.451C204.184 132.635 204.132 132.857 204.04 133.015C204.014 133.06 203.971 133.126 203.903 133.184C203.833 133.246 203.712 133.319 203.549 133.322C203.223 133.328 203.068 133.065 203.036 133.011C202.779 132.567 202.657 131.93 202.647 131.262C202.637 130.58 202.744 129.807 202.995 129.06L203.017 128.993L203.057 128.935C203.114 128.853 203.218 128.721 203.385 128.65C203.481 128.61 203.598 128.59 203.724 128.614ZM71.0681 63.2137C73.1459 62.959 74.7909 62.9307 76.0271 63.1356C77.2552 63.3392 78.1751 63.7905 78.6541 64.5829C79.1338 65.3767 79.0805 66.3632 78.7214 67.4188C78.4153 68.3185 77.8641 69.3355 77.1169 70.4569C78.003 70.6825 78.7268 71.0122 79.2322 71.5116C79.9051 72.1767 80.1172 73.0616 79.9597 74.1258C79.8055 75.1672 79.2935 76.4277 78.4695 77.9442C77.6659 79.423 76.5434 81.1812 75.1101 83.2704C75.606 85.0149 75.7705 86.0563 75.7117 87.0321C75.6812 87.5367 75.5929 88.0096 75.4763 88.5311C75.3578 89.0612 75.2181 89.609 75.0603 90.3495C75.0592 90.3604 75.0601 90.3721 75.0583 90.3837C75.0534 90.4152 75.034 90.5426 74.9324 90.6581C74.8713 90.7273 74.7794 90.7935 74.6589 90.8202C74.5433 90.8457 74.4437 90.8254 74.3767 90.8016C74.26 90.7601 74.1872 90.6869 74.1658 90.6649C74.1105 90.608 74.0674 90.5415 74.0427 90.5018C74.0126 90.4533 73.9801 90.3961 73.947 90.3358C73.8809 90.2153 73.797 90.0541 73.7 89.869C73.6016 89.6814 73.4861 89.4617 73.3513 89.2147C72.8333 88.2659 72.0301 86.9111 70.8826 85.454C64.7546 85.4408 62.4349 84.9123 59.1423 83.7323C55.982 85.5024 53.1912 86.5218 50.0193 87.0243C46.9856 87.5048 43.6215 87.5075 39.2859 87.2704C40.4751 89.8408 41.0542 91.9327 41.031 93.9989C41.0061 96.2103 40.2913 98.3328 39.0164 100.919C39.6469 102.688 39.3481 104.885 38.8357 106.434C38.5695 107.239 38.2219 107.945 37.8572 108.351C37.692 108.536 37.4195 108.777 37.0632 108.772C36.6306 108.767 36.3981 108.428 36.2908 108.156C36.1833 107.883 35.8847 107.535 35.3796 107.22C34.885 106.91 34.2333 106.66 33.49 106.555C32.0311 106.348 30.224 106.704 28.5642 108.281C27.6822 109.951 28.2196 111.732 29.8152 113.49C31.4324 115.272 34.049 116.911 36.948 118.131L37.2634 118.264L37.2546 118.605C37.155 122.225 37.1969 123.414 37.2546 125.661L37.2556 125.729L37.24 125.795C37.1712 126.07 37.0331 126.311 36.825 126.496C36.6195 126.679 36.3692 126.788 36.1052 126.842C35.5903 126.947 34.9688 126.858 34.3142 126.65C32.9923 126.231 31.3205 125.257 29.6013 123.822C26.1743 120.962 22.4493 116.182 20.8289 109.965C15.9155 103.649 13.6137 96.7005 14.3806 91.1483C14.7671 88.3509 15.9357 85.9003 17.95 84.0907C19.8826 82.3546 22.5579 81.2426 25.9763 80.9471C26.2722 77.2535 27.2228 74.2785 28.7244 71.9247C30.2859 69.4771 32.4255 67.7277 34.9812 66.5399C39.7531 64.3222 45.9769 64.062 52.6638 64.8173L54.0076 64.9813L54.0115 64.9823C58.2018 65.5678 60.3814 65.377 62.5251 64.9266C64.6789 64.4741 66.9258 63.7216 71.0681 63.2137ZM56.9187 118.406C57.0239 118.151 57.3158 118.029 57.571 118.135C59.6934 119.009 61.2623 119.44 62.739 119.448C64.2068 119.457 65.6347 119.048 67.4724 118.147C67.7204 118.026 68.0199 118.129 68.1414 118.377C68.2628 118.625 68.1608 118.924 67.9128 119.046C65.9981 119.984 64.412 120.458 62.7332 120.448C61.0635 120.438 59.3528 119.95 57.1902 119.058C56.9349 118.953 56.8135 118.661 56.9187 118.406ZM31.6824 109.25C32.7308 109.426 33.5486 109.722 34.1824 110.367C34.8029 110.998 35.1874 111.905 35.5203 113.155C35.5913 113.422 35.4324 113.696 35.1658 113.767C34.899 113.838 34.6246 113.68 34.5535 113.413C34.2312 112.203 33.9014 111.507 33.4695 111.067C33.0507 110.641 32.4767 110.397 31.5164 110.236C31.2442 110.19 31.0605 109.932 31.1062 109.66C31.1521 109.388 31.4102 109.204 31.6824 109.25ZM63.9607 102.256C64.1841 102.093 64.4976 102.143 64.6599 102.366C67.0192 105.612 68.5192 107.691 69.3279 109.035C69.7277 109.7 69.9906 110.237 70.0867 110.673C70.1361 110.898 70.1493 111.128 70.0896 111.349C70.0613 111.454 70.0163 111.548 69.9626 111.633C69.9679 111.688 69.9692 111.746 69.9626 111.805C69.9406 112 69.8524 112.162 69.7468 112.288C69.5511 112.522 69.2439 112.694 68.9304 112.835C68.2865 113.123 67.2939 113.412 66.116 113.763C65.8515 113.841 65.5737 113.69 65.4949 113.426C65.4162 113.161 65.5671 112.882 65.8318 112.804C67.0461 112.443 67.9542 112.176 68.5212 111.922C68.7453 111.821 68.8713 111.74 68.9363 111.686L68.7712 111.388L69.0964 111.124C69.1196 111.105 69.1217 111.097 69.1238 111.089C69.1286 111.071 69.1376 111.013 69.1101 110.888C69.0518 110.623 68.8646 110.206 68.4705 109.551C67.6901 108.254 66.2232 106.219 63.8503 102.954C63.6883 102.731 63.7376 102.418 63.9607 102.256ZM55.5378 102.067C55.6708 101.974 55.8809 101.894 56.1179 101.974C56.3262 102.046 56.4416 102.205 56.4978 102.305C56.5588 102.413 56.5983 102.533 56.6257 102.642C56.7326 103.067 56.7517 103.718 56.7273 104.324C56.7024 104.94 56.6291 105.59 56.5164 106.031C56.4877 106.143 56.4534 106.253 56.4119 106.351C56.3752 106.438 56.3122 106.566 56.2039 106.668C56.1452 106.723 56.0537 106.789 55.9285 106.818C55.7943 106.85 55.6619 106.83 55.5505 106.777C55.3618 106.688 55.2637 106.52 55.2175 106.431C54.9309 105.874 54.6877 105.322 54.6511 104.669C54.6145 104.011 54.7886 103.31 55.2117 102.441L55.2263 102.411L55.2449 102.384C55.319 102.272 55.4146 102.153 55.5378 102.067ZM71.0193 98.6337C71.2884 98.5725 71.5565 98.7405 71.6179 99.0096C71.6224 99.0294 71.6262 99.0496 71.6306 99.0692L71.6316 99.0702C71.6557 99.1778 71.7171 99.301 71.8367 99.5653C71.9444 99.8034 72.0718 100.107 72.1501 100.478C72.3111 101.243 72.2455 102.211 71.5886 103.507L71.5173 103.647L71.3787 103.722C71.2144 103.809 71.0306 103.818 70.865 103.759C70.7194 103.706 70.616 103.611 70.5496 103.536C70.4176 103.386 70.3198 103.185 70.2468 102.994C70.0951 102.597 69.98 102.06 69.9285 101.516C69.8771 100.975 69.8846 100.381 70.0115 99.8807C70.113 99.4802 70.3246 99.0257 70.7498 98.7987C70.8173 98.7189 70.9095 98.6587 71.0193 98.6337ZM52.7244 93.5145C53.6097 93.1938 54.5451 93.153 55.7302 93.3163C56.0033 93.3544 56.1946 93.6065 56.157 93.8798C56.1191 94.1529 55.8667 94.3438 55.5935 94.3065C54.5029 94.1562 53.7447 94.2084 53.0642 94.4549C52.3734 94.7054 51.7111 95.1746 50.8386 95.9549C50.6329 96.1386 50.3166 96.1202 50.1326 95.9149C49.9488 95.7091 49.9669 95.3928 50.1726 95.2089C51.071 94.4054 51.8493 93.8317 52.7244 93.5145ZM69.5486 92.6249C70.2268 92.6409 70.8104 92.9569 71.4246 93.4051C71.6472 93.5681 71.6966 93.8815 71.5339 94.1044C71.3712 94.3271 71.0577 94.3751 70.8347 94.2128C70.2654 93.7972 69.8892 93.6326 69.5251 93.6239C69.1544 93.6153 68.6945 93.7661 67.9597 94.2313C67.7267 94.3788 67.4182 94.3096 67.2703 94.077C67.1226 93.8438 67.1915 93.5344 67.4246 93.3866C68.2083 92.8904 68.8765 92.6092 69.5486 92.6249Z" fill="black"/>
<path d="M18.3313 316.84V318.024H15.2913V327.992H13.8353V318.024H10.7793V316.84H18.3313ZM24.9556 319.064C25.6169 319.064 26.2142 319.208 26.7476 319.496C27.2809 319.774 27.6969 320.195 27.9956 320.76C28.3049 321.326 28.4596 322.014 28.4596 322.824V327.992H27.0196V323.032C27.0196 322.158 26.8009 321.491 26.3636 321.032C25.9262 320.563 25.3289 320.328 24.5716 320.328C23.8036 320.328 23.1902 320.568 22.7316 321.048C22.2836 321.528 22.0596 322.227 22.0596 323.144V327.992H20.6036V316.152H22.0596V320.472C22.3476 320.024 22.7422 319.678 23.2436 319.432C23.7556 319.187 24.3262 319.064 24.9556 319.064ZM30.7739 323.576C30.7739 322.68 30.9553 321.896 31.3179 321.224C31.6806 320.542 32.1766 320.014 32.8059 319.64C33.4459 319.267 34.1553 319.08 34.9339 319.08C35.7019 319.08 36.3686 319.246 36.9339 319.576C37.4993 319.907 37.9206 320.323 38.1979 320.824V319.224H39.6699V327.992H38.1979V326.36C37.9099 326.872 37.4779 327.299 36.9019 327.64C36.3366 327.971 35.6753 328.136 34.9179 328.136C34.1393 328.136 33.4353 327.944 32.8059 327.56C32.1766 327.176 31.6806 326.638 31.3179 325.944C30.9553 325.251 30.7739 324.462 30.7739 323.576ZM38.1979 323.592C38.1979 322.931 38.0646 322.355 37.7979 321.864C37.5313 321.374 37.1686 321 36.7099 320.744C36.2619 320.478 35.7659 320.344 35.2219 320.344C34.6779 320.344 34.1819 320.472 33.7339 320.728C33.2859 320.984 32.9286 321.358 32.6619 321.848C32.3953 322.339 32.2619 322.915 32.2619 323.576C32.2619 324.248 32.3953 324.835 32.6619 325.336C32.9286 325.827 33.2859 326.206 33.7339 326.472C34.1819 326.728 34.6779 326.856 35.2219 326.856C35.7659 326.856 36.2619 326.728 36.7099 326.472C37.1686 326.206 37.5313 325.827 37.7979 325.336C38.0646 324.835 38.1979 324.254 38.1979 323.592ZM46.8824 319.064C47.9491 319.064 48.8131 319.39 49.4744 320.04C50.1358 320.68 50.4664 321.608 50.4664 322.824V327.992H49.0264V323.032C49.0264 322.158 48.8078 321.491 48.3704 321.032C47.9331 320.563 47.3358 320.328 46.5784 320.328C45.8104 320.328 45.1971 320.568 44.7384 321.048C44.2904 321.528 44.0664 322.227 44.0664 323.144V327.992H42.6104V319.224H44.0664V320.472C44.3544 320.024 44.7438 319.678 45.2344 319.432C45.7358 319.187 46.2851 319.064 46.8824 319.064ZM58.2208 327.992L54.7808 324.12V327.992H53.3248V316.152H54.7808V323.112L58.1568 319.224H60.1888L56.0608 323.592L60.2048 327.992H58.2208ZM65.1432 328.136C64.4712 328.136 63.8685 328.024 63.3352 327.8C62.8019 327.566 62.3805 327.246 62.0712 326.84C61.7619 326.424 61.5912 325.95 61.5592 325.416H63.0632C63.1059 325.854 63.3085 326.211 63.6712 326.488C64.0445 326.766 64.5299 326.904 65.1272 326.904C65.6819 326.904 66.1192 326.782 66.4392 326.536C66.7592 326.291 66.9192 325.982 66.9192 325.608C66.9192 325.224 66.7485 324.942 66.4072 324.76C66.0659 324.568 65.5379 324.382 64.8232 324.2C64.1725 324.03 63.6392 323.859 63.2232 323.688C62.8179 323.507 62.4659 323.246 62.1672 322.904C61.8792 322.552 61.7352 322.094 61.7352 321.528C61.7352 321.08 61.8685 320.67 62.1352 320.296C62.4019 319.923 62.7805 319.63 63.2712 319.416C63.7619 319.192 64.3219 319.08 64.9512 319.08C65.9219 319.08 66.7059 319.326 67.3032 319.816C67.9005 320.307 68.2205 320.979 68.2632 321.832H66.8072C66.7752 321.374 66.5885 321.006 66.2472 320.728C65.9165 320.451 65.4685 320.312 64.9032 320.312C64.3805 320.312 63.9645 320.424 63.6552 320.648C63.3459 320.872 63.1912 321.166 63.1912 321.528C63.1912 321.816 63.2819 322.056 63.4632 322.248C63.6552 322.43 63.8899 322.579 64.1672 322.696C64.4552 322.803 64.8499 322.926 65.3512 323.064C65.9805 323.235 66.4925 323.406 66.8872 323.576C67.2819 323.736 67.6179 323.982 67.8952 324.312C68.1832 324.643 68.3325 325.075 68.3432 325.608C68.3432 326.088 68.2099 326.52 67.9432 326.904C67.6765 327.288 67.2979 327.592 66.8072 327.816C66.3272 328.03 65.7725 328.136 65.1432 328.136ZM79.1922 320.424H77.3522V327.992H75.8962V320.424H74.7602V319.224H75.8962V318.6C75.8962 317.619 76.1469 316.904 76.6482 316.456C77.1602 315.998 77.9762 315.768 79.0962 315.768V316.984C78.4562 316.984 78.0029 317.112 77.7362 317.368C77.4802 317.614 77.3522 318.024 77.3522 318.6V319.224H79.1922V320.424ZM85.1938 328.136C84.3725 328.136 83.6258 327.95 82.9538 327.576C82.2925 327.203 81.7698 326.675 81.3858 325.992C81.0125 325.299 80.8258 324.499 80.8258 323.592C80.8258 322.696 81.0178 321.907 81.4018 321.224C81.7965 320.531 82.3298 320.003 83.0018 319.64C83.6738 319.267 84.4258 319.08 85.2578 319.08C86.0898 319.08 86.8418 319.267 87.5138 319.64C88.1858 320.003 88.7138 320.526 89.0978 321.208C89.4925 321.891 89.6898 322.686 89.6898 323.592C89.6898 324.499 89.4871 325.299 89.0818 325.992C88.6871 326.675 88.1485 327.203 87.4658 327.576C86.7831 327.95 86.0258 328.136 85.1938 328.136ZM85.1938 326.856C85.7165 326.856 86.2071 326.734 86.6658 326.488C87.1245 326.243 87.4925 325.875 87.7698 325.384C88.0578 324.894 88.2018 324.296 88.2018 323.592C88.2018 322.888 88.0631 322.291 87.7858 321.8C87.5085 321.31 87.1458 320.947 86.6978 320.712C86.2498 320.467 85.7645 320.344 85.2418 320.344C84.7085 320.344 84.2178 320.467 83.7698 320.712C83.3325 320.947 82.9805 321.31 82.7138 321.8C82.4471 322.291 82.3138 322.888 82.3138 323.592C82.3138 324.307 82.4418 324.91 82.6978 325.4C82.9645 325.891 83.3165 326.259 83.7538 326.504C84.1911 326.739 84.6711 326.856 85.1938 326.856ZM93.5402 320.648C93.7962 320.147 94.1589 319.758 94.6282 319.48C95.1082 319.203 95.6895 319.064 96.3722 319.064V320.568H95.9882C94.3562 320.568 93.5402 321.454 93.5402 323.224V327.992H92.0842V319.224H93.5402V320.648ZM107.631 319.064C108.292 319.064 108.889 319.208 109.423 319.496C109.956 319.774 110.372 320.195 110.671 320.76C110.98 321.326 111.135 322.014 111.135 322.824V327.992H109.695V323.032C109.695 322.158 109.476 321.491 109.039 321.032C108.601 320.563 108.004 320.328 107.247 320.328C106.479 320.328 105.865 320.568 105.407 321.048C104.959 321.528 104.735 322.227 104.735 323.144V327.992H103.279V316.152H104.735V320.472C105.023 320.024 105.417 319.678 105.919 319.432C106.431 319.187 107.001 319.064 107.631 319.064ZM121.993 323.272C121.993 323.55 121.977 323.843 121.945 324.152H114.937C114.99 325.016 115.284 325.694 115.817 326.184C116.361 326.664 117.017 326.904 117.785 326.904C118.414 326.904 118.937 326.76 119.353 326.472C119.78 326.174 120.078 325.779 120.249 325.288H121.817C121.582 326.131 121.113 326.819 120.409 327.352C119.705 327.875 118.83 328.136 117.785 328.136C116.953 328.136 116.206 327.95 115.545 327.576C114.894 327.203 114.382 326.675 114.009 325.992C113.636 325.299 113.449 324.499 113.449 323.592C113.449 322.686 113.63 321.891 113.993 321.208C114.356 320.526 114.862 320.003 115.513 319.64C116.174 319.267 116.932 319.08 117.785 319.08C118.617 319.08 119.353 319.262 119.993 319.624C120.633 319.987 121.124 320.488 121.465 321.128C121.817 321.758 121.993 322.472 121.993 323.272ZM120.489 322.968C120.489 322.414 120.366 321.939 120.121 321.544C119.876 321.139 119.54 320.835 119.113 320.632C118.697 320.419 118.233 320.312 117.721 320.312C116.985 320.312 116.356 320.547 115.833 321.016C115.321 321.486 115.028 322.136 114.953 322.968H120.489ZM125.851 316.152V327.992H124.395V316.152H125.851ZM130.268 320.84C130.556 320.339 130.983 319.923 131.548 319.592C132.124 319.251 132.791 319.08 133.548 319.08C134.327 319.08 135.031 319.267 135.66 319.64C136.3 320.014 136.802 320.542 137.164 321.224C137.527 321.896 137.708 322.68 137.708 323.576C137.708 324.462 137.527 325.251 137.164 325.944C136.802 326.638 136.3 327.176 135.66 327.56C135.031 327.944 134.327 328.136 133.548 328.136C132.802 328.136 132.14 327.971 131.564 327.64C130.999 327.299 130.567 326.878 130.268 326.376V332.152H128.812V319.224H130.268V320.84ZM136.22 323.576C136.22 322.915 136.087 322.339 135.82 321.848C135.554 321.358 135.191 320.984 134.732 320.728C134.284 320.472 133.788 320.344 133.244 320.344C132.711 320.344 132.215 320.478 131.756 320.744C131.308 321 130.946 321.379 130.668 321.88C130.402 322.371 130.268 322.942 130.268 323.592C130.268 324.254 130.402 324.835 130.668 325.336C130.946 325.827 131.308 326.206 131.756 326.472C132.215 326.728 132.711 326.856 133.244 326.856C133.788 326.856 134.284 326.728 134.732 326.472C135.191 326.206 135.554 325.827 135.82 325.336C136.087 324.835 136.22 324.248 136.22 323.576ZM140.857 317.8C140.579 317.8 140.345 317.704 140.153 317.512C139.961 317.32 139.865 317.086 139.865 316.808C139.865 316.531 139.961 316.296 140.153 316.104C140.345 315.912 140.579 315.816 140.857 315.816C141.123 315.816 141.347 315.912 141.529 316.104C141.721 316.296 141.817 316.531 141.817 316.808C141.817 317.086 141.721 317.32 141.529 317.512C141.347 317.704 141.123 317.8 140.857 317.8ZM141.561 319.224V327.992H140.105V319.224H141.561ZM148.794 319.064C149.861 319.064 150.725 319.39 151.386 320.04C152.048 320.68 152.378 321.608 152.378 322.824V327.992H150.938V323.032C150.938 322.158 150.72 321.491 150.282 321.032C149.845 320.563 149.248 320.328 148.49 320.328C147.722 320.328 147.109 320.568 146.65 321.048C146.202 321.528 145.978 322.227 145.978 323.144V327.992H144.522V319.224H145.978V320.472C146.266 320.024 146.656 319.678 147.146 319.432C147.648 319.187 148.197 319.064 148.794 319.064ZM158.853 319.08C159.61 319.08 160.271 319.246 160.837 319.576C161.413 319.907 161.839 320.323 162.117 320.824V319.224H163.589V328.184C163.589 328.984 163.418 329.694 163.077 330.312C162.735 330.942 162.245 331.432 161.605 331.784C160.975 332.136 160.239 332.312 159.397 332.312C158.245 332.312 157.285 332.04 156.517 331.496C155.749 330.952 155.295 330.211 155.157 329.272H156.597C156.757 329.806 157.087 330.232 157.589 330.552C158.09 330.883 158.693 331.048 159.397 331.048C160.197 331.048 160.847 330.798 161.349 330.296C161.861 329.795 162.117 329.091 162.117 328.184V326.344C161.829 326.856 161.402 327.283 160.837 327.624C160.271 327.966 159.61 328.136 158.853 328.136C158.074 328.136 157.365 327.944 156.725 327.56C156.095 327.176 155.599 326.638 155.237 325.944C154.874 325.251 154.693 324.462 154.693 323.576C154.693 322.68 154.874 321.896 155.237 321.224C155.599 320.542 156.095 320.014 156.725 319.64C157.365 319.267 158.074 319.08 158.853 319.08ZM162.117 323.592C162.117 322.931 161.983 322.355 161.717 321.864C161.45 321.374 161.087 321 160.629 320.744C160.181 320.478 159.685 320.344 159.141 320.344C158.597 320.344 158.101 320.472 157.653 320.728C157.205 320.984 156.847 321.358 156.581 321.848C156.314 322.339 156.181 322.915 156.181 323.576C156.181 324.248 156.314 324.835 156.581 325.336C156.847 325.827 157.205 326.206 157.653 326.472C158.101 326.728 158.597 326.856 159.141 326.856C159.685 326.856 160.181 326.728 160.629 326.472C161.087 326.206 161.45 325.827 161.717 325.336C161.983 324.835 162.117 324.254 162.117 323.592ZM166.993 328.088C166.716 328.088 166.481 327.992 166.289 327.8C166.097 327.608 166.001 327.374 166.001 327.096C166.001 326.819 166.097 326.584 166.289 326.392C166.481 326.2 166.716 326.104 166.993 326.104C167.26 326.104 167.484 326.2 167.665 326.392C167.857 326.584 167.953 326.819 167.953 327.096C167.953 327.374 167.857 327.608 167.665 327.8C167.484 327.992 167.26 328.088 166.993 328.088ZM181.978 316.84V318.024H178.938V327.992H177.482V318.024H174.426V316.84H181.978ZM188.602 319.064C189.264 319.064 189.861 319.208 190.394 319.496C190.928 319.774 191.344 320.195 191.642 320.76C191.952 321.326 192.106 322.014 192.106 322.824V327.992H190.666V323.032C190.666 322.158 190.448 321.491 190.01 321.032C189.573 320.563 188.976 320.328 188.218 320.328C187.45 320.328 186.837 320.568 186.378 321.048C185.93 321.528 185.706 322.227 185.706 323.144V327.992H184.25V316.152H185.706V320.472C185.994 320.024 186.389 319.678 186.89 319.432C187.402 319.187 187.973 319.064 188.602 319.064ZM202.965 323.272C202.965 323.55 202.949 323.843 202.917 324.152H195.909C195.962 325.016 196.255 325.694 196.789 326.184C197.333 326.664 197.989 326.904 198.757 326.904C199.386 326.904 199.909 326.76 200.325 326.472C200.751 326.174 201.05 325.779 201.221 325.288H202.789C202.554 326.131 202.085 326.819 201.381 327.352C200.677 327.875 199.802 328.136 198.757 328.136C197.925 328.136 197.178 327.95 196.517 327.576C195.866 327.203 195.354 326.675 194.981 325.992C194.607 325.299 194.421 324.499 194.421 323.592C194.421 322.686 194.602 321.891 194.965 321.208C195.327 320.526 195.834 320.003 196.485 319.64C197.146 319.267 197.903 319.08 198.757 319.08C199.589 319.08 200.325 319.262 200.965 319.624C201.605 319.987 202.095 320.488 202.437 321.128C202.789 321.758 202.965 322.472 202.965 323.272ZM201.461 322.968C201.461 322.414 201.338 321.939 201.093 321.544C200.847 321.139 200.511 320.835 200.085 320.632C199.669 320.419 199.205 320.312 198.693 320.312C197.957 320.312 197.327 320.547 196.805 321.016C196.293 321.486 195.999 322.136 195.925 322.968H201.461ZM213.936 328.136C213.115 328.136 212.368 327.95 211.696 327.576C211.035 327.203 210.512 326.675 210.128 325.992C209.755 325.299 209.568 324.499 209.568 323.592C209.568 322.696 209.76 321.907 210.144 321.224C210.539 320.531 211.072 320.003 211.744 319.64C212.416 319.267 213.168 319.08 214 319.08C214.832 319.08 215.584 319.267 216.256 319.64C216.928 320.003 217.456 320.526 217.84 321.208C218.235 321.891 218.432 322.686 218.432 323.592C218.432 324.499 218.23 325.299 217.824 325.992C217.43 326.675 216.891 327.203 216.208 327.576C215.526 327.95 214.768 328.136 213.936 328.136ZM213.936 326.856C214.459 326.856 214.95 326.734 215.408 326.488C215.867 326.243 216.235 325.875 216.512 325.384C216.8 324.894 216.944 324.296 216.944 323.592C216.944 322.888 216.806 322.291 216.528 321.8C216.251 321.31 215.888 320.947 215.44 320.712C214.992 320.467 214.507 320.344 213.984 320.344C213.451 320.344 212.96 320.467 212.512 320.712C212.075 320.947 211.723 321.31 211.456 321.8C211.19 322.291 211.056 322.888 211.056 323.592C211.056 324.307 211.184 324.91 211.44 325.4C211.707 325.891 212.059 326.259 212.496 326.504C212.934 326.739 213.414 326.856 213.936 326.856ZM232.507 319.224L229.771 327.992H228.267L226.155 321.032L224.043 327.992H222.539L219.787 319.224H221.275L223.291 326.584L225.467 319.224H226.955L229.083 326.6L231.067 319.224H232.507ZM238.704 319.064C239.77 319.064 240.634 319.39 241.296 320.04C241.957 320.68 242.288 321.608 242.288 322.824V327.992H240.848V323.032C240.848 322.158 240.629 321.491 240.192 321.032C239.754 320.563 239.157 320.328 238.4 320.328C237.632 320.328 237.018 320.568 236.56 321.048C236.112 321.528 235.888 322.227 235.888 323.144V327.992H234.432V319.224H235.888V320.472C236.176 320.024 236.565 319.678 237.056 319.432C237.557 319.187 238.106 319.064 238.704 319.064ZM253.146 323.272C253.146 323.55 253.13 323.843 253.098 324.152H246.09C246.143 325.016 246.437 325.694 246.97 326.184C247.514 326.664 248.17 326.904 248.938 326.904C249.567 326.904 250.09 326.76 250.506 326.472C250.933 326.174 251.231 325.779 251.402 325.288H252.97C252.735 326.131 252.266 326.819 251.562 327.352C250.858 327.875 249.983 328.136 248.938 328.136C248.106 328.136 247.359 327.95 246.698 327.576C246.047 327.203 245.535 326.675 245.162 325.992C244.789 325.299 244.602 324.499 244.602 323.592C244.602 322.686 244.783 321.891 245.146 321.208C245.509 320.526 246.015 320.003 246.666 319.64C247.327 319.267 248.085 319.08 248.938 319.08C249.77 319.08 250.506 319.262 251.146 319.624C251.786 319.987 252.277 320.488 252.618 321.128C252.97 321.758 253.146 322.472 253.146 323.272ZM251.642 322.968C251.642 322.414 251.519 321.939 251.274 321.544C251.029 321.139 250.693 320.835 250.266 320.632C249.85 320.419 249.386 320.312 248.874 320.312C248.138 320.312 247.509 320.547 246.986 321.016C246.474 321.486 246.181 322.136 246.106 322.968H251.642ZM257.004 320.648C257.26 320.147 257.623 319.758 258.092 319.48C258.572 319.203 259.153 319.064 259.836 319.064V320.568H259.452C257.82 320.568 257.004 321.454 257.004 323.224V327.992H255.548V319.224H257.004V320.648ZM65.8243 343.064C66.4856 343.064 67.083 343.208 67.6163 343.496C68.1496 343.774 68.5656 344.195 68.8643 344.76C69.1736 345.326 69.3283 346.014 69.3283 346.824V351.992H67.8883V347.032C67.8883 346.158 67.6696 345.491 67.2323 345.032C66.795 344.563 66.1976 344.328 65.4403 344.328C64.6723 344.328 64.059 344.568 63.6003 345.048C63.1523 345.528 62.9283 346.227 62.9283 347.144V351.992H61.4723V340.152H62.9283V344.472C63.2163 344.024 63.611 343.678 64.1123 343.432C64.6243 343.187 65.195 343.064 65.8243 343.064ZM71.6427 347.576C71.6427 346.68 71.824 345.896 72.1867 345.224C72.5493 344.542 73.0453 344.014 73.6747 343.64C74.3147 343.267 75.024 343.08 75.8027 343.08C76.5707 343.08 77.2373 343.246 77.8027 343.576C78.368 343.907 78.7893 344.323 79.0667 344.824V343.224H80.5387V351.992H79.0667V350.36C78.7787 350.872 78.3467 351.299 77.7707 351.64C77.2053 351.971 76.544 352.136 75.7867 352.136C75.008 352.136 74.304 351.944 73.6747 351.56C73.0453 351.176 72.5493 350.638 72.1867 349.944C71.824 349.251 71.6427 348.462 71.6427 347.576ZM79.0667 347.592C79.0667 346.931 78.9333 346.355 78.6667 345.864C78.4 345.374 78.0373 345 77.5787 344.744C77.1307 344.478 76.6347 344.344 76.0907 344.344C75.5467 344.344 75.0507 344.472 74.6027 344.728C74.1547 344.984 73.7973 345.358 73.5307 345.848C73.264 346.339 73.1307 346.915 73.1307 347.576C73.1307 348.248 73.264 348.835 73.5307 349.336C73.7973 349.827 74.1547 350.206 74.6027 350.472C75.0507 350.728 75.5467 350.856 76.0907 350.856C76.6347 350.856 77.1307 350.728 77.5787 350.472C78.0373 350.206 78.4 349.827 78.6667 349.336C78.9333 348.835 79.0667 348.254 79.0667 347.592ZM86.5832 352.136C85.9112 352.136 85.3085 352.024 84.7752 351.8C84.2419 351.566 83.8205 351.246 83.5112 350.84C83.2019 350.424 83.0312 349.95 82.9992 349.416H84.5032C84.5459 349.854 84.7485 350.211 85.1112 350.488C85.4845 350.766 85.9699 350.904 86.5672 350.904C87.1219 350.904 87.5592 350.782 87.8792 350.536C88.1992 350.291 88.3592 349.982 88.3592 349.608C88.3592 349.224 88.1885 348.942 87.8472 348.76C87.5059 348.568 86.9779 348.382 86.2632 348.2C85.6125 348.03 85.0792 347.859 84.6632 347.688C84.2579 347.507 83.9059 347.246 83.6072 346.904C83.3192 346.552 83.1752 346.094 83.1752 345.528C83.1752 345.08 83.3085 344.67 83.5752 344.296C83.8419 343.923 84.2205 343.63 84.7112 343.416C85.2019 343.192 85.7619 343.08 86.3912 343.08C87.3619 343.08 88.1459 343.326 88.7432 343.816C89.3405 344.307 89.6605 344.979 89.7032 345.832H88.2472C88.2152 345.374 88.0285 345.006 87.6872 344.728C87.3565 344.451 86.9085 344.312 86.3432 344.312C85.8205 344.312 85.4045 344.424 85.0952 344.648C84.7859 344.872 84.6312 345.166 84.6312 345.528C84.6312 345.816 84.7219 346.056 84.9032 346.248C85.0952 346.43 85.3299 346.579 85.6072 346.696C85.8952 346.803 86.2899 346.926 86.7912 347.064C87.4205 347.235 87.9325 347.406 88.3272 347.576C88.7219 347.736 89.0579 347.982 89.3352 348.312C89.6232 348.643 89.7725 349.075 89.7832 349.608C89.7832 350.088 89.6499 350.52 89.3832 350.904C89.1165 351.288 88.7379 351.592 88.2472 351.816C87.7672 352.03 87.2125 352.136 86.5832 352.136ZM98.5202 344.856C98.8189 344.334 99.2562 343.907 99.8322 343.576C100.408 343.246 101.064 343.08 101.8 343.08C102.59 343.08 103.299 343.267 103.928 343.64C104.558 344.014 105.054 344.542 105.416 345.224C105.779 345.896 105.96 346.68 105.96 347.576C105.96 348.462 105.779 349.251 105.416 349.944C105.054 350.638 104.552 351.176 103.912 351.56C103.283 351.944 102.579 352.136 101.8 352.136C101.043 352.136 100.376 351.971 99.8002 351.64C99.2349 351.31 98.8082 350.888 98.5202 350.376V351.992H97.0642V340.152H98.5202V344.856ZM104.472 347.576C104.472 346.915 104.339 346.339 104.072 345.848C103.806 345.358 103.443 344.984 102.984 344.728C102.536 344.472 102.04 344.344 101.496 344.344C100.963 344.344 100.467 344.478 100.008 344.744C99.5602 345 99.1975 345.379 98.9202 345.88C98.6535 346.371 98.5202 346.942 98.5202 347.592C98.5202 348.254 98.6535 348.835 98.9202 349.336C99.1975 349.827 99.5602 350.206 100.008 350.472C100.467 350.728 100.963 350.856 101.496 350.856C102.04 350.856 102.536 350.728 102.984 350.472C103.443 350.206 103.806 349.827 104.072 349.336C104.339 348.835 104.472 348.248 104.472 347.576ZM116.357 347.272C116.357 347.55 116.341 347.843 116.309 348.152H109.301C109.354 349.016 109.647 349.694 110.181 350.184C110.725 350.664 111.381 350.904 112.149 350.904C112.778 350.904 113.301 350.76 113.717 350.472C114.143 350.174 114.442 349.779 114.613 349.288H116.181C115.946 350.131 115.477 350.819 114.773 351.352C114.069 351.875 113.194 352.136 112.149 352.136C111.317 352.136 110.57 351.95 109.909 351.576C109.258 351.203 108.746 350.675 108.373 349.992C107.999 349.299 107.813 348.499 107.813 347.592C107.813 346.686 107.994 345.891 108.357 345.208C108.719 344.526 109.226 344.003 109.877 343.64C110.538 343.267 111.295 343.08 112.149 343.08C112.981 343.08 113.717 343.262 114.357 343.624C114.997 343.987 115.487 344.488 115.829 345.128C116.181 345.758 116.357 346.472 116.357 347.272ZM114.853 346.968C114.853 346.414 114.73 345.939 114.485 345.544C114.239 345.139 113.903 344.835 113.477 344.632C113.061 344.419 112.597 344.312 112.085 344.312C111.349 344.312 110.719 344.547 110.197 345.016C109.685 345.486 109.391 346.136 109.317 346.968H114.853ZM126.759 347.272C126.759 347.55 126.743 347.843 126.711 348.152H119.703C119.756 349.016 120.049 349.694 120.583 350.184C121.127 350.664 121.783 350.904 122.551 350.904C123.18 350.904 123.703 350.76 124.119 350.472C124.545 350.174 124.844 349.779 125.015 349.288H126.583C126.348 350.131 125.879 350.819 125.175 351.352C124.471 351.875 123.596 352.136 122.551 352.136C121.719 352.136 120.972 351.95 120.311 351.576C119.66 351.203 119.148 350.675 118.775 349.992C118.401 349.299 118.215 348.499 118.215 347.592C118.215 346.686 118.396 345.891 118.759 345.208C119.121 344.526 119.628 344.003 120.279 343.64C120.94 343.267 121.697 343.08 122.551 343.08C123.383 343.08 124.119 343.262 124.759 343.624C125.399 343.987 125.889 344.488 126.231 345.128C126.583 345.758 126.759 346.472 126.759 347.272ZM125.255 346.968C125.255 346.414 125.132 345.939 124.887 345.544C124.641 345.139 124.305 344.835 123.879 344.632C123.463 344.419 122.999 344.312 122.487 344.312C121.751 344.312 121.121 344.547 120.599 345.016C120.087 345.486 119.793 346.136 119.719 346.968H125.255ZM133.432 343.064C134.499 343.064 135.363 343.39 136.024 344.04C136.686 344.68 137.016 345.608 137.016 346.824V351.992H135.576V347.032C135.576 346.158 135.358 345.491 134.92 345.032C134.483 344.563 133.886 344.328 133.128 344.328C132.36 344.328 131.747 344.568 131.288 345.048C130.84 345.528 130.616 346.227 130.616 347.144V351.992H129.16V343.224H130.616V344.472C130.904 344.024 131.294 343.678 131.784 343.432C132.286 343.187 132.835 343.064 133.432 343.064ZM148.892 343.064C149.959 343.064 150.823 343.39 151.484 344.04C152.146 344.68 152.476 345.608 152.476 346.824V351.992H151.036V347.032C151.036 346.158 150.818 345.491 150.38 345.032C149.943 344.563 149.346 344.328 148.588 344.328C147.82 344.328 147.207 344.568 146.748 345.048C146.3 345.528 146.076 346.227 146.076 347.144V351.992H144.62V343.224H146.076V344.472C146.364 344.024 146.754 343.678 147.244 343.432C147.746 343.187 148.295 343.064 148.892 343.064ZM159.159 352.136C158.337 352.136 157.591 351.95 156.919 351.576C156.257 351.203 155.735 350.675 155.351 349.992C154.977 349.299 154.791 348.499 154.791 347.592C154.791 346.696 154.983 345.907 155.367 345.224C155.761 344.531 156.295 344.003 156.967 343.64C157.639 343.267 158.391 343.08 159.223 343.08C160.055 343.08 160.807 343.267 161.479 343.64C162.151 344.003 162.679 344.526 163.063 345.208C163.457 345.891 163.655 346.686 163.655 347.592C163.655 348.499 163.452 349.299 163.047 349.992C162.652 350.675 162.113 351.203 161.431 351.576C160.748 351.95 159.991 352.136 159.159 352.136ZM159.159 350.856C159.681 350.856 160.172 350.734 160.631 350.488C161.089 350.243 161.457 349.875 161.735 349.384C162.023 348.894 162.167 348.296 162.167 347.592C162.167 346.888 162.028 346.291 161.751 345.8C161.473 345.31 161.111 344.947 160.663 344.712C160.215 344.467 159.729 344.344 159.207 344.344C158.673 344.344 158.183 344.467 157.735 344.712C157.297 344.947 156.945 345.31 156.679 345.8C156.412 346.291 156.279 346.888 156.279 347.592C156.279 348.307 156.407 348.91 156.663 349.4C156.929 349.891 157.281 350.259 157.719 350.504C158.156 350.739 158.636 350.856 159.159 350.856ZM167.825 344.424V349.592C167.825 350.019 167.916 350.323 168.097 350.504C168.279 350.675 168.593 350.76 169.041 350.76H170.113V351.992H168.801C167.991 351.992 167.383 351.806 166.977 351.432C166.572 351.059 166.369 350.446 166.369 349.592V344.424H165.233V343.224H166.369V341.016H167.825V343.224H170.113V344.424H167.825ZM173.109 341.8C172.832 341.8 172.597 341.704 172.405 341.512C172.213 341.32 172.117 341.086 172.117 340.808C172.117 340.531 172.213 340.296 172.405 340.104C172.597 339.912 172.832 339.816 173.109 339.816C173.376 339.816 173.6 339.912 173.781 340.104C173.973 340.296 174.069 340.531 174.069 340.808C174.069 341.086 173.973 341.32 173.781 341.512C173.6 341.704 173.376 341.8 173.109 341.8ZM173.813 343.224V351.992H172.357V343.224H173.813ZM180.343 344.424H178.503V351.992H177.047V344.424H175.911V343.224H177.047V342.6C177.047 341.619 177.297 340.904 177.799 340.456C178.311 339.998 179.127 339.768 180.247 339.768V340.984C179.607 340.984 179.153 341.112 178.887 341.368C178.631 341.614 178.503 342.024 178.503 342.6V343.224H180.343V344.424ZM183.272 341.8C182.995 341.8 182.76 341.704 182.568 341.512C182.376 341.32 182.28 341.086 182.28 340.808C182.28 340.531 182.376 340.296 182.568 340.104C182.76 339.912 182.995 339.816 183.272 339.816C183.539 339.816 183.763 339.912 183.944 340.104C184.136 340.296 184.232 340.531 184.232 340.808C184.232 341.086 184.136 341.32 183.944 341.512C183.763 341.704 183.539 341.8 183.272 341.8ZM183.976 343.224V351.992H182.52V343.224H183.976ZM194.938 347.272C194.938 347.55 194.922 347.843 194.89 348.152H187.882C187.935 349.016 188.229 349.694 188.762 350.184C189.306 350.664 189.962 350.904 190.73 350.904C191.359 350.904 191.882 350.76 192.298 350.472C192.725 350.174 193.023 349.779 193.194 349.288H194.762C194.527 350.131 194.058 350.819 193.354 351.352C192.65 351.875 191.775 352.136 190.73 352.136C189.898 352.136 189.151 351.95 188.49 351.576C187.839 351.203 187.327 350.675 186.954 349.992C186.581 349.299 186.394 348.499 186.394 347.592C186.394 346.686 186.575 345.891 186.938 345.208C187.301 344.526 187.807 344.003 188.458 343.64C189.119 343.267 189.877 343.08 190.73 343.08C191.562 343.08 192.298 343.262 192.938 343.624C193.578 343.987 194.069 344.488 194.41 345.128C194.762 345.758 194.938 346.472 194.938 347.272ZM193.434 346.968C193.434 346.414 193.311 345.939 193.066 345.544C192.821 345.139 192.485 344.835 192.058 344.632C191.642 344.419 191.178 344.312 190.666 344.312C189.93 344.312 189.301 344.547 188.778 345.016C188.266 345.486 187.973 346.136 187.898 346.968H193.434ZM196.796 347.576C196.796 346.68 196.977 345.896 197.34 345.224C197.702 344.542 198.198 344.014 198.828 343.64C199.468 343.267 200.182 343.08 200.972 343.08C201.654 343.08 202.289 343.24 202.876 343.56C203.462 343.87 203.91 344.28 204.22 344.792V340.152H205.692V351.992H204.22V350.344C203.932 350.867 203.505 351.299 202.94 351.64C202.374 351.971 201.713 352.136 200.956 352.136C200.177 352.136 199.468 351.944 198.828 351.56C198.198 351.176 197.702 350.638 197.34 349.944C196.977 349.251 196.796 348.462 196.796 347.576ZM204.22 347.592C204.22 346.931 204.086 346.355 203.82 345.864C203.553 345.374 203.19 345 202.732 344.744C202.284 344.478 201.788 344.344 201.244 344.344C200.7 344.344 200.204 344.472 199.756 344.728C199.308 344.984 198.95 345.358 198.684 345.848C198.417 346.339 198.284 346.915 198.284 347.576C198.284 348.248 198.417 348.835 198.684 349.336C198.95 349.827 199.308 350.206 199.756 350.472C200.204 350.728 200.7 350.856 201.244 350.856C201.788 350.856 202.284 350.728 202.732 350.472C203.19 350.206 203.553 349.827 203.82 349.336C204.086 348.835 204.22 348.254 204.22 347.592ZM209.096 352.088C208.819 352.088 208.584 351.992 208.392 351.8C208.2 351.608 208.104 351.374 208.104 351.096C208.104 350.819 208.2 350.584 208.392 350.392C208.584 350.2 208.819 350.104 209.096 350.104C209.363 350.104 209.587 350.2 209.768 350.392C209.96 350.584 210.056 350.819 210.056 351.096C210.056 351.374 209.96 351.608 209.768 351.8C209.587 351.992 209.363 352.088 209.096 352.088Z" fill="#1F2937"/>
</svg>
