<svg width="192" height="214" viewBox="0 0 192 214" fill="none" xmlns="http://www.w3.org/2000/svg">
<path opacity="0.8" d="M95.4064 90.1464C93.1068 88.4553 120.13 95.2541 125.217 98.8971C124.982 103.108 124.531 103.963 123.464 104.148C108.28 99.6172 96.3113 96.171 95.4064 95.3968C94.4251 92.2682 94.2628 90.9295 95.4064 90.1464Z" fill="#003873" stroke="#003873"/>
<path opacity="0.8" d="M39.4642 95.5859C36.6816 95.7598 25.3031 103.829 14.2011 110.76C13.2852 110.777 14.4147 112.039 19.6146 114.133C21.8083 113.911 44.4133 99.6761 43.0732 98.9581C42.4209 97.078 41.2611 96.8334 39.4642 95.5859Z" fill="#003873" stroke="#003873"/>
<ellipse opacity="0.5" cx="96.6961" cy="52.0732" rx="7.65217" ry="7.84667" fill="#FFB1B1"/>
<ellipse opacity="0.5" cx="60.5213" cy="62.0596" rx="7.65217" ry="7.84667" fill="#FFB1B1"/>
<path d="M121.043 131.252C116.591 135.247 68.1737 147.659 44.5215 153.366L45.9128 165.492L124.521 145.519C125.217 139.099 125.495 127.258 121.043 131.252Z" fill="#FF383C" fill-opacity="0.5"/>
<path d="M109.913 201.874L137.044 134.82H190.609L162.783 201.874H109.913Z" fill="#003873"/>
<path d="M39.7604 139.59C39.9839 139.393 40.3607 139.192 40.8627 139.314C41.3413 139.43 41.5843 139.787 41.6543 139.893C41.8452 140.182 41.9811 140.582 42.0863 140.948C42.3137 141.741 42.5493 142.933 42.7821 144.365C43.2507 147.25 43.738 151.272 44.1567 155.419C44.5756 159.569 44.927 163.864 45.1207 167.299C45.2174 169.015 45.2758 170.529 45.2824 171.705C45.2856 172.292 45.2757 172.807 45.2505 173.227C45.2268 173.62 45.1846 174.017 45.093 174.315C44.8755 175.023 44.244 175.577 43.6162 175.995C43.0424 176.377 42.3068 176.747 41.4479 177.107C41.5157 177.244 41.5584 177.397 41.5585 177.558V179.328C41.558 179.906 41.0697 180.376 40.469 180.377C39.8677 180.377 39.3801 179.907 39.3795 179.328V177.872C37.4509 178.503 35.0649 179.103 32.3106 179.598C26.2136 180.696 18.2347 181.321 9.28022 180.764C9.30219 180.827 9.31989 180.894 9.32917 180.963C10.0292 186.182 10.693 190.725 11.6294 194.623C12.5659 198.52 13.7608 201.705 15.4831 204.228C18.8464 209.156 24.4185 211.837 35.062 211.9C43.0458 211.285 51.5143 208.608 61.3162 204.327C71.1406 200.036 82.2224 194.173 95.4351 187.254C95.9634 186.978 96.6266 187.166 96.914 187.674C97.2014 188.182 97.0036 188.821 96.4757 189.098C93.5879 190.61 90.7939 192.071 88.0917 193.482C88.0917 193.491 88.096 193.502 88.096 193.512C88.0542 195.04 88.0798 197.264 88.096 200.557C88.0988 201.136 87.6121 201.609 87.0107 201.612C86.4094 201.615 85.9198 201.147 85.917 200.568C85.9046 198.039 85.8877 196.1 85.9 194.625C77.1632 199.169 69.365 203.114 62.2163 206.236C52.3003 210.567 43.549 213.361 35.1833 213.996L35.1386 214H35.0918C24.0297 213.942 17.5854 211.128 13.6616 205.38C11.739 202.562 10.4719 199.108 9.50791 195.096C8.54389 191.083 7.8684 186.443 7.16934 181.231C7.14025 181.013 7.18101 180.801 7.27786 180.619C6.3775 180.546 5.46718 180.467 4.54988 180.369C3.95182 180.305 3.51969 179.787 3.58593 179.211C3.65275 178.637 4.19096 178.222 4.7882 178.285C15.4375 179.421 24.9645 178.786 31.9106 177.536C35.3863 176.91 38.1898 176.134 40.152 175.362C41.1355 174.975 41.8761 174.603 42.3756 174.27C42.8738 173.938 42.9908 173.74 43.0034 173.721C43.0034 173.721 43.0062 173.715 43.0076 173.709C43.0096 173.7 43.0111 173.687 43.014 173.672C43.0203 173.64 43.028 173.595 43.0353 173.541C43.05 173.43 43.065 173.285 43.0757 173.107C43.0973 172.748 43.1065 172.28 43.1034 171.716C43.0971 170.588 43.0396 169.114 42.9438 167.414C42.7522 164.015 42.4051 159.75 41.9884 155.622C41.5714 151.492 41.0877 147.515 40.6286 144.689C40.3977 143.268 40.178 142.176 39.986 141.508C39.9609 141.42 39.9297 141.348 39.9094 141.286C39.8816 141.27 39.8509 141.258 39.8243 141.239C39.3391 140.897 39.2344 140.242 39.5902 139.774L39.7604 139.59Z" fill="black"/>
<path d="M39.7604 139.59C39.9839 139.393 40.3607 139.192 40.8627 139.314C41.3413 139.43 41.5843 139.787 41.6543 139.893C41.8452 140.182 41.9811 140.582 42.0863 140.948C42.3137 141.741 42.5493 142.933 42.7821 144.365C43.2507 147.25 43.738 151.272 44.1567 155.419C44.5756 159.569 44.927 163.864 45.1207 167.299C45.2174 169.015 45.2758 170.529 45.2824 171.705C45.2856 172.292 45.2757 172.807 45.2505 173.227C45.2268 173.62 45.1846 174.017 45.093 174.315C44.8755 175.023 44.244 175.577 43.6162 175.995C43.0424 176.377 42.3068 176.747 41.4479 177.107C41.5157 177.244 41.5584 177.397 41.5585 177.558V179.328C41.558 179.906 41.0697 180.376 40.469 180.377C39.8677 180.377 39.3801 179.907 39.3795 179.328V177.872C37.4509 178.503 35.0649 179.103 32.3106 179.598C26.2136 180.696 18.2347 181.321 9.28022 180.764C9.30219 180.827 9.31989 180.894 9.32917 180.963C10.0292 186.182 10.693 190.725 11.6294 194.623C12.5659 198.52 13.7608 201.705 15.4831 204.228C18.8464 209.156 24.4185 211.837 35.062 211.9C43.0458 211.285 51.5143 208.608 61.3162 204.327C71.1406 200.036 82.2224 194.173 95.4351 187.254C95.9634 186.978 96.6266 187.166 96.914 187.674C97.2014 188.182 97.0036 188.821 96.4757 189.098C93.5879 190.61 90.7939 192.071 88.0917 193.482C88.0917 193.491 88.096 193.502 88.096 193.512C88.0542 195.04 88.0798 197.264 88.096 200.557C88.0988 201.136 87.6121 201.609 87.0107 201.612C86.4094 201.615 85.9198 201.147 85.917 200.568C85.9046 198.039 85.8877 196.1 85.9 194.625C77.1632 199.169 69.365 203.114 62.2163 206.236C52.3003 210.567 43.549 213.361 35.1833 213.996L35.1386 214H35.0918C24.0297 213.942 17.5854 211.128 13.6616 205.38C11.739 202.562 10.4719 199.108 9.50791 195.096C8.54389 191.083 7.8684 186.443 7.16934 181.231C7.14025 181.013 7.18101 180.801 7.27786 180.619C6.3775 180.546 5.46718 180.467 4.54988 180.369C3.95182 180.305 3.51969 179.787 3.58593 179.211C3.65275 178.637 4.19096 178.222 4.7882 178.285C15.4375 179.421 24.9645 178.786 31.9106 177.536C35.3863 176.91 38.1898 176.134 40.152 175.362C41.1355 174.975 41.8761 174.603 42.3756 174.27C42.8738 173.938 42.9908 173.74 43.0034 173.721C43.0034 173.721 43.0062 173.715 43.0076 173.709C43.0096 173.7 43.0111 173.687 43.014 173.672C43.0203 173.64 43.028 173.595 43.0353 173.541C43.05 173.43 43.065 173.285 43.0757 173.107C43.0973 172.748 43.1065 172.28 43.1034 171.716C43.0971 170.588 43.0396 169.114 42.9438 167.414C42.7522 164.015 42.4051 159.75 41.9884 155.622C41.5714 151.492 41.0877 147.515 40.6286 144.689C40.3977 143.268 40.178 142.176 39.986 141.508C39.9609 141.42 39.9297 141.348 39.9094 141.286C39.8816 141.27 39.8509 141.258 39.8243 141.239C39.3391 140.897 39.2344 140.242 39.5902 139.774L39.7604 139.59Z" fill="black" fill-opacity="0.2"/>
<path fill-rule="evenodd" clip-rule="evenodd" d="M94.0052 40.2574C94.6004 40.1726 95.1555 40.5673 95.2436 41.1403C97.0769 53.0708 97.4402 61.8179 95.7479 68.2653C94.0916 74.5746 90.4713 78.6413 84.5743 81.3413C84.6744 82.4942 84.7754 83.5482 84.8509 84.5493C85.164 84.4425 85.5237 84.4726 85.8212 84.6641C89.2394 86.8677 90.8255 88.1839 91.5198 90.2034C91.5817 90.1268 91.6533 90.0541 91.739 89.9944L91.939 89.8776C92.14 89.7823 92.3375 89.7437 92.4667 89.724C92.6652 89.6939 92.8777 89.685 93.0838 89.6871C93.4995 89.6915 94.0119 89.7393 94.5818 89.8162C95.729 89.9709 97.24 90.2592 98.9653 90.6336C102.423 91.3838 106.832 92.5016 111.109 93.6654C115.388 94.8295 119.554 96.0457 122.528 96.9943C124.009 97.4667 125.219 97.8803 126.003 98.1928C126.37 98.3392 126.728 98.4958 126.969 98.6516C127.034 98.6937 127.129 98.7591 127.22 98.8483C127.284 98.9116 127.489 99.1241 127.547 99.4649C127.581 99.6629 127.559 99.8873 127.454 100.102C127.428 100.154 127.397 100.202 127.367 100.245C127.044 101.533 126.757 102.796 126.494 103.707C126.352 104.2 126.195 104.674 126.009 105.039C125.917 105.219 125.786 105.433 125.603 105.617C125.417 105.802 125.082 106.047 124.605 106.051H124.436L124.275 106.004C117.766 104.076 110.589 102.115 104.989 100.493C102.207 99.6874 99.8133 98.9646 98.127 98.3812C97.2905 98.0919 96.5898 97.824 96.0948 97.5864C95.8561 97.4717 95.6053 97.3374 95.4053 97.1808C95.3078 97.1042 95.1672 96.979 95.0542 96.8038C94.9607 96.6585 94.8512 96.4168 94.867 96.1196V92.6145C94.8672 92.3913 94.9391 92.1822 95.0628 92.0122C94.7829 91.9665 94.5211 91.926 94.2797 91.8934C93.7474 91.8216 93.3403 91.7878 93.0604 91.7849C92.9528 91.7838 92.8801 91.7888 92.837 91.793C92.5573 91.9191 92.2405 91.9214 91.9645 91.8135C92.134 92.7123 92.248 93.8868 92.3795 95.6321C92.5913 98.4444 92.861 102.839 93.4604 110.228L93.6243 112.246L91.8177 111.211C89.7103 110.004 88.0201 108.743 86.6405 107.792C85.2295 106.82 84.2094 106.228 83.2677 106.043C83.096 106.322 82.8787 106.707 82.6145 107.229C82.3512 107.75 81.6999 107.968 81.159 107.714C80.6185 107.461 80.3935 106.832 80.6568 106.311C81.1136 105.408 81.4827 104.79 81.791 104.384C81.9438 104.182 82.1109 103.992 82.2974 103.845C82.4676 103.71 82.7798 103.511 83.2018 103.511C83.6973 103.511 84.0352 103.778 84.2104 104.009C84.2425 104.051 84.2708 104.096 84.2955 104.138C85.5355 104.514 86.7191 105.268 87.9087 106.088C88.8955 106.768 89.9355 107.52 91.124 108.294C90.6388 102.144 90.3932 98.2864 90.2047 95.7836C89.9912 92.9484 89.8469 91.9408 89.5642 91.2113L89.5472 91.1641L89.5323 91.117C89.1541 89.7692 88.3246 88.8313 84.953 86.6327C84.9747 88.105 84.8672 89.5318 84.487 91.0863L84.4764 91.1293L84.4615 91.1703C80.6951 102.253 79.8675 105.767 79.1332 110.468C79.0873 110.76 78.9199 111.005 78.6885 111.164C78.7614 111.253 78.8364 111.341 78.9098 111.431C79.2826 111.884 79.2043 112.544 78.7332 112.903C78.702 112.927 78.666 112.943 78.6331 112.963C78.8638 113.102 79.0428 113.322 79.1141 113.596C81.8658 124.213 83.4334 136.115 86.3021 170.396C86.309 170.479 86.3017 170.56 86.2894 170.638C87.6329 170.358 88.6644 170.131 89.3365 169.948C89.3621 169.941 89.3871 169.93 89.411 169.923C89.4659 169.624 89.5876 169.319 89.7174 169.048C90.0164 168.426 90.5188 167.637 91.1346 166.77C92.378 165.022 94.2027 162.789 96.1522 160.6C98.1022 158.411 100.204 156.236 102.01 154.61C102.91 153.8 103.762 153.104 104.498 152.609C104.51 152.601 104.522 152.592 104.534 152.584C102.762 151.366 101.307 150.362 100.297 149.632C99.666 149.175 99.1629 148.792 98.8653 148.52C98.7885 148.45 98.7049 148.37 98.6313 148.284C98.5842 148.23 98.4326 148.054 98.3589 147.805C98.353 147.785 98.3476 147.761 98.3419 147.735C98.1955 147.552 98.0179 147.311 97.8844 147.047C97.7577 146.796 97.4769 146.162 97.8014 145.521C98.177 144.779 98.9989 144.654 99.5356 144.654H101.325V145.703L101.991 144.871L109.15 150.181C109.363 150.339 109.493 150.561 109.545 150.796C113.488 150.018 118.135 150.51 123.083 151.769C123.888 151.974 124.603 152.154 125.232 152.314C124.368 144.972 123.737 140.214 123.207 137.113C122.934 135.522 122.692 134.389 122.466 133.58C122.236 132.759 122.04 132.337 121.891 132.117C121.564 131.631 121.708 130.982 122.213 130.667C122.717 130.352 123.392 130.489 123.719 130.974C124.052 131.468 124.318 132.14 124.568 133.035C124.822 133.942 125.079 135.152 125.356 136.771C125.91 140.012 126.569 144.989 127.469 152.664C127.478 152.741 127.475 152.818 127.467 152.891C127.723 152.959 127.949 153.021 128.145 153.076C129.537 149.671 130.838 146.494 131.965 143.714C133.276 140.48 134.355 137.789 135.082 135.911C135.447 134.97 135.72 134.243 135.889 133.756C135.96 133.552 136.003 133.404 136.031 133.307C136.029 133.3 136.025 133.292 136.023 133.285C136.282 132.639 136.952 132.282 137.008 132.273C137.025 132.271 137.052 132.269 137.061 132.269C137.082 132.268 137.101 132.267 137.106 132.266C137.145 132.266 137.185 132.273 137.223 132.277L137.215 132.273C137.198 132.271 137.175 132.269 137.166 132.269H137.344C137.529 132.269 137.827 132.27 138.225 132.271C139.023 132.271 140.231 132.272 141.775 132.273C144.446 132.273 148.128 132.273 152.455 132.273C152.145 131.965 152.048 131.494 152.255 131.087L154.342 126.957H159.966C161.347 125.697 162.561 124.722 163.656 124.058C164.828 123.347 165.967 122.92 167.088 122.958C168.258 122.997 169.216 123.533 170.014 124.349C170.668 125.017 171.244 125.91 171.802 126.957H177.594V131.545C177.594 131.826 177.476 132.08 177.29 132.269C181.838 132.268 186.42 132.267 190.823 132.266V133.197C190.824 132.267 190.833 132.266 190.842 132.266C190.842 132.266 190.856 132.266 190.861 132.266C190.874 132.267 190.887 132.268 190.9 132.269C190.926 132.27 190.955 132.275 190.983 132.279C191.039 132.287 191.098 132.298 191.157 132.316C191.279 132.353 191.394 132.412 191.498 132.488C191.705 132.64 191.823 132.83 191.887 132.983C192.002 133.26 192.01 133.567 191.993 133.846C191.958 134.439 191.762 135.473 191.2 137.365C190.065 141.18 187.361 148.743 181.094 163.79C181.006 164.002 180.85 164.168 180.664 164.281C180.789 164.357 180.894 164.458 180.977 164.572C181.016 164.518 181.063 164.466 181.113 164.419C181.544 164.015 182.234 164.023 182.654 164.437C183.977 165.745 183.846 167.578 183.356 169.032C182.852 170.527 181.863 171.992 180.864 172.98C180.805 173.038 180.738 173.089 180.673 173.137C180.973 173.324 181.173 173.649 181.173 174.018V174.09C181.172 174.133 181.171 174.194 181.169 174.27C181.165 174.424 181.158 174.644 181.143 174.905C181.114 175.424 181.055 176.128 180.935 176.841C180.817 177.537 180.628 178.321 180.307 178.957C180.076 179.414 179.651 180.017 178.954 180.262C179.358 180.559 179.503 181.1 179.273 181.557L177.483 185.095L177.358 185.341L177.126 185.496C175.516 186.575 173.597 186.549 171.672 186.113C169.943 185.721 168.017 184.949 165.999 184.105C165.814 184.161 165.646 184.17 165.539 184.167C165.303 184.16 165.064 184.095 164.848 184.017C165.165 184.432 165.128 185.018 164.735 185.388C164.304 185.792 163.612 185.782 163.192 185.367C163.154 185.329 163.114 185.296 163.079 185.263L162.928 185.402C162.64 185.662 162.443 185.85 162.309 186.017C162.183 186.174 162.164 186.254 162.16 186.281C162.157 186.303 162.12 186.61 162.964 187.444C163.629 188.101 164.708 188.488 165.758 188.696C166.263 188.796 166.722 188.847 167.052 188.872C167.216 188.885 167.348 188.89 167.435 188.893C167.478 188.894 167.511 188.897 167.531 188.897H167.599C168.127 188.918 168.602 188.931 169.029 188.944C169.252 188.879 169.496 188.881 169.729 188.967C170.268 188.979 170.717 188.982 171.095 188.975C171.902 188.959 172.29 188.898 172.506 188.827C172.66 188.776 172.755 188.716 172.936 188.526C173.046 188.41 173.152 188.285 173.325 188.09C173.489 187.905 173.687 187.688 173.934 187.444C174.354 187.03 175.044 187.02 175.474 187.424C175.905 187.828 175.912 188.492 175.494 188.907C175.294 189.105 175.131 189.284 174.983 189.45C174.845 189.606 174.687 189.791 174.542 189.944C174.212 190.291 173.824 190.608 173.212 190.81C172.662 190.992 171.993 191.056 171.14 191.072C170.814 191.079 170.445 191.075 170.029 191.068C169.885 191.393 169.697 191.815 169.474 192.304C168.939 193.472 168.205 195.033 167.414 196.597C166.626 198.155 165.768 199.746 164.982 200.955C164.592 201.554 164.194 202.098 163.813 202.503C163.624 202.705 163.409 202.904 163.175 203.059C163.01 203.168 162.774 203.295 162.488 203.352L162.184 203.382H110.275C110.013 203.382 109.747 203.296 109.533 203.12C109.338 202.961 109.242 202.775 109.194 202.653C109.106 202.429 109.105 202.216 109.107 202.112C109.113 201.874 109.165 201.595 109.226 201.33C109.354 200.774 109.591 199.994 109.907 199.046C110.545 197.135 111.549 194.421 112.795 191.183C114.1 187.79 115.677 183.805 117.387 179.541C116.887 179.274 116.469 179.054 116.131 178.877C114.515 181.628 112.747 183.634 110.32 185.205C107.685 186.911 104.352 188.06 99.808 189.192C99.2259 189.336 98.633 188.998 98.4823 188.438C98.332 187.877 98.681 187.305 99.2633 187.16C103.75 186.042 106.785 184.964 109.103 183.464C111.26 182.068 112.856 180.257 114.401 177.554C114.377 177.39 114.387 177.178 114.499 176.952C114.761 176.426 115.292 176.362 115.408 176.354C115.569 176.342 115.698 176.369 115.742 176.378C115.911 176.414 116.079 176.49 116.15 176.522C116.26 176.571 116.394 176.634 116.546 176.71C116.917 176.895 117.46 177.182 118.18 177.566C118.808 176.007 119.45 174.417 120.1 172.812C119.952 172.588 119.894 172.315 119.949 172.048L119.94 172.045C119.275 171.83 117.946 171.667 115.578 171.525C114.977 171.489 114.521 170.991 114.559 170.413C114.597 169.835 115.114 169.395 115.714 169.431C118.018 169.57 119.648 169.738 120.636 170.058C120.795 170.11 120.967 170.174 121.136 170.257C121.517 169.319 121.9 168.378 122.283 167.438C122.357 167.256 122.432 167.072 122.506 166.889C121.259 166.368 119.415 166.16 115.663 166.219C115.062 166.229 114.566 165.766 114.557 165.187C114.547 164.608 115.026 164.131 115.627 164.122C119.395 164.062 121.609 164.248 123.302 164.937C123.914 163.437 124.525 161.944 125.128 160.469C122.29 159.305 119.761 158.946 113.893 159.14C113.292 159.159 112.788 158.706 112.767 158.128C112.747 157.549 113.217 157.062 113.818 157.042C119.839 156.843 122.704 157.208 125.924 158.517C126.387 157.385 126.843 156.264 127.292 155.165C127.252 155.111 127.217 155.052 127.188 154.991C126.27 154.745 124.787 154.372 122.528 153.797C116.254 152.2 110.971 152.007 107.16 153.731L106.913 153.844L106.639 153.83C106.722 153.834 106.689 153.81 106.483 153.901C106.299 153.983 106.052 154.123 105.745 154.329C105.13 154.743 104.364 155.362 103.498 156.142C101.77 157.698 99.7245 159.812 97.8056 161.967C95.8866 164.121 94.1163 166.292 92.9327 167.957C92.3365 168.795 91.9175 169.468 91.6964 169.927C91.6681 169.986 91.6455 170.041 91.6262 170.087C91.7904 170.432 91.7405 170.788 91.6028 171.046C91.4861 171.263 91.3205 171.393 91.241 171.451C91.1477 171.519 91.052 171.571 90.9793 171.607C90.7118 171.738 90.3294 171.857 89.9302 171.966C89.0889 172.195 87.7987 172.48 86.1787 172.812C82.9306 173.477 78.203 174.366 72.7814 175.436C61.9022 177.583 48.1336 180.476 37.2218 183.866C36.6499 184.043 36.0365 183.74 35.8515 183.19C35.6671 182.639 35.9813 182.046 36.5537 181.868C47.5918 178.439 61.4655 175.527 72.343 173.381C77.0474 172.453 81.1758 171.663 84.3019 171.04C84.2098 170.9 84.1465 170.74 84.1317 170.564C81.2608 136.257 79.7024 124.526 77.001 114.104C76.8846 113.653 77.0911 113.202 77.4777 112.967C77.3755 112.905 77.2802 112.829 77.2011 112.733C75.3089 110.435 73.5817 108.398 71.96 106.565C71.9697 106.612 71.9803 106.66 71.9834 106.709C72.0192 107.286 71.562 107.784 70.962 107.819C69.862 107.884 68.6511 108.511 67.0041 109.972C65.3666 111.425 63.4733 113.539 60.98 116.308L59.9182 117.486L59.184 116.095C57.3885 112.688 56.1299 110.612 52.1343 105.645C51.7662 105.188 51.8535 104.527 52.3279 104.173C52.8035 103.818 53.4893 103.901 53.8579 104.359C57.3755 108.731 58.8495 110.96 60.3863 113.764C62.3678 111.567 64.035 109.754 65.5273 108.429C67.2668 106.886 68.952 105.836 70.8301 105.725C70.9787 105.717 71.1233 105.736 71.2557 105.781C64.7892 98.5769 59.915 94.6098 52.596 90.0743C52.3848 89.9983 52.2262 89.8739 52.1364 89.7752C51.9963 89.6209 51.9345 89.4627 51.9129 89.4044C51.8847 89.328 51.8662 89.2575 51.8555 89.2078C51.8168 89.0277 51.7987 88.7959 51.7874 88.5768C51.7636 88.1157 51.7591 87.4213 51.764 86.5344C50.6727 87.8 49.4204 89.3844 48.453 90.863C47.9269 91.6671 47.5012 92.4145 47.2273 93.0427C47 93.5645 46.9234 93.9054 46.9102 94.0915C48.1345 96.3485 48.8137 97.4895 49.2509 98.1006C49.4698 98.4063 49.6023 98.5407 49.6786 98.6066C49.7446 98.6633 49.793 98.694 49.9468 98.7766C50.4719 99.0586 50.6603 99.6967 50.3681 100.202C50.075 100.708 49.4104 100.89 48.8849 100.608C48.7213 100.52 48.4862 100.394 48.2253 100.17C47.9736 99.9526 47.7303 99.6723 47.4571 99.2908C46.9294 98.5534 46.1809 97.2872 44.9334 94.9847C44.8293 95.1276 44.6917 95.2504 44.5163 95.3309C44.1489 95.4992 43.7829 95.6705 43.4183 95.841C43.6005 96.0544 43.8349 96.3425 44.0673 96.6871C44.5508 97.404 45.1373 98.5007 45.1377 99.6923C45.1377 100.001 45.0188 100.252 44.9398 100.393C44.8508 100.551 44.737 100.7 44.627 100.829C44.4056 101.09 44.1088 101.377 43.7716 101.673C43.0911 102.27 42.1402 103.002 41.0308 103.808C38.8047 105.425 35.8496 107.402 32.9192 109.304C29.9858 111.209 27.0604 113.049 24.8863 114.393C23.8007 115.064 22.8986 115.613 22.2754 115.987C21.9655 116.172 21.7179 116.319 21.5498 116.415C21.4704 116.46 21.3912 116.504 21.3285 116.536C21.3186 116.541 21.2316 116.585 21.1306 116.618C21.1034 116.626 21.0245 116.652 20.922 116.665C20.8673 116.67 20.7299 116.673 20.6475 116.667C20.5527 116.65 20.36 116.579 20.2028 116.499L20.1985 116.507C17.7048 114.995 16.2472 114.094 15.4597 113.571C15.0942 113.329 14.787 113.113 14.6043 112.932C14.555 112.883 14.4682 112.791 14.3936 112.668C14.3414 112.581 14.146 112.237 14.2851 111.797C14.4083 111.41 14.695 111.218 14.9 111.129C25.4569 102.892 34.0155 97.8165 43.58 93.436C43.9915 93.248 44.4631 93.3318 44.7802 93.6101C44.8602 93.1403 45.0273 92.6654 45.2164 92.2314C45.5548 91.4551 46.0497 90.6002 46.6081 89.7465C47.7283 88.0343 49.1781 86.218 50.3745 84.8566C50.7302 84.4525 51.3351 84.376 51.7874 84.6518C51.8126 82.9862 51.8539 80.892 51.9066 78.4364C51.919 77.8573 52.4179 77.3961 53.0195 77.4081C53.621 77.4201 54.098 77.9003 54.0855 78.4794C54.0112 81.9495 53.9538 84.6738 53.943 86.4914C53.9377 87.3707 53.9429 88.0173 53.9621 88.4273C62.8997 93.9857 68.3222 98.7897 77.1223 109.28C77.8573 104.826 78.835 100.985 82.3719 90.5742C83.0273 87.8704 82.7733 85.6902 82.4634 82.2181C81.7294 82.4922 80.9681 82.7545 80.1759 82.9965C79.6028 83.1714 78.99 82.8657 78.8076 82.3144C78.6257 81.7624 78.943 81.1725 79.5162 80.9971C80.7609 80.617 81.9161 80.2013 82.9847 79.7455C88.7245 77.2971 92.0859 73.6518 93.6349 67.7511C95.2132 61.738 94.9171 53.3502 93.0881 41.4476C93 40.8749 93.4105 40.3426 94.0052 40.2574ZM154.534 134.37C149.306 134.371 144.862 134.371 141.773 134.37C140.229 134.37 139.022 134.369 138.223 134.368C138.135 134.368 138.05 134.366 137.972 134.366C137.966 134.384 137.961 134.404 137.955 134.422C137.774 134.944 137.489 135.7 137.123 136.644C136.389 138.539 135.305 141.241 133.993 144.476C132.799 147.419 131.413 150.813 129.926 154.448C129.926 154.529 129.917 154.616 129.895 154.704C129.841 154.911 129.733 155.061 129.633 155.167C128.21 158.647 126.703 162.334 125.188 166.051C125.225 166.081 125.263 166.109 125.3 166.139C125.759 166.514 125.814 167.177 125.426 167.619C125.166 167.912 124.775 168.029 124.407 167.967C124.375 168.045 124.343 168.124 124.311 168.202C122.87 171.742 121.437 175.282 120.074 178.671C120.344 178.994 120.399 179.456 120.176 179.84C120.007 180.132 119.711 180.308 119.393 180.356C117.696 184.591 116.132 188.546 114.837 191.912C113.594 195.144 112.604 197.824 111.982 199.689C111.767 200.331 111.607 200.866 111.49 201.285H161.998C162.045 201.247 162.112 201.188 162.196 201.098C162.451 200.827 162.77 200.401 163.135 199.84C163.858 198.727 164.678 197.218 165.456 195.68C166.231 194.148 166.952 192.612 167.48 191.458C167.553 191.297 167.621 191.141 167.686 190.997C167.642 190.995 167.597 190.994 167.552 190.993L167.535 190.995C167.525 190.995 167.511 190.993 167.495 190.993C167.462 190.992 167.416 190.992 167.359 190.991C167.243 190.987 167.079 190.979 166.88 190.964C166.483 190.934 165.933 190.872 165.32 190.751C164.134 190.516 162.528 190.02 161.403 188.907C160.467 187.982 159.845 187.033 160.002 185.982C160.079 185.474 160.323 185.061 160.583 184.736C160.754 184.523 160.955 184.322 161.154 184.134C161.201 183.923 161.317 183.547 161.626 183.241C161.814 183.055 162.075 182.896 162.401 182.831C162.489 182.814 162.579 182.805 162.664 182.802C162.459 182.665 162.253 182.524 162.054 182.382C161.258 181.818 160.473 181.201 159.96 180.725C159.738 180.52 159.45 180.237 159.294 179.955C159.25 179.876 159.175 179.724 159.147 179.529L159.145 179.525C158.914 179.276 158.675 178.912 158.653 178.433C158.616 177.62 159.198 177.044 159.809 176.671L159.839 176.655L159.87 176.638C160.349 176.386 160.805 176.153 161.224 175.979C161.63 175.809 162.071 175.664 162.52 175.624C162.103 175.349 161.716 175.059 161.403 174.75C160.916 174.268 160.553 173.797 160.392 173.32C160.306 173.066 160.268 172.778 160.328 172.48C160.39 172.174 160.543 171.925 160.732 171.738C161.075 171.4 161.506 171.29 161.713 171.249C161.777 171.236 161.838 171.229 161.892 171.222C164.131 170.227 166.193 170.497 169.58 171.224C170.166 171.35 170.537 171.911 170.408 172.476C170.277 173.041 169.695 173.398 169.108 173.273C165.718 172.546 164.313 172.455 162.809 173.123C162.856 173.173 162.906 173.229 162.964 173.287C163.305 173.624 163.871 174.009 164.597 174.407C165.307 174.798 166.11 175.168 166.873 175.491C167.634 175.814 168.344 176.083 168.863 176.272C169.121 176.366 169.331 176.441 169.476 176.491C169.548 176.516 169.605 176.534 169.642 176.546C169.649 176.549 169.657 176.55 169.663 176.552C169.672 176.554 169.682 176.558 169.693 176.56C169.745 176.573 169.822 176.592 169.921 176.616C170.118 176.664 170.403 176.734 170.75 176.817C171.446 176.981 172.391 177.199 173.389 177.419C174.389 177.639 175.438 177.857 176.34 178.019C177.193 178.172 177.84 178.259 178.198 178.273C178.23 178.235 178.285 178.165 178.349 178.038C178.53 177.678 178.677 177.135 178.783 176.505C178.887 175.892 178.94 175.267 178.966 174.791C178.98 174.555 178.986 174.357 178.99 174.221C178.991 174.154 178.994 174.1 178.994 174.065V174.018C178.994 173.877 179.022 173.74 179.075 173.617C179.022 173.619 178.97 173.626 178.92 173.627C178.258 173.635 177.487 173.527 176.689 173.359C175.086 173.02 173.177 172.389 171.391 171.677C169.605 170.964 167.885 170.147 166.669 169.413C166.075 169.054 165.532 168.676 165.169 168.303C164.995 168.124 164.779 167.862 164.671 167.532C164.54 167.134 164.575 166.621 164.973 166.217L165.007 166.185L165.009 166.18L165.018 166.172L165.022 166.17L165.024 166.168L165.026 166.164L165.033 166.16L165.048 166.144L165.052 166.141L165.054 166.137L165.08 166.113L165.084 166.109L165.086 166.107L165.09 166.103C165.09 166.103 165.089 166.102 165.092 166.098L165.099 166.092L165.103 166.088L165.107 166.086C165.114 166.079 165.102 166.09 165.109 166.082L165.118 166.074L165.122 166.072L165.163 166.031C165.166 166.027 165.162 166.03 165.167 166.025L165.171 166.021L165.177 166.017L165.18 166.014L165.182 166.01L165.186 166.006L165.192 166.002L165.194 166L165.197 165.996L165.237 165.957L165.239 165.953C165.247 165.946 165.237 165.957 165.246 165.949L165.248 165.945L165.252 165.943L165.254 165.939L165.258 165.937L165.263 165.93L165.316 165.879L165.318 165.875L165.322 165.873C165.329 165.866 165.32 165.873 165.329 165.865C165.334 165.86 165.331 165.865 165.337 165.859L165.343 165.853C165.352 165.844 165.341 165.853 165.35 165.844L165.397 165.799C165.397 165.799 165.4 165.794 165.403 165.791L165.471 165.726L165.48 165.715C165.483 165.712 165.484 165.711 165.488 165.707L165.495 165.703L165.499 165.699C165.507 165.691 165.498 165.698 165.507 165.689L165.546 165.652C165.568 165.63 165.53 165.665 165.554 165.642C165.567 165.629 165.551 165.647 165.565 165.633C165.57 165.628 165.569 165.63 165.575 165.623L165.58 165.617L165.616 165.582L165.62 165.576L165.626 165.572L165.648 165.552L165.658 165.539L165.665 165.535L165.669 165.529L165.675 165.523L165.682 165.519C165.693 165.507 165.68 165.519 165.692 165.506L165.697 165.5L165.703 165.496L165.739 165.461L165.743 165.455L165.769 165.431L165.773 165.424C165.786 165.412 165.773 165.428 165.786 165.414L165.824 165.377L165.831 165.369L165.875 165.326C165.891 165.311 165.872 165.328 165.888 165.312C165.9 165.301 165.891 165.312 165.903 165.3L165.909 165.291L165.944 165.259C165.955 165.247 165.944 165.256 165.956 165.244L165.965 165.238L165.971 165.23C165.977 165.224 165.98 165.224 165.986 165.218C166.003 165.201 165.982 165.22 165.999 165.203L166.029 165.175L166.035 165.166L166.044 165.16C166.081 165.123 166.02 165.182 166.058 165.144L166.097 165.107L166.103 165.099C166.109 165.093 166.114 165.091 166.12 165.084C166.132 165.073 166.122 165.083 166.135 165.07L166.15 165.054L166.199 165.007C166.212 164.994 166.2 165.003 166.214 164.99L166.299 164.908L166.307 164.898L166.35 164.857L166.358 164.847L166.403 164.804L166.412 164.794L166.422 164.785C166.443 164.765 166.417 164.789 166.439 164.767L166.495 164.714C166.517 164.692 166.49 164.716 166.514 164.693L166.571 164.638C166.578 164.632 166.584 164.624 166.59 164.617L166.671 164.54C166.697 164.514 166.662 164.547 166.69 164.519C166.705 164.505 166.696 164.514 166.712 164.499L166.72 164.488L166.731 164.48C166.746 164.466 166.737 164.475 166.752 164.46C166.755 164.456 166.76 164.451 166.763 164.447C166.766 164.444 166.773 164.437 166.773 164.437C167.199 164.017 167.788 163.787 168.323 163.648C168.882 163.503 169.526 163.42 170.193 163.376C171.529 163.288 173.102 163.348 174.576 163.46C176.058 163.573 177.479 163.742 178.526 163.882C178.76 163.913 178.977 163.945 179.171 163.972C178.984 163.696 178.936 163.339 179.073 163.009C185.334 147.975 188.001 140.494 189.104 136.788C189.448 135.629 189.628 134.861 189.723 134.364C177.782 134.366 164.677 134.369 154.534 134.37ZM164.948 177.089C165.216 177.607 164.998 178.237 164.46 178.496C163.922 178.755 163.268 178.545 162.998 178.027C162.876 177.791 162.791 177.723 162.775 177.712C162.766 177.711 162.748 177.71 162.722 177.712C162.611 177.721 162.415 177.767 162.09 177.902C161.819 178.015 161.503 178.172 161.124 178.369C161.165 178.393 161.214 178.421 161.273 178.457C161.296 178.472 161.34 178.501 161.388 178.537C161.402 178.548 161.574 178.672 161.69 178.89C161.746 178.995 161.835 179.22 161.798 179.502C162.213 179.854 162.764 180.281 163.347 180.694C163.672 180.925 163.996 181.141 164.299 181.334L164.241 181.082L166.199 181.905C168.51 182.876 170.482 183.689 172.172 184.073C173.719 184.423 174.824 184.36 175.662 183.9L177.313 180.637C177.375 180.515 177.46 180.41 177.558 180.324C177.079 180.271 176.516 180.185 175.94 180.082C174.997 179.912 173.917 179.688 172.904 179.465C171.89 179.242 170.932 179.02 170.229 178.853C169.878 178.769 169.589 178.699 169.389 178.65C169.288 178.626 169.208 178.608 169.155 178.595C169.129 178.588 169.109 178.582 169.095 178.578C169.088 178.577 169.078 178.574 169.078 178.574H169.074L169.031 178.564L168.991 178.55L168.972 178.544C168.96 178.54 168.943 178.534 168.923 178.527C168.88 178.513 168.819 178.492 168.742 178.466C168.586 178.412 168.363 178.333 168.091 178.234C167.547 178.036 166.802 177.752 165.997 177.411C165.62 177.251 165.228 177.077 164.835 176.892C164.873 176.957 164.913 177.022 164.948 177.089ZM170.342 165.47C169.751 165.509 169.261 165.578 168.891 165.674C168.5 165.776 168.357 165.879 168.333 165.902C168.327 165.908 168.32 165.916 168.314 165.922L168.271 165.963C168.252 165.982 168.271 165.965 168.252 165.984C168.246 165.99 168.238 165.996 168.231 166.002C168.228 166.005 168.224 166.009 168.22 166.012L168.212 166.023L168.171 166.062C168.165 166.068 168.159 166.076 168.152 166.082L168.114 166.119C168.079 166.154 168.129 166.106 168.095 166.139L168.084 166.148L168.076 166.158L168.065 166.166L168.057 166.176L168.01 166.221L168.001 166.232L167.929 166.301C167.929 166.301 167.915 166.316 167.912 166.32L167.825 166.404C167.795 166.433 167.837 166.393 167.81 166.42L167.759 166.469C167.752 166.476 167.75 166.479 167.744 166.486L167.68 166.547C167.66 166.567 167.684 166.545 167.665 166.564L167.65 166.578C167.63 166.597 167.654 166.576 167.635 166.594C167.623 166.607 167.632 166.597 167.62 166.609L167.612 166.615L167.605 166.623L167.539 166.686L167.533 166.695L167.512 166.715L167.503 166.721C167.491 166.734 167.502 166.724 167.491 166.736L167.484 166.742L167.478 166.75C167.465 166.762 167.475 166.751 167.463 166.762C167.452 166.773 167.46 166.767 167.45 166.777L167.378 166.846L167.373 166.852L167.299 166.924C167.293 166.93 167.294 166.931 167.288 166.936L167.282 166.942L167.276 166.947C167.264 166.958 167.275 166.949 167.265 166.959L167.242 166.981L167.237 166.988L167.231 166.992L167.22 167.004L167.214 167.008L167.21 167.014L167.135 167.086L167.131 167.092L167.127 167.096L167.12 167.1L167.116 167.106L167.112 167.11L167.105 167.115L167.101 167.121L167.086 167.135C167.079 167.143 167.08 167.139 167.08 167.139C167.266 167.279 167.513 167.448 167.827 167.637C168.905 168.288 170.507 169.053 172.225 169.739C173.943 170.424 175.724 171.007 177.158 171.31C177.879 171.462 178.466 171.534 178.892 171.529C179.172 171.526 179.298 171.49 179.337 171.478C180.115 170.696 180.899 169.525 181.284 168.385C181.688 167.185 181.558 166.363 181.092 165.902C181.048 165.859 181.012 165.811 180.977 165.763C180.744 166.088 180.33 166.274 179.898 166.203H179.894C179.89 166.202 179.882 166.2 179.873 166.199C179.854 166.196 179.824 166.191 179.786 166.185C179.709 166.172 179.595 166.155 179.449 166.133C179.158 166.089 178.738 166.027 178.228 165.959C177.206 165.823 175.83 165.66 174.404 165.552C172.971 165.443 171.522 165.392 170.342 165.47ZM101.361 147.774C101.439 147.831 101.52 147.894 101.606 147.956C102.778 148.805 104.575 150.038 106.824 151.582C106.965 151.526 107.109 151.472 107.254 151.421L100.955 146.752H100.327L101.361 147.774ZM136.074 133.559C136.093 133.64 136.146 133.828 136.312 134.01C136.483 134.197 136.724 134.315 136.989 134.348C136.861 134.292 136.285 133.941 136.048 133.342C136.048 133.395 136.054 133.472 136.074 133.559ZM167.014 125.053C166.517 125.037 165.821 125.224 164.818 125.832C163.823 126.436 162.624 127.393 161.149 128.761L160.834 129.054H155.706L154.214 132.004C154.163 132.107 154.09 132.195 154.012 132.273C154.185 132.273 154.36 132.273 154.534 132.273C160.79 132.272 168.173 132.27 175.715 132.269C175.529 132.08 175.415 131.826 175.415 131.545V129.054H170.448L170.15 128.46C169.528 127.211 168.971 126.341 168.429 125.787C167.91 125.257 167.462 125.069 167.014 125.053ZM41.4074 96.7977C33.4655 100.664 26.008 105.24 17.1131 112.107C17.8525 112.582 19.0189 113.309 20.8029 114.393C20.8977 114.337 21.0065 114.275 21.1242 114.204C21.7355 113.838 22.6286 113.295 23.7096 112.627C25.8725 111.29 28.7845 109.459 31.702 107.565C34.6225 105.669 37.5386 103.717 39.7179 102.134C40.8104 101.341 41.6977 100.654 42.3033 100.122C42.6085 99.8547 42.8164 99.6468 42.9395 99.5018L42.9459 99.4915C42.8859 98.9623 42.6038 98.3704 42.2395 97.8302C42.0449 97.5417 41.8481 97.2991 41.7011 97.1296C41.6284 97.0457 41.5684 96.9811 41.5287 96.939C41.509 96.9181 41.495 96.9009 41.4862 96.8919C41.4822 96.8878 41.4777 96.8837 41.4777 96.8837C41.451 96.8572 41.4307 96.826 41.4074 96.7977ZM97.046 92.6145V95.6976C97.0529 95.701 97.06 95.7064 97.0672 95.7099C97.4429 95.8902 98.0441 96.1251 98.8632 96.4085C100.49 96.9713 102.835 97.678 105.617 98.4837C110.942 100.026 117.879 101.929 124.185 103.785C124.247 103.617 124.321 103.406 124.396 103.146C124.627 102.346 124.863 101.322 125.158 100.127C124.451 99.8453 123.308 99.453 121.843 98.9855C118.909 98.0497 114.776 96.8419 110.518 95.6833C106.259 94.5244 101.891 93.4187 98.4866 92.6801C97.9709 92.5682 97.4783 92.466 97.0141 92.3728C97.033 92.4501 97.0459 92.5317 97.046 92.6145Z" fill="black"/>
<path fill-rule="evenodd" clip-rule="evenodd" d="M94.0052 40.2574C94.6004 40.1726 95.1555 40.5673 95.2436 41.1403C97.0769 53.0708 97.4402 61.8179 95.7479 68.2653C94.0916 74.5746 90.4713 78.6413 84.5743 81.3413C84.6744 82.4942 84.7754 83.5482 84.8509 84.5493C85.164 84.4425 85.5237 84.4726 85.8212 84.6641C89.2394 86.8677 90.8255 88.1839 91.5198 90.2034C91.5817 90.1268 91.6533 90.0541 91.739 89.9944L91.939 89.8776C92.14 89.7823 92.3375 89.7437 92.4667 89.724C92.6652 89.6939 92.8777 89.685 93.0838 89.6871C93.4995 89.6915 94.0119 89.7393 94.5818 89.8162C95.729 89.9709 97.24 90.2592 98.9653 90.6336C102.423 91.3838 106.832 92.5016 111.109 93.6654C115.388 94.8295 119.554 96.0457 122.528 96.9943C124.009 97.4667 125.219 97.8803 126.003 98.1928C126.37 98.3392 126.728 98.4958 126.969 98.6516C127.034 98.6937 127.129 98.7591 127.22 98.8483C127.284 98.9116 127.489 99.1241 127.547 99.4649C127.581 99.6629 127.559 99.8873 127.454 100.102C127.428 100.154 127.397 100.202 127.367 100.245C127.044 101.533 126.757 102.796 126.494 103.707C126.352 104.2 126.195 104.674 126.009 105.039C125.917 105.219 125.786 105.433 125.603 105.617C125.417 105.802 125.082 106.047 124.605 106.051H124.436L124.275 106.004C117.766 104.076 110.589 102.115 104.989 100.493C102.207 99.6874 99.8133 98.9646 98.127 98.3812C97.2905 98.0919 96.5898 97.824 96.0948 97.5864C95.8561 97.4717 95.6053 97.3374 95.4053 97.1808C95.3078 97.1042 95.1672 96.979 95.0542 96.8038C94.9607 96.6585 94.8512 96.4168 94.867 96.1196V92.6145C94.8672 92.3913 94.9391 92.1822 95.0628 92.0122C94.7829 91.9665 94.5211 91.926 94.2797 91.8934C93.7474 91.8216 93.3403 91.7878 93.0604 91.7849C92.9528 91.7838 92.8801 91.7888 92.837 91.793C92.5573 91.9191 92.2405 91.9214 91.9645 91.8135C92.134 92.7123 92.248 93.8868 92.3795 95.6321C92.5913 98.4444 92.861 102.839 93.4604 110.228L93.6243 112.246L91.8177 111.211C89.7103 110.004 88.0201 108.743 86.6405 107.792C85.2295 106.82 84.2094 106.228 83.2677 106.043C83.096 106.322 82.8787 106.707 82.6145 107.229C82.3512 107.75 81.6999 107.968 81.159 107.714C80.6185 107.461 80.3935 106.832 80.6568 106.311C81.1136 105.408 81.4827 104.79 81.791 104.384C81.9438 104.182 82.1109 103.992 82.2974 103.845C82.4676 103.71 82.7798 103.511 83.2018 103.511C83.6973 103.511 84.0352 103.778 84.2104 104.009C84.2425 104.051 84.2708 104.096 84.2955 104.138C85.5355 104.514 86.7191 105.268 87.9087 106.088C88.8955 106.768 89.9355 107.52 91.124 108.294C90.6388 102.144 90.3932 98.2864 90.2047 95.7836C89.9912 92.9484 89.8469 91.9408 89.5642 91.2113L89.5472 91.1641L89.5323 91.117C89.1541 89.7692 88.3246 88.8313 84.953 86.6327C84.9747 88.105 84.8672 89.5318 84.487 91.0863L84.4764 91.1293L84.4615 91.1703C80.6951 102.253 79.8675 105.767 79.1332 110.468C79.0873 110.76 78.9199 111.005 78.6885 111.164C78.7614 111.253 78.8364 111.341 78.9098 111.431C79.2826 111.884 79.2043 112.544 78.7332 112.903C78.702 112.927 78.666 112.943 78.6331 112.963C78.8638 113.102 79.0428 113.322 79.1141 113.596C81.8658 124.213 83.4334 136.115 86.3021 170.396C86.309 170.479 86.3017 170.56 86.2894 170.638C87.6329 170.358 88.6644 170.131 89.3365 169.948C89.3621 169.941 89.3871 169.93 89.411 169.923C89.4659 169.624 89.5876 169.319 89.7174 169.048C90.0164 168.426 90.5188 167.637 91.1346 166.77C92.378 165.022 94.2027 162.789 96.1522 160.6C98.1022 158.411 100.204 156.236 102.01 154.61C102.91 153.8 103.762 153.104 104.498 152.609C104.51 152.601 104.522 152.592 104.534 152.584C102.762 151.366 101.307 150.362 100.297 149.632C99.666 149.175 99.1629 148.792 98.8653 148.52C98.7885 148.45 98.7049 148.37 98.6313 148.284C98.5842 148.23 98.4326 148.054 98.3589 147.805C98.353 147.785 98.3476 147.761 98.3419 147.735C98.1955 147.552 98.0179 147.311 97.8844 147.047C97.7577 146.796 97.4769 146.162 97.8014 145.521C98.177 144.779 98.9989 144.654 99.5356 144.654H101.325V145.703L101.991 144.871L109.15 150.181C109.363 150.339 109.493 150.561 109.545 150.796C113.488 150.018 118.135 150.51 123.083 151.769C123.888 151.974 124.603 152.154 125.232 152.314C124.368 144.972 123.737 140.214 123.207 137.113C122.934 135.522 122.692 134.389 122.466 133.58C122.236 132.759 122.04 132.337 121.891 132.117C121.564 131.631 121.708 130.982 122.213 130.667C122.717 130.352 123.392 130.489 123.719 130.974C124.052 131.468 124.318 132.14 124.568 133.035C124.822 133.942 125.079 135.152 125.356 136.771C125.91 140.012 126.569 144.989 127.469 152.664C127.478 152.741 127.475 152.818 127.467 152.891C127.723 152.959 127.949 153.021 128.145 153.076C129.537 149.671 130.838 146.494 131.965 143.714C133.276 140.48 134.355 137.789 135.082 135.911C135.447 134.97 135.72 134.243 135.889 133.756C135.96 133.552 136.003 133.404 136.031 133.307C136.029 133.3 136.025 133.292 136.023 133.285C136.282 132.639 136.952 132.282 137.008 132.273C137.025 132.271 137.052 132.269 137.061 132.269C137.082 132.268 137.101 132.267 137.106 132.266C137.145 132.266 137.185 132.273 137.223 132.277L137.215 132.273C137.198 132.271 137.175 132.269 137.166 132.269H137.344C137.529 132.269 137.827 132.27 138.225 132.271C139.023 132.271 140.231 132.272 141.775 132.273C144.446 132.273 148.128 132.273 152.455 132.273C152.145 131.965 152.048 131.494 152.255 131.087L154.342 126.957H159.966C161.347 125.697 162.561 124.722 163.656 124.058C164.828 123.347 165.967 122.92 167.088 122.958C168.258 122.997 169.216 123.533 170.014 124.349C170.668 125.017 171.244 125.91 171.802 126.957H177.594V131.545C177.594 131.826 177.476 132.08 177.29 132.269C181.838 132.268 186.42 132.267 190.823 132.266V133.197C190.824 132.267 190.833 132.266 190.842 132.266C190.842 132.266 190.856 132.266 190.861 132.266C190.874 132.267 190.887 132.268 190.9 132.269C190.926 132.27 190.955 132.275 190.983 132.279C191.039 132.287 191.098 132.298 191.157 132.316C191.279 132.353 191.394 132.412 191.498 132.488C191.705 132.64 191.823 132.83 191.887 132.983C192.002 133.26 192.01 133.567 191.993 133.846C191.958 134.439 191.762 135.473 191.2 137.365C190.065 141.18 187.361 148.743 181.094 163.79C181.006 164.002 180.85 164.168 180.664 164.281C180.789 164.357 180.894 164.458 180.977 164.572C181.016 164.518 181.063 164.466 181.113 164.419C181.544 164.015 182.234 164.023 182.654 164.437C183.977 165.745 183.846 167.578 183.356 169.032C182.852 170.527 181.863 171.992 180.864 172.98C180.805 173.038 180.738 173.089 180.673 173.137C180.973 173.324 181.173 173.649 181.173 174.018V174.09C181.172 174.133 181.171 174.194 181.169 174.27C181.165 174.424 181.158 174.644 181.143 174.905C181.114 175.424 181.055 176.128 180.935 176.841C180.817 177.537 180.628 178.321 180.307 178.957C180.076 179.414 179.651 180.017 178.954 180.262C179.358 180.559 179.503 181.1 179.273 181.557L177.483 185.095L177.358 185.341L177.126 185.496C175.516 186.575 173.597 186.549 171.672 186.113C169.943 185.721 168.017 184.949 165.999 184.105C165.814 184.161 165.646 184.17 165.539 184.167C165.303 184.16 165.064 184.095 164.848 184.017C165.165 184.432 165.128 185.018 164.735 185.388C164.304 185.792 163.612 185.782 163.192 185.367C163.154 185.329 163.114 185.296 163.079 185.263L162.928 185.402C162.64 185.662 162.443 185.85 162.309 186.017C162.183 186.174 162.164 186.254 162.16 186.281C162.157 186.303 162.12 186.61 162.964 187.444C163.629 188.101 164.708 188.488 165.758 188.696C166.263 188.796 166.722 188.847 167.052 188.872C167.216 188.885 167.348 188.89 167.435 188.893C167.478 188.894 167.511 188.897 167.531 188.897H167.599C168.127 188.918 168.602 188.931 169.029 188.944C169.252 188.879 169.496 188.881 169.729 188.967C170.268 188.979 170.717 188.982 171.095 188.975C171.902 188.959 172.29 188.898 172.506 188.827C172.66 188.776 172.755 188.716 172.936 188.526C173.046 188.41 173.152 188.285 173.325 188.09C173.489 187.905 173.687 187.688 173.934 187.444C174.354 187.03 175.044 187.02 175.474 187.424C175.905 187.828 175.912 188.492 175.494 188.907C175.294 189.105 175.131 189.284 174.983 189.45C174.845 189.606 174.687 189.791 174.542 189.944C174.212 190.291 173.824 190.608 173.212 190.81C172.662 190.992 171.993 191.056 171.14 191.072C170.814 191.079 170.445 191.075 170.029 191.068C169.885 191.393 169.697 191.815 169.474 192.304C168.939 193.472 168.205 195.033 167.414 196.597C166.626 198.155 165.768 199.746 164.982 200.955C164.592 201.554 164.194 202.098 163.813 202.503C163.624 202.705 163.409 202.904 163.175 203.059C163.01 203.168 162.774 203.295 162.488 203.352L162.184 203.382H110.275C110.013 203.382 109.747 203.296 109.533 203.12C109.338 202.961 109.242 202.775 109.194 202.653C109.106 202.429 109.105 202.216 109.107 202.112C109.113 201.874 109.165 201.595 109.226 201.33C109.354 200.774 109.591 199.994 109.907 199.046C110.545 197.135 111.549 194.421 112.795 191.183C114.1 187.79 115.677 183.805 117.387 179.541C116.887 179.274 116.469 179.054 116.131 178.877C114.515 181.628 112.747 183.634 110.32 185.205C107.685 186.911 104.352 188.06 99.808 189.192C99.2259 189.336 98.633 188.998 98.4823 188.438C98.332 187.877 98.681 187.305 99.2633 187.16C103.75 186.042 106.785 184.964 109.103 183.464C111.26 182.068 112.856 180.257 114.401 177.554C114.377 177.39 114.387 177.178 114.499 176.952C114.761 176.426 115.292 176.362 115.408 176.354C115.569 176.342 115.698 176.369 115.742 176.378C115.911 176.414 116.079 176.49 116.15 176.522C116.26 176.571 116.394 176.634 116.546 176.71C116.917 176.895 117.46 177.182 118.18 177.566C118.808 176.007 119.45 174.417 120.1 172.812C119.952 172.588 119.894 172.315 119.949 172.048L119.94 172.045C119.275 171.83 117.946 171.667 115.578 171.525C114.977 171.489 114.521 170.991 114.559 170.413C114.597 169.835 115.114 169.395 115.714 169.431C118.018 169.57 119.648 169.738 120.636 170.058C120.795 170.11 120.967 170.174 121.136 170.257C121.517 169.319 121.9 168.378 122.283 167.438C122.357 167.256 122.432 167.072 122.506 166.889C121.259 166.368 119.415 166.16 115.663 166.219C115.062 166.229 114.566 165.766 114.557 165.187C114.547 164.608 115.026 164.131 115.627 164.122C119.395 164.062 121.609 164.248 123.302 164.937C123.914 163.437 124.525 161.944 125.128 160.469C122.29 159.305 119.761 158.946 113.893 159.14C113.292 159.159 112.788 158.706 112.767 158.128C112.747 157.549 113.217 157.062 113.818 157.042C119.839 156.843 122.704 157.208 125.924 158.517C126.387 157.385 126.843 156.264 127.292 155.165C127.252 155.111 127.217 155.052 127.188 154.991C126.27 154.745 124.787 154.372 122.528 153.797C116.254 152.2 110.971 152.007 107.16 153.731L106.913 153.844L106.639 153.83C106.722 153.834 106.689 153.81 106.483 153.901C106.299 153.983 106.052 154.123 105.745 154.329C105.13 154.743 104.364 155.362 103.498 156.142C101.77 157.698 99.7245 159.812 97.8056 161.967C95.8866 164.121 94.1163 166.292 92.9327 167.957C92.3365 168.795 91.9175 169.468 91.6964 169.927C91.6681 169.986 91.6455 170.041 91.6262 170.087C91.7904 170.432 91.7405 170.788 91.6028 171.046C91.4861 171.263 91.3205 171.393 91.241 171.451C91.1477 171.519 91.052 171.571 90.9793 171.607C90.7118 171.738 90.3294 171.857 89.9302 171.966C89.0889 172.195 87.7987 172.48 86.1787 172.812C82.9306 173.477 78.203 174.366 72.7814 175.436C61.9022 177.583 48.1336 180.476 37.2218 183.866C36.6499 184.043 36.0365 183.74 35.8515 183.19C35.6671 182.639 35.9813 182.046 36.5537 181.868C47.5918 178.439 61.4655 175.527 72.343 173.381C77.0474 172.453 81.1758 171.663 84.3019 171.04C84.2098 170.9 84.1465 170.74 84.1317 170.564C81.2608 136.257 79.7024 124.526 77.001 114.104C76.8846 113.653 77.0911 113.202 77.4777 112.967C77.3755 112.905 77.2802 112.829 77.2011 112.733C75.3089 110.435 73.5817 108.398 71.96 106.565C71.9697 106.612 71.9803 106.66 71.9834 106.709C72.0192 107.286 71.562 107.784 70.962 107.819C69.862 107.884 68.6511 108.511 67.0041 109.972C65.3666 111.425 63.4733 113.539 60.98 116.308L59.9182 117.486L59.184 116.095C57.3885 112.688 56.1299 110.612 52.1343 105.645C51.7662 105.188 51.8535 104.527 52.3279 104.173C52.8035 103.818 53.4893 103.901 53.8579 104.359C57.3755 108.731 58.8495 110.96 60.3863 113.764C62.3678 111.567 64.035 109.754 65.5273 108.429C67.2668 106.886 68.952 105.836 70.8301 105.725C70.9787 105.717 71.1233 105.736 71.2557 105.781C64.7892 98.5769 59.915 94.6098 52.596 90.0743C52.3848 89.9983 52.2262 89.8739 52.1364 89.7752C51.9963 89.6209 51.9345 89.4627 51.9129 89.4044C51.8847 89.328 51.8662 89.2575 51.8555 89.2078C51.8168 89.0277 51.7987 88.7959 51.7874 88.5768C51.7636 88.1157 51.7591 87.4213 51.764 86.5344C50.6727 87.8 49.4204 89.3844 48.453 90.863C47.9269 91.6671 47.5012 92.4145 47.2273 93.0427C47 93.5645 46.9234 93.9054 46.9102 94.0915C48.1345 96.3485 48.8137 97.4895 49.2509 98.1006C49.4698 98.4063 49.6023 98.5407 49.6786 98.6066C49.7446 98.6633 49.793 98.694 49.9468 98.7766C50.4719 99.0586 50.6603 99.6967 50.3681 100.202C50.075 100.708 49.4104 100.89 48.8849 100.608C48.7213 100.52 48.4862 100.394 48.2253 100.17C47.9736 99.9526 47.7303 99.6723 47.4571 99.2908C46.9294 98.5534 46.1809 97.2872 44.9334 94.9847C44.8293 95.1276 44.6917 95.2504 44.5163 95.3309C44.1489 95.4992 43.7829 95.6705 43.4183 95.841C43.6005 96.0544 43.8349 96.3425 44.0673 96.6871C44.5508 97.404 45.1373 98.5007 45.1377 99.6923C45.1377 100.001 45.0188 100.252 44.9398 100.393C44.8508 100.551 44.737 100.7 44.627 100.829C44.4056 101.09 44.1088 101.377 43.7716 101.673C43.0911 102.27 42.1402 103.002 41.0308 103.808C38.8047 105.425 35.8496 107.402 32.9192 109.304C29.9858 111.209 27.0604 113.049 24.8863 114.393C23.8007 115.064 22.8986 115.613 22.2754 115.987C21.9655 116.172 21.7179 116.319 21.5498 116.415C21.4704 116.46 21.3912 116.504 21.3285 116.536C21.3186 116.541 21.2316 116.585 21.1306 116.618C21.1034 116.626 21.0245 116.652 20.922 116.665C20.8673 116.67 20.7299 116.673 20.6475 116.667C20.5527 116.65 20.36 116.579 20.2028 116.499L20.1985 116.507C17.7048 114.995 16.2472 114.094 15.4597 113.571C15.0942 113.329 14.787 113.113 14.6043 112.932C14.555 112.883 14.4682 112.791 14.3936 112.668C14.3414 112.581 14.146 112.237 14.2851 111.797C14.4083 111.41 14.695 111.218 14.9 111.129C25.4569 102.892 34.0155 97.8165 43.58 93.436C43.9915 93.248 44.4631 93.3318 44.7802 93.6101C44.8602 93.1403 45.0273 92.6654 45.2164 92.2314C45.5548 91.4551 46.0497 90.6002 46.6081 89.7465C47.7283 88.0343 49.1781 86.218 50.3745 84.8566C50.7302 84.4525 51.3351 84.376 51.7874 84.6518C51.8126 82.9862 51.8539 80.892 51.9066 78.4364C51.919 77.8573 52.4179 77.3961 53.0195 77.4081C53.621 77.4201 54.098 77.9003 54.0855 78.4794C54.0112 81.9495 53.9538 84.6738 53.943 86.4914C53.9377 87.3707 53.9429 88.0173 53.9621 88.4273C62.8997 93.9857 68.3222 98.7897 77.1223 109.28C77.8573 104.826 78.835 100.985 82.3719 90.5742C83.0273 87.8704 82.7733 85.6902 82.4634 82.2181C81.7294 82.4922 80.9681 82.7545 80.1759 82.9965C79.6028 83.1714 78.99 82.8657 78.8076 82.3144C78.6257 81.7624 78.943 81.1725 79.5162 80.9971C80.7609 80.617 81.9161 80.2013 82.9847 79.7455C88.7245 77.2971 92.0859 73.6518 93.6349 67.7511C95.2132 61.738 94.9171 53.3502 93.0881 41.4476C93 40.8749 93.4105 40.3426 94.0052 40.2574ZM154.534 134.37C149.306 134.371 144.862 134.371 141.773 134.37C140.229 134.37 139.022 134.369 138.223 134.368C138.135 134.368 138.05 134.366 137.972 134.366C137.966 134.384 137.961 134.404 137.955 134.422C137.774 134.944 137.489 135.7 137.123 136.644C136.389 138.539 135.305 141.241 133.993 144.476C132.799 147.419 131.413 150.813 129.926 154.448C129.926 154.529 129.917 154.616 129.895 154.704C129.841 154.911 129.733 155.061 129.633 155.167C128.21 158.647 126.703 162.334 125.188 166.051C125.225 166.081 125.263 166.109 125.3 166.139C125.759 166.514 125.814 167.177 125.426 167.619C125.166 167.912 124.775 168.029 124.407 167.967C124.375 168.045 124.343 168.124 124.311 168.202C122.87 171.742 121.437 175.282 120.074 178.671C120.344 178.994 120.399 179.456 120.176 179.84C120.007 180.132 119.711 180.308 119.393 180.356C117.696 184.591 116.132 188.546 114.837 191.912C113.594 195.144 112.604 197.824 111.982 199.689C111.767 200.331 111.607 200.866 111.49 201.285H161.998C162.045 201.247 162.112 201.188 162.196 201.098C162.451 200.827 162.77 200.401 163.135 199.84C163.858 198.727 164.678 197.218 165.456 195.68C166.231 194.148 166.952 192.612 167.48 191.458C167.553 191.297 167.621 191.141 167.686 190.997C167.642 190.995 167.597 190.994 167.552 190.993L167.535 190.995C167.525 190.995 167.511 190.993 167.495 190.993C167.462 190.992 167.416 190.992 167.359 190.991C167.243 190.987 167.079 190.979 166.88 190.964C166.483 190.934 165.933 190.872 165.32 190.751C164.134 190.516 162.528 190.02 161.403 188.907C160.467 187.982 159.845 187.033 160.002 185.982C160.079 185.474 160.323 185.061 160.583 184.736C160.754 184.523 160.955 184.322 161.154 184.134C161.201 183.923 161.317 183.547 161.626 183.241C161.814 183.055 162.075 182.896 162.401 182.831C162.489 182.814 162.579 182.805 162.664 182.802C162.459 182.665 162.253 182.524 162.054 182.382C161.258 181.818 160.473 181.201 159.96 180.725C159.738 180.52 159.45 180.237 159.294 179.955C159.25 179.876 159.175 179.724 159.147 179.529L159.145 179.525C158.914 179.276 158.675 178.912 158.653 178.433C158.616 177.62 159.198 177.044 159.809 176.671L159.839 176.655L159.87 176.638C160.349 176.386 160.805 176.153 161.224 175.979C161.63 175.809 162.071 175.664 162.52 175.624C162.103 175.349 161.716 175.059 161.403 174.75C160.916 174.268 160.553 173.797 160.392 173.32C160.306 173.066 160.268 172.778 160.328 172.48C160.39 172.174 160.543 171.925 160.732 171.738C161.075 171.4 161.506 171.29 161.713 171.249C161.777 171.236 161.838 171.229 161.892 171.222C164.131 170.227 166.193 170.497 169.58 171.224C170.166 171.35 170.537 171.911 170.408 172.476C170.277 173.041 169.695 173.398 169.108 173.273C165.718 172.546 164.313 172.455 162.809 173.123C162.856 173.173 162.906 173.229 162.964 173.287C163.305 173.624 163.871 174.009 164.597 174.407C165.307 174.798 166.11 175.168 166.873 175.491C167.634 175.814 168.344 176.083 168.863 176.272C169.121 176.366 169.331 176.441 169.476 176.491C169.548 176.516 169.605 176.534 169.642 176.546C169.649 176.549 169.657 176.55 169.663 176.552C169.672 176.554 169.682 176.558 169.693 176.56C169.745 176.573 169.822 176.592 169.921 176.616C170.118 176.664 170.403 176.734 170.75 176.817C171.446 176.981 172.391 177.199 173.389 177.419C174.389 177.639 175.438 177.857 176.34 178.019C177.193 178.172 177.84 178.259 178.198 178.273C178.23 178.235 178.285 178.165 178.349 178.038C178.53 177.678 178.677 177.135 178.783 176.505C178.887 175.892 178.94 175.267 178.966 174.791C178.98 174.555 178.986 174.357 178.99 174.221C178.991 174.154 178.994 174.1 178.994 174.065V174.018C178.994 173.877 179.022 173.74 179.075 173.617C179.022 173.619 178.97 173.626 178.92 173.627C178.258 173.635 177.487 173.527 176.689 173.359C175.086 173.02 173.177 172.389 171.391 171.677C169.605 170.964 167.885 170.147 166.669 169.413C166.075 169.054 165.532 168.676 165.169 168.303C164.995 168.124 164.779 167.862 164.671 167.532C164.54 167.134 164.575 166.621 164.973 166.217L165.007 166.185L165.009 166.18L165.018 166.172L165.022 166.17L165.024 166.168L165.026 166.164L165.033 166.16L165.048 166.144L165.052 166.141L165.054 166.137L165.08 166.113L165.084 166.109L165.086 166.107L165.09 166.103C165.09 166.103 165.089 166.102 165.092 166.098L165.099 166.092L165.103 166.088L165.107 166.086C165.114 166.079 165.102 166.09 165.109 166.082L165.118 166.074L165.122 166.072L165.163 166.031C165.166 166.027 165.162 166.03 165.167 166.025L165.171 166.021L165.177 166.017L165.18 166.014L165.182 166.01L165.186 166.006L165.192 166.002L165.194 166L165.197 165.996L165.237 165.957L165.239 165.953C165.247 165.946 165.237 165.957 165.246 165.949L165.248 165.945L165.252 165.943L165.254 165.939L165.258 165.937L165.263 165.93L165.316 165.879L165.318 165.875L165.322 165.873C165.329 165.866 165.32 165.873 165.329 165.865C165.334 165.86 165.331 165.865 165.337 165.859L165.343 165.853C165.352 165.844 165.341 165.853 165.35 165.844L165.397 165.799C165.397 165.799 165.4 165.794 165.403 165.791L165.471 165.726L165.48 165.715C165.483 165.712 165.484 165.711 165.488 165.707L165.495 165.703L165.499 165.699C165.507 165.691 165.498 165.698 165.507 165.689L165.546 165.652C165.568 165.63 165.53 165.665 165.554 165.642C165.567 165.629 165.551 165.647 165.565 165.633C165.57 165.628 165.569 165.63 165.575 165.623L165.58 165.617L165.616 165.582L165.62 165.576L165.626 165.572L165.648 165.552L165.658 165.539L165.665 165.535L165.669 165.529L165.675 165.523L165.682 165.519C165.693 165.507 165.68 165.519 165.692 165.506L165.697 165.5L165.703 165.496L165.739 165.461L165.743 165.455L165.769 165.431L165.773 165.424C165.786 165.412 165.773 165.428 165.786 165.414L165.824 165.377L165.831 165.369L165.875 165.326C165.891 165.311 165.872 165.328 165.888 165.312C165.9 165.301 165.891 165.312 165.903 165.3L165.909 165.291L165.944 165.259C165.955 165.247 165.944 165.256 165.956 165.244L165.965 165.238L165.971 165.23C165.977 165.224 165.98 165.224 165.986 165.218C166.003 165.201 165.982 165.22 165.999 165.203L166.029 165.175L166.035 165.166L166.044 165.16C166.081 165.123 166.02 165.182 166.058 165.144L166.097 165.107L166.103 165.099C166.109 165.093 166.114 165.091 166.12 165.084C166.132 165.073 166.122 165.083 166.135 165.07L166.15 165.054L166.199 165.007C166.212 164.994 166.2 165.003 166.214 164.99L166.299 164.908L166.307 164.898L166.35 164.857L166.358 164.847L166.403 164.804L166.412 164.794L166.422 164.785C166.443 164.765 166.417 164.789 166.439 164.767L166.495 164.714C166.517 164.692 166.49 164.716 166.514 164.693L166.571 164.638C166.578 164.632 166.584 164.624 166.59 164.617L166.671 164.54C166.697 164.514 166.662 164.547 166.69 164.519C166.705 164.505 166.696 164.514 166.712 164.499L166.72 164.488L166.731 164.48C166.746 164.466 166.737 164.475 166.752 164.46C166.755 164.456 166.76 164.451 166.763 164.447C166.766 164.444 166.773 164.437 166.773 164.437C167.199 164.017 167.788 163.787 168.323 163.648C168.882 163.503 169.526 163.42 170.193 163.376C171.529 163.288 173.102 163.348 174.576 163.46C176.058 163.573 177.479 163.742 178.526 163.882C178.76 163.913 178.977 163.945 179.171 163.972C178.984 163.696 178.936 163.339 179.073 163.009C185.334 147.975 188.001 140.494 189.104 136.788C189.448 135.629 189.628 134.861 189.723 134.364C177.782 134.366 164.677 134.369 154.534 134.37ZM164.948 177.089C165.216 177.607 164.998 178.237 164.46 178.496C163.922 178.755 163.268 178.545 162.998 178.027C162.876 177.791 162.791 177.723 162.775 177.712C162.766 177.711 162.748 177.71 162.722 177.712C162.611 177.721 162.415 177.767 162.09 177.902C161.819 178.015 161.503 178.172 161.124 178.369C161.165 178.393 161.214 178.421 161.273 178.457C161.296 178.472 161.34 178.501 161.388 178.537C161.402 178.548 161.574 178.672 161.69 178.89C161.746 178.995 161.835 179.22 161.798 179.502C162.213 179.854 162.764 180.281 163.347 180.694C163.672 180.925 163.996 181.141 164.299 181.334L164.241 181.082L166.199 181.905C168.51 182.876 170.482 183.689 172.172 184.073C173.719 184.423 174.824 184.36 175.662 183.9L177.313 180.637C177.375 180.515 177.46 180.41 177.558 180.324C177.079 180.271 176.516 180.185 175.94 180.082C174.997 179.912 173.917 179.688 172.904 179.465C171.89 179.242 170.932 179.02 170.229 178.853C169.878 178.769 169.589 178.699 169.389 178.65C169.288 178.626 169.208 178.608 169.155 178.595C169.129 178.588 169.109 178.582 169.095 178.578C169.088 178.577 169.078 178.574 169.078 178.574H169.074L169.031 178.564L168.991 178.55L168.972 178.544C168.96 178.54 168.943 178.534 168.923 178.527C168.88 178.513 168.819 178.492 168.742 178.466C168.586 178.412 168.363 178.333 168.091 178.234C167.547 178.036 166.802 177.752 165.997 177.411C165.62 177.251 165.228 177.077 164.835 176.892C164.873 176.957 164.913 177.022 164.948 177.089ZM170.342 165.47C169.751 165.509 169.261 165.578 168.891 165.674C168.5 165.776 168.357 165.879 168.333 165.902C168.327 165.908 168.32 165.916 168.314 165.922L168.271 165.963C168.252 165.982 168.271 165.965 168.252 165.984C168.246 165.99 168.238 165.996 168.231 166.002C168.228 166.005 168.224 166.009 168.22 166.012L168.212 166.023L168.171 166.062C168.165 166.068 168.159 166.076 168.152 166.082L168.114 166.119C168.079 166.154 168.129 166.106 168.095 166.139L168.084 166.148L168.076 166.158L168.065 166.166L168.057 166.176L168.01 166.221L168.001 166.232L167.929 166.301C167.929 166.301 167.915 166.316 167.912 166.32L167.825 166.404C167.795 166.433 167.837 166.393 167.81 166.42L167.759 166.469C167.752 166.476 167.75 166.479 167.744 166.486L167.68 166.547C167.66 166.567 167.684 166.545 167.665 166.564L167.65 166.578C167.63 166.597 167.654 166.576 167.635 166.594C167.623 166.607 167.632 166.597 167.62 166.609L167.612 166.615L167.605 166.623L167.539 166.686L167.533 166.695L167.512 166.715L167.503 166.721C167.491 166.734 167.502 166.724 167.491 166.736L167.484 166.742L167.478 166.75C167.465 166.762 167.475 166.751 167.463 166.762C167.452 166.773 167.46 166.767 167.45 166.777L167.378 166.846L167.373 166.852L167.299 166.924C167.293 166.93 167.294 166.931 167.288 166.936L167.282 166.942L167.276 166.947C167.264 166.958 167.275 166.949 167.265 166.959L167.242 166.981L167.237 166.988L167.231 166.992L167.22 167.004L167.214 167.008L167.21 167.014L167.135 167.086L167.131 167.092L167.127 167.096L167.12 167.1L167.116 167.106L167.112 167.11L167.105 167.115L167.101 167.121L167.086 167.135C167.079 167.143 167.08 167.139 167.08 167.139C167.266 167.279 167.513 167.448 167.827 167.637C168.905 168.288 170.507 169.053 172.225 169.739C173.943 170.424 175.724 171.007 177.158 171.31C177.879 171.462 178.466 171.534 178.892 171.529C179.172 171.526 179.298 171.49 179.337 171.478C180.115 170.696 180.899 169.525 181.284 168.385C181.688 167.185 181.558 166.363 181.092 165.902C181.048 165.859 181.012 165.811 180.977 165.763C180.744 166.088 180.33 166.274 179.898 166.203H179.894C179.89 166.202 179.882 166.2 179.873 166.199C179.854 166.196 179.824 166.191 179.786 166.185C179.709 166.172 179.595 166.155 179.449 166.133C179.158 166.089 178.738 166.027 178.228 165.959C177.206 165.823 175.83 165.66 174.404 165.552C172.971 165.443 171.522 165.392 170.342 165.47ZM101.361 147.774C101.439 147.831 101.52 147.894 101.606 147.956C102.778 148.805 104.575 150.038 106.824 151.582C106.965 151.526 107.109 151.472 107.254 151.421L100.955 146.752H100.327L101.361 147.774ZM136.074 133.559C136.093 133.64 136.146 133.828 136.312 134.01C136.483 134.197 136.724 134.315 136.989 134.348C136.861 134.292 136.285 133.941 136.048 133.342C136.048 133.395 136.054 133.472 136.074 133.559ZM167.014 125.053C166.517 125.037 165.821 125.224 164.818 125.832C163.823 126.436 162.624 127.393 161.149 128.761L160.834 129.054H155.706L154.214 132.004C154.163 132.107 154.09 132.195 154.012 132.273C154.185 132.273 154.36 132.273 154.534 132.273C160.79 132.272 168.173 132.27 175.715 132.269C175.529 132.08 175.415 131.826 175.415 131.545V129.054H170.448L170.15 128.46C169.528 127.211 168.971 126.341 168.429 125.787C167.91 125.257 167.462 125.069 167.014 125.053ZM41.4074 96.7977C33.4655 100.664 26.008 105.24 17.1131 112.107C17.8525 112.582 19.0189 113.309 20.8029 114.393C20.8977 114.337 21.0065 114.275 21.1242 114.204C21.7355 113.838 22.6286 113.295 23.7096 112.627C25.8725 111.29 28.7845 109.459 31.702 107.565C34.6225 105.669 37.5386 103.717 39.7179 102.134C40.8104 101.341 41.6977 100.654 42.3033 100.122C42.6085 99.8547 42.8164 99.6468 42.9395 99.5018L42.9459 99.4915C42.8859 98.9623 42.6038 98.3704 42.2395 97.8302C42.0449 97.5417 41.8481 97.2991 41.7011 97.1296C41.6284 97.0457 41.5684 96.9811 41.5287 96.939C41.509 96.9181 41.495 96.9009 41.4862 96.8919C41.4822 96.8878 41.4777 96.8837 41.4777 96.8837C41.451 96.8572 41.4307 96.826 41.4074 96.7977ZM97.046 92.6145V95.6976C97.0529 95.701 97.06 95.7064 97.0672 95.7099C97.4429 95.8902 98.0441 96.1251 98.8632 96.4085C100.49 96.9713 102.835 97.678 105.617 98.4837C110.942 100.026 117.879 101.929 124.185 103.785C124.247 103.617 124.321 103.406 124.396 103.146C124.627 102.346 124.863 101.322 125.158 100.127C124.451 99.8453 123.308 99.453 121.843 98.9855C118.909 98.0497 114.776 96.8419 110.518 95.6833C106.259 94.5244 101.891 93.4187 98.4866 92.6801C97.9709 92.5682 97.4783 92.466 97.0141 92.3728C97.033 92.4501 97.0459 92.5317 97.046 92.6145Z" fill="black" fill-opacity="0.2"/>
<path d="M10.8464 118.707C11.1052 118.185 11.7548 117.963 12.2976 118.211C12.84 118.46 13.0719 119.086 12.8147 119.608C6.64262 132.119 2.89811 148.24 2.17938 174.047C2.16284 174.625 1.66104 175.082 1.0601 175.067C0.458879 175.051 -0.0157214 174.568 0.000398789 173.99C0.723678 148.02 4.49648 131.578 10.8464 118.707Z" fill="black"/>
<path d="M10.8464 118.707C11.1052 118.185 11.7548 117.963 12.2976 118.211C12.84 118.46 13.0719 119.086 12.8147 119.608C6.64262 132.119 2.89811 148.24 2.17938 174.047C2.16284 174.625 1.66104 175.082 1.0601 175.067C0.458879 175.051 -0.0157214 174.568 0.000398789 173.99C0.723678 148.02 4.49648 131.578 10.8464 118.707Z" fill="black" fill-opacity="0.2"/>
<path d="M128.388 104.242C128.824 103.844 129.514 103.858 129.929 104.277C132.011 106.381 133.69 108.051 135.708 111.074C137.71 114.074 140.034 118.392 143.488 125.807C143.734 126.336 143.489 126.957 142.941 127.194C142.392 127.431 141.746 127.194 141.5 126.666C138.058 119.274 135.785 115.073 133.874 112.209C131.978 109.368 130.427 107.824 128.35 105.725C127.935 105.306 127.952 104.642 128.388 104.242Z" fill="black"/>
<path d="M128.388 104.242C128.824 103.844 129.514 103.858 129.929 104.277C132.011 106.381 133.69 108.051 135.708 111.074C137.71 114.074 140.034 118.392 143.488 125.807C143.734 126.336 143.489 126.957 142.941 127.194C142.392 127.431 141.746 127.194 141.5 126.666C138.058 119.274 135.785 115.073 133.874 112.209C131.978 109.368 130.427 107.824 128.35 105.725C127.935 105.306 127.952 104.642 128.388 104.242Z" fill="black" fill-opacity="0.2"/>
<path fill-rule="evenodd" clip-rule="evenodd" d="M48.2721 3.41195C56.3122 -0.754191 66.4482 -1.40143 74.8455 3.12925C79.341 3.96332 82.9907 3.68214 92.0943 1.34495L92.2326 1.31013H92.3752C96.6313 1.30822 100.178 3.69246 100.814 7.78563C101.413 11.6388 99.3557 16.6189 93.6945 22.0395C94.7264 24.1032 95.4107 25.9677 95.4798 28.0971C95.5559 30.4492 94.8846 33.0038 93.3774 36.3958L91.2878 36.0537C91.073 33.0473 90.7275 31.1562 90.2047 29.7216C89.7355 28.4343 89.1022 27.4692 88.2024 26.3497C81.5633 25.521 77.2746 24.9107 74.5859 24.3728C73.2182 24.0992 72.2027 23.834 71.4876 23.5473C71.3349 23.486 71.1793 23.4152 71.0259 23.3363C67.6185 27.3089 64.3997 29.767 60.548 31.0491C56.8668 32.2743 52.7233 32.3821 47.5018 31.8993C48.4128 34.2505 48.9703 36.3215 49.019 38.4628C49.0762 40.9859 48.4258 43.507 47.0145 46.6182C47.7843 48.4723 48.2976 49.9335 48.5977 51.0697C48.9087 52.2477 49.0336 53.2083 48.8828 53.9213C48.8033 54.2962 48.6239 54.7124 48.2402 55.0132C47.8379 55.328 47.3699 55.393 46.9826 55.3532C46.2988 55.283 45.6451 54.8716 45.159 54.499L45.1313 54.4785L45.1058 54.458C43.1937 52.7936 41.8518 51.8217 40.6648 51.3319C39.5572 50.8751 38.5342 50.8177 37.1835 51.1496C35.5443 51.6459 34.4601 52.4664 33.7512 53.6509C33.0322 54.8525 32.643 56.5268 32.6107 58.8337C33.0767 60.2409 33.4463 61.2244 34.081 62.1422C34.7254 63.0738 35.6909 64.0006 37.4538 65.1679C39.4666 66.25 40.7752 66.7341 41.8479 66.7576C42.8384 66.7792 43.7993 66.4072 45.1143 65.2826C45.1667 65.238 45.226 65.1991 45.2888 65.1638C45.8082 64.8722 46.4749 65.0408 46.7783 65.5407L52.1491 74.3885C52.4524 74.8885 52.2769 75.5323 51.7576 75.8245C51.2382 76.1167 50.5696 75.9475 50.2659 75.4476L45.5292 67.6426C44.3463 68.4501 43.1571 68.8849 41.799 68.8553C40.1358 68.819 38.4043 68.0867 36.3558 66.9829L36.3132 66.9604L36.2728 66.9317C34.3432 65.6599 33.1242 64.5465 32.2659 63.3058C31.4164 62.0774 30.9667 60.7881 30.4785 59.3049L30.4274 59.1472V58.9812C30.4405 57.0443 30.6796 55.3509 31.2275 53.9172L30.6892 54.3617C24.2967 47.1387 22.3908 41.1744 22.152 36.9264C22.0331 34.8109 22.3279 33.1466 22.6648 31.9955C22.8329 31.4214 23.0114 30.9741 23.1521 30.664C23.2222 30.5095 23.285 30.3877 23.3308 30.3014C23.3536 30.2585 23.3737 30.2226 23.3883 30.1969C23.3953 30.1846 23.4005 30.1724 23.4053 30.1641C25.3145 26.4198 27.7792 24.8757 29.9039 24.3503C30.9469 24.0925 31.863 24.0925 32.5234 24.1577C32.8537 24.1904 33.1238 24.2393 33.3171 24.2827C33.413 24.3042 33.4916 24.324 33.5491 24.3401C33.5775 24.348 33.603 24.357 33.6214 24.3626C33.63 24.3652 33.6386 24.3668 33.6448 24.3687L33.6533 24.3728H33.6597C33.6597 24.3728 33.6499 24.3983 33.5852 24.5797C33.6794 24.5301 33.7696 24.4818 33.8597 24.4425C33.911 24.4201 33.9715 24.402 34.0342 24.379C34.4763 14.9362 40.4367 7.4722 48.2721 3.41195ZM73.9368 5.04261C66.2578 0.823545 56.8435 1.35295 49.3041 5.25976C41.7764 9.16074 36.2412 16.3628 36.1877 25.3766L36.1728 27.6669L34.6662 26.3989C34.431 26.5177 34.0786 26.7439 33.5831 27.1261C32.4668 27.9872 30.8814 29.4202 28.691 31.4363L27.1845 29.9203C28.841 28.3956 30.2017 27.1592 31.2892 26.2452C31.028 26.269 30.7442 26.3089 30.4466 26.3825C29.0016 26.7399 27.0039 27.84 25.3375 31.1351L25.2992 31.2048C25.2942 31.2136 25.2824 31.2315 25.2694 31.256C25.2427 31.3062 25.2018 31.3902 25.1502 31.5039C25.0463 31.7328 24.902 32.0882 24.7629 32.563C24.4847 33.5134 24.2219 34.9486 24.3267 36.8138C24.5308 40.4412 26.1381 45.8019 31.9233 52.5057C32.9492 50.8489 34.5041 49.7549 36.5643 49.1379L36.5899 49.1318L36.6154 49.1236C38.3712 48.6875 39.9008 48.7334 41.5224 49.4022C43.0573 50.0352 44.6156 51.2066 46.5166 52.8581L46.7528 53.0261C46.7289 52.7074 46.6597 52.2408 46.4868 51.5859C46.1989 50.4961 45.674 48.9993 44.827 46.9951L44.6525 46.5792L44.844 46.1695C46.3116 43.0286 46.8922 40.7163 46.8421 38.5079C46.7915 36.2853 46.1007 34.0614 44.8291 31.0778L44.129 29.4328L45.9633 29.6376C51.9721 30.307 56.2263 30.2672 59.8352 29.0661C63.4129 27.8753 66.4968 25.4924 70.0406 21.175L71.2833 19.6611L71.894 21.3942C71.9414 21.4282 72.0627 21.5058 72.326 21.6114C72.8442 21.8191 73.6936 22.0531 75.0285 22.3202C77.0203 22.7186 79.9611 23.1661 84.221 23.7275L88.9344 24.3298L89.3727 24.3831L89.6472 24.717C90.763 26.067 91.6325 27.3047 92.2603 29.0272C92.5151 29.7265 92.7226 30.4968 92.8987 31.3748C93.2101 30.1625 93.3319 29.1226 93.3008 28.1627C93.2393 26.264 92.5855 24.5565 91.4027 22.2976L91.041 21.6052L91.6219 21.0685C97.5081 15.6326 99.1233 11.0851 98.6589 8.09701C98.2176 5.25826 95.8277 3.45446 92.5007 3.41195C83.2997 5.76669 79.2981 6.1179 74.2645 5.15938L74.09 5.1266L73.9368 5.04261Z" fill="black"/>
<path fill-rule="evenodd" clip-rule="evenodd" d="M48.2721 3.41195C56.3122 -0.754191 66.4482 -1.40143 74.8455 3.12925C79.341 3.96332 82.9907 3.68214 92.0943 1.34495L92.2326 1.31013H92.3752C96.6313 1.30822 100.178 3.69246 100.814 7.78563C101.413 11.6388 99.3557 16.6189 93.6945 22.0395C94.7264 24.1032 95.4107 25.9677 95.4798 28.0971C95.5559 30.4492 94.8846 33.0038 93.3774 36.3958L91.2878 36.0537C91.073 33.0473 90.7275 31.1562 90.2047 29.7216C89.7355 28.4343 89.1022 27.4692 88.2024 26.3497C81.5633 25.521 77.2746 24.9107 74.5859 24.3728C73.2182 24.0992 72.2027 23.834 71.4876 23.5473C71.3349 23.486 71.1793 23.4152 71.0259 23.3363C67.6185 27.3089 64.3997 29.767 60.548 31.0491C56.8668 32.2743 52.7233 32.3821 47.5018 31.8993C48.4128 34.2505 48.9703 36.3215 49.019 38.4628C49.0762 40.9859 48.4258 43.507 47.0145 46.6182C47.7843 48.4723 48.2976 49.9335 48.5977 51.0697C48.9087 52.2477 49.0336 53.2083 48.8828 53.9213C48.8033 54.2962 48.6239 54.7124 48.2402 55.0132C47.8379 55.328 47.3699 55.393 46.9826 55.3532C46.2988 55.283 45.6451 54.8716 45.159 54.499L45.1313 54.4785L45.1058 54.458C43.1937 52.7936 41.8518 51.8217 40.6648 51.3319C39.5572 50.8751 38.5342 50.8177 37.1835 51.1496C35.5443 51.6459 34.4601 52.4664 33.7512 53.6509C33.0322 54.8525 32.643 56.5268 32.6107 58.8337C33.0767 60.2409 33.4463 61.2244 34.081 62.1422C34.7254 63.0738 35.6909 64.0006 37.4538 65.1679C39.4666 66.25 40.7752 66.7341 41.8479 66.7576C42.8384 66.7792 43.7993 66.4072 45.1143 65.2826C45.1667 65.238 45.226 65.1991 45.2888 65.1638C45.8082 64.8722 46.4749 65.0408 46.7783 65.5407L52.1491 74.3885C52.4524 74.8885 52.2769 75.5323 51.7576 75.8245C51.2382 76.1167 50.5696 75.9475 50.2659 75.4476L45.5292 67.6426C44.3463 68.4501 43.1571 68.8849 41.799 68.8553C40.1358 68.819 38.4043 68.0867 36.3558 66.9829L36.3132 66.9604L36.2728 66.9317C34.3432 65.6599 33.1242 64.5465 32.2659 63.3058C31.4164 62.0774 30.9667 60.7881 30.4785 59.3049L30.4274 59.1472V58.9812C30.4405 57.0443 30.6796 55.3509 31.2275 53.9172L30.6892 54.3617C24.2967 47.1387 22.3908 41.1744 22.152 36.9264C22.0331 34.8109 22.3279 33.1466 22.6648 31.9955C22.8329 31.4214 23.0114 30.9741 23.1521 30.664C23.2222 30.5095 23.285 30.3877 23.3308 30.3014C23.3536 30.2585 23.3737 30.2226 23.3883 30.1969C23.3953 30.1846 23.4005 30.1724 23.4053 30.1641C25.3145 26.4198 27.7792 24.8757 29.9039 24.3503C30.9469 24.0925 31.863 24.0925 32.5234 24.1577C32.8537 24.1904 33.1238 24.2393 33.3171 24.2827C33.413 24.3042 33.4916 24.324 33.5491 24.3401C33.5775 24.348 33.603 24.357 33.6214 24.3626C33.63 24.3652 33.6386 24.3668 33.6448 24.3687L33.6533 24.3728H33.6597C33.6597 24.3728 33.6499 24.3983 33.5852 24.5797C33.6794 24.5301 33.7696 24.4818 33.8597 24.4425C33.911 24.4201 33.9715 24.402 34.0342 24.379C34.4763 14.9362 40.4367 7.4722 48.2721 3.41195ZM73.9368 5.04261C66.2578 0.823545 56.8435 1.35295 49.3041 5.25976C41.7764 9.16074 36.2412 16.3628 36.1877 25.3766L36.1728 27.6669L34.6662 26.3989C34.431 26.5177 34.0786 26.7439 33.5831 27.1261C32.4668 27.9872 30.8814 29.4202 28.691 31.4363L27.1845 29.9203C28.841 28.3956 30.2017 27.1592 31.2892 26.2452C31.028 26.269 30.7442 26.3089 30.4466 26.3825C29.0016 26.7399 27.0039 27.84 25.3375 31.1351L25.2992 31.2048C25.2942 31.2136 25.2824 31.2315 25.2694 31.256C25.2427 31.3062 25.2018 31.3902 25.1502 31.5039C25.0463 31.7328 24.902 32.0882 24.7629 32.563C24.4847 33.5134 24.2219 34.9486 24.3267 36.8138C24.5308 40.4412 26.1381 45.8019 31.9233 52.5057C32.9492 50.8489 34.5041 49.7549 36.5643 49.1379L36.5899 49.1318L36.6154 49.1236C38.3712 48.6875 39.9008 48.7334 41.5224 49.4022C43.0573 50.0352 44.6156 51.2066 46.5166 52.8581L46.7528 53.0261C46.7289 52.7074 46.6597 52.2408 46.4868 51.5859C46.1989 50.4961 45.674 48.9993 44.827 46.9951L44.6525 46.5792L44.844 46.1695C46.3116 43.0286 46.8922 40.7163 46.8421 38.5079C46.7915 36.2853 46.1007 34.0614 44.8291 31.0778L44.129 29.4328L45.9633 29.6376C51.9721 30.307 56.2263 30.2672 59.8352 29.0661C63.4129 27.8753 66.4968 25.4924 70.0406 21.175L71.2833 19.6611L71.894 21.3942C71.9414 21.4282 72.0627 21.5058 72.326 21.6114C72.8442 21.8191 73.6936 22.0531 75.0285 22.3202C77.0203 22.7186 79.9611 23.1661 84.221 23.7275L88.9344 24.3298L89.3727 24.3831L89.6472 24.717C90.763 26.067 91.6325 27.3047 92.2603 29.0272C92.5151 29.7265 92.7226 30.4968 92.8987 31.3748C93.2101 30.1625 93.3319 29.1226 93.3008 28.1627C93.2393 26.264 92.5855 24.5565 91.4027 22.2976L91.041 21.6052L91.6219 21.0685C97.5081 15.6326 99.1233 11.0851 98.6589 8.09701C98.2176 5.25826 95.8277 3.45446 92.5007 3.41195C83.2997 5.76669 79.2981 6.1179 74.2645 5.15938L74.09 5.1266L73.9368 5.04261Z" fill="black" fill-opacity="0.2"/>
<path d="M80.8653 65.7866C81.2896 65.377 81.9796 65.3745 82.4059 65.7825C82.8319 66.1906 82.8333 66.8549 82.4102 67.2656C81.3766 68.2666 80.2375 68.9002 78.5544 68.9311C76.9952 68.9594 75.0301 68.4658 72.3132 67.5115C71.7486 67.3126 71.4581 66.7094 71.6642 66.1655C71.8712 65.6226 72.4977 65.3424 73.0623 65.5407C75.7654 66.4902 77.3954 66.8537 78.514 66.8334C79.507 66.8149 80.1342 66.4947 80.8653 65.7866Z" fill="black"/>
<path d="M80.8653 65.7866C81.2896 65.377 81.9796 65.3745 82.4059 65.7825C82.8319 66.1906 82.8333 66.8549 82.4102 67.2656C81.3766 68.2666 80.2375 68.9002 78.5544 68.9311C76.9952 68.9594 75.0301 68.4658 72.3132 67.5115C71.7486 67.3126 71.4581 66.7094 71.6642 66.1655C71.8712 65.6226 72.4977 65.3424 73.0623 65.5407C75.7654 66.4902 77.3954 66.8537 78.514 66.8334C79.507 66.8149 80.1342 66.4947 80.8653 65.7866Z" fill="black" fill-opacity="0.2"/>
<path d="M38.522 56.1849C40.662 55.8899 42.5738 56.2167 43.6056 57.3035C44.1589 57.8865 44.4 58.6411 44.261 59.436C44.1282 60.1939 43.6692 60.8979 43.0204 61.5112C42.5911 61.9162 41.9011 61.9097 41.4798 61.4969C41.0584 61.0836 41.0657 60.4196 41.4947 60.0137C41.9343 59.5981 42.079 59.2736 42.1118 59.0878C42.1378 58.9392 42.1047 58.8328 41.9969 58.719C41.7052 58.4118 40.7369 57.9978 38.8327 58.2601C38.2373 58.3421 37.6841 57.9441 37.5985 57.3711C37.5135 56.7982 37.9271 56.2676 38.522 56.1849Z" fill="black"/>
<path d="M38.522 56.1849C40.662 55.8899 42.5738 56.2167 43.6056 57.3035C44.1589 57.8865 44.4 58.6411 44.261 59.436C44.1282 60.1939 43.6692 60.8979 43.0204 61.5112C42.5911 61.9162 41.9011 61.9097 41.4798 61.4969C41.0584 61.0836 41.0657 60.4196 41.4947 60.0137C41.9343 59.5981 42.079 59.2736 42.1118 59.0878C42.1378 58.9392 42.1047 58.8328 41.9969 58.719C41.7052 58.4118 40.7369 57.9978 38.8327 58.2601C38.2373 58.3421 37.6841 57.9441 37.5985 57.3711C37.5135 56.7982 37.9271 56.2676 38.522 56.1849Z" fill="black" fill-opacity="0.2"/>
<path fill-rule="evenodd" clip-rule="evenodd" d="M77.5096 43.9264C78.0301 43.636 78.6974 43.8084 78.9991 44.3094C82.0006 49.2938 83.5002 51.7766 84.17 52.8765C84.2404 52.9921 84.3027 53.0921 84.3551 53.1777L84.3785 53.1715C84.4573 53.3073 84.5275 53.4303 84.5785 53.5198C84.6035 53.5636 84.6269 53.6064 84.6445 53.6386C84.6522 53.6528 84.6645 53.6762 84.6764 53.7C84.6808 53.7088 84.6966 53.7406 84.7126 53.7799C84.7176 53.7922 84.7446 53.857 84.7637 53.9418C84.77 53.9698 84.803 54.106 84.7828 54.2798C84.7743 54.3304 84.7383 54.4143 84.702 54.5051C84.749 54.6548 84.7893 54.7842 84.8105 54.8923C84.8232 54.9574 84.8441 55.0743 84.8403 55.2078C84.8383 55.2735 84.8297 55.3991 84.7786 55.5438C84.7526 55.617 84.7041 55.7203 84.6232 55.8285C84.5285 56.2699 84.3375 56.6859 83.9955 57.0494C83.5445 57.5285 82.9352 57.8066 82.274 57.9774C81.6138 58.148 80.816 58.2341 79.8907 58.2704C79.2897 58.2939 78.7833 57.8432 78.7587 57.2645C78.7345 56.6862 79.2007 56.1987 79.8014 56.1747C80.6603 56.141 81.2759 56.0636 81.7101 55.9514C82.1415 55.8398 82.3116 55.715 82.3804 55.6421C82.4198 55.6001 82.4643 55.531 82.4932 55.4024C82.4119 55.2797 82.3277 55.1482 82.2463 55.0152C82.0365 54.6722 81.7829 54.2338 81.4973 53.7308C80.3765 51.7566 78.6252 48.5057 77.0989 45.7906C76.9684 45.5584 76.941 45.3001 76.9968 45.0613C76.8961 44.6264 77.0882 44.1616 77.5096 43.9264ZM83.7188 53.1326C83.8393 53.165 83.9527 53.2171 84.0551 53.2862L84.1955 53.2371C84.1679 53.2227 84.1414 53.2061 84.1189 53.1961C84.0414 53.1695 83.8713 53.1445 83.7188 53.1326Z" fill="black"/>
<path fill-rule="evenodd" clip-rule="evenodd" d="M77.5096 43.9264C78.0301 43.636 78.6974 43.8084 78.9991 44.3094C82.0006 49.2938 83.5002 51.7766 84.17 52.8765C84.2404 52.9921 84.3027 53.0921 84.3551 53.1777L84.3785 53.1715C84.4573 53.3073 84.5275 53.4303 84.5785 53.5198C84.6035 53.5636 84.6269 53.6064 84.6445 53.6386C84.6522 53.6528 84.6645 53.6762 84.6764 53.7C84.6808 53.7088 84.6966 53.7406 84.7126 53.7799C84.7176 53.7922 84.7446 53.857 84.7637 53.9418C84.77 53.9698 84.803 54.106 84.7828 54.2798C84.7743 54.3304 84.7383 54.4143 84.702 54.5051C84.749 54.6548 84.7893 54.7842 84.8105 54.8923C84.8232 54.9574 84.8441 55.0743 84.8403 55.2078C84.8383 55.2735 84.8297 55.3991 84.7786 55.5438C84.7526 55.617 84.7041 55.7203 84.6232 55.8285C84.5285 56.2699 84.3375 56.6859 83.9955 57.0494C83.5445 57.5285 82.9352 57.8066 82.274 57.9774C81.6138 58.148 80.816 58.2341 79.8907 58.2704C79.2897 58.2939 78.7833 57.8432 78.7587 57.2645C78.7345 56.6862 79.2007 56.1987 79.8014 56.1747C80.6603 56.141 81.2759 56.0636 81.7101 55.9514C82.1415 55.8398 82.3116 55.715 82.3804 55.6421C82.4198 55.6001 82.4643 55.531 82.4932 55.4024C82.4119 55.2797 82.3277 55.1482 82.2463 55.0152C82.0365 54.6722 81.7829 54.2338 81.4973 53.7308C80.3765 51.7566 78.6252 48.5057 77.0989 45.7906C76.9684 45.5584 76.941 45.3001 76.9968 45.0613C76.8961 44.6264 77.0882 44.1616 77.5096 43.9264ZM83.7188 53.1326C83.8393 53.165 83.9527 53.2171 84.0551 53.2862L84.1955 53.2371C84.1679 53.2227 84.1414 53.2061 84.1189 53.1961C84.0414 53.1695 83.8713 53.1445 83.7188 53.1326Z" fill="black" fill-opacity="0.2"/>
<path d="M65.2604 45.5566C65.9186 45.51 66.3322 45.9295 66.5183 46.1809C66.7206 46.4545 66.8575 46.7874 66.9537 47.0944C67.151 47.7238 67.262 48.5122 67.2851 49.2399C67.3074 49.9435 67.2535 50.7302 67.0308 51.3063C66.9297 51.5674 66.7081 52.0145 66.214 52.2345C65.6073 52.5044 65.0487 52.2581 64.719 52.008C63.5886 51.1492 63.4122 49.6471 63.4995 48.5733C63.5466 47.9959 63.6757 47.4294 63.8636 46.9544C63.9578 46.7167 64.0751 46.4829 64.2162 46.2767C64.3508 46.0801 64.545 45.8527 64.8173 45.6929L65.0215 45.5732L65.2604 45.5566Z" fill="black"/>
<path d="M65.2604 45.5566C65.9186 45.51 66.3322 45.9295 66.5183 46.1809C66.7206 46.4545 66.8575 46.7874 66.9537 47.0944C67.151 47.7238 67.262 48.5122 67.2851 49.2399C67.3074 49.9435 67.2535 50.7302 67.0308 51.3063C66.9297 51.5674 66.7081 52.0145 66.214 52.2345C65.6073 52.5044 65.0487 52.2581 64.719 52.008C63.5886 51.1492 63.4122 49.6471 63.4995 48.5733C63.5466 47.9959 63.6757 47.4294 63.8636 46.9544C63.9578 46.7167 64.0751 46.4829 64.2162 46.2767C64.3508 46.0801 64.545 45.8527 64.8173 45.6929L65.0215 45.5732L65.2604 45.5566Z" fill="black" fill-opacity="0.2"/>
<path d="M85.6283 41.9577C86.3381 41.9402 86.7362 42.3477 86.8712 42.5205C87.0165 42.7068 87.0891 42.8977 87.126 43.0122C87.1683 43.1433 87.196 43.279 87.217 43.4037C87.2981 43.8857 87.3115 44.5356 87.2924 45.1277C87.2732 45.7261 87.219 46.3543 87.1312 46.8073C87.0975 46.9814 87.0295 47.3077 86.8634 47.5703C86.8151 47.6467 86.7125 47.7933 86.5306 47.9285C86.3325 48.0755 85.9622 48.2593 85.4697 48.211C85.011 48.1657 84.7229 47.9431 84.5934 47.8195C84.5821 47.8086 84.5753 47.7947 84.5648 47.7839C84.3405 47.5974 84.2081 47.3917 84.1384 47.2633C84.0256 47.0554 83.9498 46.8318 83.8965 46.6271C83.7888 46.2125 83.7351 45.727 83.7275 45.2568C83.72 44.7841 83.7591 44.2783 83.8575 43.8197C83.9456 43.4097 84.1183 42.8524 84.5232 42.436L84.6558 42.3137C84.836 42.1667 85.1599 41.9695 85.6283 41.9577Z" fill="black"/>
<path d="M85.6283 41.9577C86.3381 41.9402 86.7362 42.3477 86.8712 42.5205C87.0165 42.7068 87.0891 42.8977 87.126 43.0122C87.1683 43.1433 87.196 43.279 87.217 43.4037C87.2981 43.8857 87.3115 44.5356 87.2924 45.1277C87.2732 45.7261 87.219 46.3543 87.1312 46.8073C87.0975 46.9814 87.0295 47.3077 86.8634 47.5703C86.8151 47.6467 86.7125 47.7933 86.5306 47.9285C86.3325 48.0755 85.9622 48.2593 85.4697 48.211C85.011 48.1657 84.7229 47.9431 84.5934 47.8195C84.5821 47.8086 84.5753 47.7947 84.5648 47.7839C84.3405 47.5974 84.2081 47.3917 84.1384 47.2633C84.0256 47.0554 83.9498 46.8318 83.8965 46.6271C83.7888 46.2125 83.7351 45.727 83.7275 45.2568C83.72 44.7841 83.7591 44.2783 83.8575 43.8197C83.9456 43.4097 84.1183 42.8524 84.5232 42.436L84.6558 42.3137C84.836 42.1667 85.1599 41.9695 85.6283 41.9577Z" fill="black" fill-opacity="0.2"/>
<path d="M63.7378 36.7072C64.339 36.7078 64.8272 37.1771 64.8272 37.7561C64.827 38.3348 64.3389 38.8044 63.7378 38.805C63.1789 38.805 62.5092 39.098 61.8907 39.5056C61.6002 39.6971 61.3556 39.8909 61.1843 40.0361C61.0993 40.1081 61.0331 40.1669 60.9906 40.2062L60.9374 40.2574C60.5178 40.672 59.8279 40.6814 59.3968 40.2779C58.9657 39.8737 58.9579 39.2097 59.3777 38.7947L59.4096 38.7619C59.4276 38.7447 59.4529 38.721 59.4841 38.6923C59.5464 38.6348 59.6353 38.5544 59.7458 38.4608C59.9659 38.2743 60.2809 38.0249 60.6608 37.7745C61.3848 37.2974 62.5072 36.7072 63.7378 36.7072Z" fill="black"/>
<path d="M63.7378 36.7072C64.339 36.7078 64.8272 37.1771 64.8272 37.7561C64.827 38.3348 64.3389 38.8044 63.7378 38.805C63.1789 38.805 62.5092 39.098 61.8907 39.5056C61.6002 39.6971 61.3556 39.8909 61.1843 40.0361C61.0993 40.1081 61.0331 40.1669 60.9906 40.2062L60.9374 40.2574C60.5178 40.672 59.8279 40.6814 59.3968 40.2779C58.9657 39.8737 58.9579 39.2097 59.3777 38.7947L59.4096 38.7619C59.4276 38.7447 59.4529 38.721 59.4841 38.6923C59.5464 38.6348 59.6353 38.5544 59.7458 38.4608C59.9659 38.2743 60.2809 38.0249 60.6608 37.7745C61.3848 37.2974 62.5072 36.7072 63.7378 36.7072Z" fill="black" fill-opacity="0.2"/>
<path d="M85.5446 32.8252C86.2087 32.8721 86.8121 33.0751 87.3001 33.2062C87.8789 33.3624 88.2171 33.9413 88.0555 34.4989C87.8936 35.0564 87.2921 35.3815 86.7128 35.2261C86.0409 35.0456 85.7642 34.9456 85.385 34.9188C85.0577 34.8958 84.6067 34.9339 83.7827 35.2077C83.214 35.3967 82.5939 35.1057 82.3974 34.5583C82.2013 34.011 82.5017 33.414 83.0698 33.2247C84.0684 32.8928 84.8283 32.7747 85.5446 32.8252Z" fill="black"/>
<path d="M85.5446 32.8252C86.2087 32.8721 86.8121 33.0751 87.3001 33.2062C87.8789 33.3624 88.2171 33.9413 88.0555 34.4989C87.8936 35.0564 87.2921 35.3815 86.7128 35.2261C86.0409 35.0456 85.7642 34.9456 85.385 34.9188C85.0577 34.8958 84.6067 34.9339 83.7827 35.2077C83.214 35.3967 82.5939 35.1057 82.3974 34.5583C82.2013 34.011 82.5017 33.414 83.0698 33.2247C84.0684 32.8928 84.8283 32.7747 85.5446 32.8252Z" fill="black" fill-opacity="0.2"/>
<path d="M73.9368 5.04261C66.2578 0.823545 56.8435 1.35295 49.3041 5.25976C41.7764 9.16074 36.2412 16.3628 36.1877 25.3766L36.1728 27.6669L34.6662 26.3989C34.431 26.5177 34.0786 26.7439 33.5831 27.1261C32.4668 27.9872 30.8814 29.4202 28.691 31.4363L27.1845 29.9203C28.841 28.3956 30.2017 27.1592 31.2892 26.2452C31.028 26.269 30.7442 26.3089 30.4466 26.3825C29.0016 26.7399 27.0039 27.84 25.3375 31.1351L25.2992 31.2048C25.2942 31.2136 25.2824 31.2315 25.2694 31.256C25.2427 31.3062 25.2018 31.3902 25.1502 31.5039C25.0463 31.7328 24.902 32.0882 24.7629 32.563C24.4847 33.5134 24.2219 34.9486 24.3267 36.8138C24.5308 40.4412 26.1381 45.8019 31.9233 52.5057C32.9492 50.8489 34.5041 49.7549 36.5643 49.1379L36.5899 49.1318L36.6154 49.1236C38.3712 48.6875 39.9008 48.7334 41.5224 49.4022C43.0573 50.0352 44.6156 51.2066 46.5166 52.8581L46.7528 53.0261C46.7289 52.7074 46.6597 52.2408 46.4868 51.5859C46.1989 50.4961 45.674 48.9993 44.827 46.9951L44.6525 46.5792L44.844 46.1695C46.3116 43.0286 46.8922 40.7163 46.8421 38.5079C46.7915 36.2853 46.1007 34.0614 44.8291 31.0778L44.129 29.4328L45.9633 29.6376C51.9721 30.307 56.2263 30.2672 59.8352 29.0661C63.4129 27.8753 66.4968 25.4924 70.0406 21.175L71.2833 19.6611L71.894 21.3942C71.9414 21.4282 72.0627 21.5058 72.326 21.6114C72.8442 21.8191 73.6936 22.0531 75.0285 22.3202C77.0203 22.7186 79.9611 23.1661 84.221 23.7275L88.9344 24.3298L89.3727 24.3831L89.6472 24.717C90.763 26.067 91.6325 27.3047 92.2603 29.0272C92.5151 29.7265 92.7226 30.4968 92.8987 31.3748C93.2101 30.1625 93.3319 29.1226 93.3008 28.1627C93.2393 26.264 92.5855 24.5565 91.4027 22.2976L91.041 21.6052L91.6219 21.0685C97.5081 15.6326 99.1233 11.0851 98.6589 8.09701C98.2176 5.25826 95.8277 3.45446 92.5007 3.41195C83.2997 5.76669 79.2981 6.1179 74.2645 5.15938L74.09 5.1266L73.9368 5.04261Z" fill="black"/>
<path d="M73.9368 5.04261C66.2578 0.823545 56.8435 1.35295 49.3041 5.25976C41.7764 9.16074 36.2412 16.3628 36.1877 25.3766L36.1728 27.6669L34.6662 26.3989C34.431 26.5177 34.0786 26.7439 33.5831 27.1261C32.4668 27.9872 30.8814 29.4202 28.691 31.4363L27.1845 29.9203C28.841 28.3956 30.2017 27.1592 31.2892 26.2452C31.028 26.269 30.7442 26.3089 30.4466 26.3825C29.0016 26.7399 27.0039 27.84 25.3375 31.1351L25.2992 31.2048C25.2942 31.2136 25.2824 31.2315 25.2694 31.256C25.2427 31.3062 25.2018 31.3902 25.1502 31.5039C25.0463 31.7328 24.902 32.0882 24.7629 32.563C24.4847 33.5134 24.2219 34.9486 24.3267 36.8138C24.5308 40.4412 26.1381 45.8019 31.9233 52.5057C32.9492 50.8489 34.5041 49.7549 36.5643 49.1379L36.5899 49.1318L36.6154 49.1236C38.3712 48.6875 39.9008 48.7334 41.5224 49.4022C43.0573 50.0352 44.6156 51.2066 46.5166 52.8581L46.7528 53.0261C46.7289 52.7074 46.6597 52.2408 46.4868 51.5859C46.1989 50.4961 45.674 48.9993 44.827 46.9951L44.6525 46.5792L44.844 46.1695C46.3116 43.0286 46.8922 40.7163 46.8421 38.5079C46.7915 36.2853 46.1007 34.0614 44.8291 31.0778L44.129 29.4328L45.9633 29.6376C51.9721 30.307 56.2263 30.2672 59.8352 29.0661C63.4129 27.8753 66.4968 25.4924 70.0406 21.175L71.2833 19.6611L71.894 21.3942C71.9414 21.4282 72.0627 21.5058 72.326 21.6114C72.8442 21.8191 73.6936 22.0531 75.0285 22.3202C77.0203 22.7186 79.9611 23.1661 84.221 23.7275L88.9344 24.3298L89.3727 24.3831L89.6472 24.717C90.763 26.067 91.6325 27.3047 92.2603 29.0272C92.5151 29.7265 92.7226 30.4968 92.8987 31.3748C93.2101 30.1625 93.3319 29.1226 93.3008 28.1627C93.2393 26.264 92.5855 24.5565 91.4027 22.2976L91.041 21.6052L91.6219 21.0685C97.5081 15.6326 99.1233 11.0851 98.6589 8.09701C98.2176 5.25826 95.8277 3.45446 92.5007 3.41195C83.2997 5.76669 79.2981 6.1179 74.2645 5.15938L74.09 5.1266L73.9368 5.04261Z" fill="black" fill-opacity="0.2"/>
</svg>
