<svg width="205" height="217" viewBox="0 0 205 217" fill="none" xmlns="http://www.w3.org/2000/svg">
<path d="M101.983 102.884V99.3838C95.4834 98.3831 81.9834 101.383 76.9834 102.884C72.2446 104.306 70.9834 105.717 70.9834 106.384L74.9834 112.384L99.9834 104.884L100.483 102.884H101.983Z" fill="#0070E6"/>
<path d="M158.983 101.383L153.483 106.883L180.483 123.883C181.817 122.383 184.883 119.083 186.483 117.883C188.083 116.683 168.817 106.383 158.983 101.383Z" fill="#0070E6"/>
<path d="M164.483 155.383C162.483 156.183 103.983 149.049 74.9834 145.383L73.9834 153.383L73.4834 160.883L166.483 169.383C166.317 167.716 165.683 161.383 164.483 155.383Z" fill="#FF0000" fill-opacity="0.52"/>
<path d="M75.2627 145.962C74.9146 146.658 74.6278 147.941 74.418 149.762C74.2104 151.564 74.0843 153.833 74.0264 156.457C73.9106 161.705 74.0691 168.342 74.3867 175.443C75.0219 189.644 76.2922 205.673 77.2695 216.098L76.7715 216.145L76.2734 216.191C75.2951 205.755 74.0238 189.709 73.3877 175.488C73.0697 168.378 72.9099 161.715 73.0264 156.435C73.0846 153.795 73.2122 151.493 73.4248 149.648C73.6351 147.823 73.9341 146.383 74.3682 145.515L75.2627 145.962ZM190.482 123.797C191.326 124.36 192.168 125.527 192.997 127.058C193.838 128.61 194.703 130.613 195.562 132.932C197.283 137.571 199 143.521 200.47 149.768C201.94 156.016 203.165 162.573 203.901 168.43C204.636 174.274 204.888 179.463 204.39 182.955L204.366 183.12L204.248 183.239C202.812 184.674 201.273 185.859 199.668 186.83L200.482 186.774L202.438 214.154L201.939 214.189L201.44 214.225L199.49 186.936C194.883 189.672 189.738 190.658 184.877 190.67C180.556 190.681 176.441 189.922 173.092 188.936L171.146 216.181L170.647 216.145L170.148 216.11L172.104 188.73L172.495 188.757C170.961 188.28 169.605 187.76 168.484 187.251L168.23 187.136L168.195 186.858L164.284 155.567L164.78 155.504L165.276 155.443L169.151 186.451C172.71 188.023 178.571 189.686 184.874 189.67C191.274 189.654 198.083 187.911 203.42 182.649C203.868 179.295 203.63 174.287 202.909 168.554C202.178 162.738 200.96 156.216 199.496 149.996C198.032 143.776 196.327 137.868 194.625 133.28C193.774 130.984 192.928 129.029 192.118 127.533C191.297 126.017 190.551 125.045 189.928 124.629L190.482 123.797ZM101.09 41.0784C101.192 40.822 101.483 40.6975 101.739 40.8C101.996 40.9026 102.12 41.1931 102.018 41.4495C99.6586 47.347 97.6764 56.386 98.5625 64.8704C99.4466 73.3344 103.17 81.1686 112.145 84.8811L117.982 86.5774L117.75 87.5481C115.831 87.1882 114.076 86.6963 112.476 86.0881V92.9241C112.476 92.928 112.474 92.9319 112.474 92.9358C112.475 93.0244 112.495 93.2172 112.542 93.5295C112.589 93.8419 112.659 94.2467 112.748 94.7317C112.927 95.7016 113.184 96.9818 113.494 98.469C114.114 101.443 114.946 105.236 115.789 109.011C116.588 112.59 117.4 116.151 118.051 118.984L123.279 110.271L123.306 110.228L123.34 110.191C126.927 106.277 132.309 100.504 136.796 95.9026C139.038 93.6037 141.063 91.5898 142.53 90.2473C142.61 90.1746 142.689 90.1044 142.766 90.0354V80.9856L148.979 74.7717L149.254 74.8401C151.796 75.4754 155.58 75.6547 158.699 74.1887C160.248 73.4605 161.635 72.327 162.638 70.634C163.642 68.9382 164.279 66.6506 164.279 63.5911C164.279 63.315 164.503 63.0911 164.779 63.0911C165.055 63.0916 165.279 63.3153 165.279 63.5911C165.279 66.7893 164.612 69.2614 163.498 71.1428C162.382 73.0268 160.834 74.2902 159.124 75.094C155.84 76.6372 151.96 76.4883 149.29 75.8743L143.766 81.3997V89.1731C143.967 89.0094 144.147 88.8692 144.306 88.759C144.509 88.6177 144.731 88.4814 144.933 88.4289C145.025 88.4051 145.236 88.3648 145.441 88.4905C145.681 88.6374 145.721 88.8835 145.721 89.0149C145.721 89.1415 145.772 89.3321 145.915 89.6018C146.056 89.8661 146.264 90.1685 146.531 90.51C147.073 91.2022 147.782 91.9684 148.534 92.8459C149.272 93.7068 150.03 94.6517 150.604 95.6399C151.132 96.5494 151.521 97.5274 151.579 98.5373L156.514 102.436L158.561 100.391L158.815 100.136L159.138 100.297C164.358 102.907 171.998 106.923 177.945 110.485C180.914 112.263 183.484 113.941 185.119 115.281C185.926 115.943 186.556 116.562 186.874 117.099C187.032 117.365 187.156 117.684 187.112 118.014C187.063 118.385 186.821 118.642 186.518 118.793C183.517 120.294 181.496 123.192 180.874 124.436L180.625 124.935L180.156 124.633L152.776 107.031L152.254 106.697L152.693 106.258L155.803 103.148L151.444 99.7043C151.333 100.115 151.163 100.568 150.953 101.043C150.564 101.924 150.01 102.953 149.348 104.062C148.022 106.282 146.238 108.864 144.398 111.317C142.558 113.77 140.654 116.106 139.082 117.832C138.297 118.694 137.587 119.413 137.005 119.92C136.715 120.173 136.445 120.383 136.206 120.532C135.99 120.668 135.716 120.807 135.442 120.807C135.112 120.807 134.737 120.648 134.387 120.461C134.014 120.262 133.583 119.98 133.115 119.643C132.178 118.967 131.052 118.038 129.882 117.016C127.747 115.149 125.439 112.944 123.81 111.33L118.318 120.482C116.04 133.514 113.021 153.692 111.348 171.984C110.509 181.151 110.009 189.834 110.108 196.903C110.158 200.437 110.357 203.558 110.736 206.128C111.117 208.709 111.673 210.691 112.408 211.978L111.974 212.226L111.54 212.474C110.711 211.023 110.133 208.892 109.747 206.274C109.359 203.644 109.158 200.476 109.108 196.917C109.008 189.799 109.512 181.075 110.352 171.892C112.028 153.571 115.05 133.372 117.331 120.322C116.688 117.535 115.842 113.815 114.991 110.018C113.138 111.516 110.567 113.451 108.205 114.922C106.888 115.743 105.612 116.435 104.552 116.822C104.023 117.014 103.519 117.141 103.074 117.157C102.632 117.174 102.175 117.082 101.842 116.749C101.513 116.421 101.299 115.963 101.153 115.461C101.006 114.954 100.919 114.358 100.872 113.712C100.778 112.421 100.841 110.863 100.964 109.268C101.087 107.671 101.271 106.01 101.423 104.519C101.47 104.06 101.512 103.618 101.55 103.199H100.742V105.025L100.39 105.133L74.9648 112.956L74.6084 113.066L74.4014 112.756V112.755C74.401 112.755 74.4002 112.753 74.3994 112.752C74.3979 112.75 74.3957 112.746 74.3926 112.741C74.3861 112.732 74.3759 112.717 74.3623 112.697C74.3348 112.655 74.2915 112.591 74.2305 112.499L70.4902 106.889L70.3545 106.685L70.4316 106.453C70.6684 105.743 71.1883 105.117 71.8701 104.566C72.5547 104.012 73.4341 103.507 74.4453 103.045C76.4677 102.122 79.084 101.343 81.8926 100.697C87.5145 99.4017 93.995 98.6174 98.248 98.2903L98.2676 98.2883H102.576C102.804 97.9431 103.063 97.6038 103.344 97.2766C104.295 96.1667 105.552 95.1007 106.798 94.2288C108.041 93.3587 109.303 92.6611 110.274 92.3049C110.701 92.1487 111.121 92.0388 111.476 92.0383V85.6838C102.257 81.7366 98.4657 73.5741 97.5674 64.9748C96.6607 56.2932 98.6855 47.0893 101.09 41.0784ZM1 112.478C1 116.347 1.67976 122.144 3.69922 126.952C5.72162 131.767 9.01447 135.446 14.1904 135.447H14.6426L14.6875 135.897C15.668 145.702 16.6428 160.321 19.5664 172.746C21.0281 178.958 22.9681 184.58 25.6133 188.758C28.2556 192.932 31.563 195.61 35.7578 196.076C53.1383 198.008 62.6651 188.361 64.5537 180.807C64.9032 179.408 64.5428 177.695 63.6279 175.783C62.718 173.883 61.2918 171.853 59.6191 169.857C59.3679 169.557 59.1104 169.259 58.8496 168.962C58.2223 168.344 57.5795 167.731 56.9258 167.13C52.6941 163.239 48.1192 159.832 45.2041 157.889L45.7588 157.057C46.7672 157.729 47.97 158.574 49.2871 159.55L49.3926 159.415L49.7002 159.021C52.4229 161.138 56.3163 164.568 59.5742 168.273C63.051 171.7 66.1013 175.406 67.459 178.8C67.8427 179.759 68.2033 180.47 68.5361 180.976C68.8725 181.487 69.1588 181.756 69.3809 181.879C69.5796 181.989 69.7264 181.984 69.8633 181.927C70.0277 181.859 70.2281 181.693 70.4502 181.383C70.8946 180.764 71.2965 179.754 71.6289 178.575C71.9576 177.41 72.2056 176.127 72.3662 175.003L72.8613 175.074L73.3564 175.145C73.1911 176.302 72.9343 177.629 72.5908 178.847C72.251 180.052 71.8122 181.2 71.2627 181.966C70.9879 182.349 70.6535 182.682 70.2451 182.851C69.8091 183.031 69.3444 183.001 68.8975 182.754C68.4741 182.52 68.0789 182.101 67.7002 181.526C67.3177 180.944 66.9285 180.167 66.5303 179.171C66.1149 178.133 65.5262 177.055 64.8037 175.956C65.5705 177.744 65.9122 179.493 65.5234 181.049C63.5004 189.141 53.4697 199.051 35.6475 197.071C31.0422 196.559 27.5042 193.614 24.7686 189.293C22.036 184.977 20.0645 179.23 18.5928 172.975C15.6934 160.652 14.6956 146.187 13.7344 136.436C8.22685 136.224 4.80647 132.17 2.77734 127.339C0.690153 122.369 0 116.431 0 112.478H1ZM34.1475 131.735C36.5458 134.932 39.3382 141.523 41.8438 148.389C44.3584 155.28 46.6116 162.528 47.918 167.101L47.4375 167.238L46.9561 167.375C45.6548 162.821 43.41 155.596 40.9053 148.733C38.3914 141.844 35.6428 135.396 33.3477 132.335L33.7471 132.035L34.1475 131.735ZM68.9512 112.479L69.3701 112.751L43.9453 151.865L43.1074 151.321L68.5312 112.206L68.9512 112.479ZM14.0459 79.8772C14.7372 79.9655 15.3817 80.4808 15.9639 81.1389C16.5634 81.8167 17.1787 82.7407 17.7979 83.8137C19.0375 85.9622 20.3405 88.7914 21.6143 91.6506C22.8932 94.5215 24.1423 97.4231 25.2861 99.7551C25.8576 100.92 26.3973 101.93 26.8936 102.714C27.3898 103.498 27.8095 103.997 28.1367 104.225C28.9823 102.808 30.6374 101.254 33.5889 100.27C34.2176 100.06 34.7763 99.9815 35.2568 100.061C35.7559 100.143 36.147 100.393 36.4131 100.777C36.668 101.144 36.7859 101.602 36.8242 102.078C36.8628 102.559 36.8237 103.097 36.7344 103.658C36.3862 105.847 35.2205 108.673 34.2471 110.637V126.168C34.247 126.444 34.0231 126.668 33.7471 126.668C33.4711 126.668 33.2472 126.444 33.2471 126.168V110.405L33.2998 110.299C34.2715 108.356 35.4171 105.575 35.7471 103.501C35.8289 102.987 35.8573 102.533 35.8271 102.158C35.7967 101.78 35.7096 101.516 35.5918 101.346C35.4852 101.192 35.3353 101.087 35.0938 101.047C34.8333 101.004 34.4498 101.036 33.9053 101.218C29.3783 102.727 28.3799 105.559 28.3799 106.611V107.111H18.7422L20.4473 113.934H26.9648L26.3145 114.745C25.0243 116.358 23.2924 118.864 22.2734 121.141C21.7615 122.285 21.452 123.324 21.4375 124.142C21.4235 124.934 21.6789 125.442 22.2363 125.721C22.4833 125.844 22.5834 126.145 22.46 126.392C22.3363 126.638 22.0359 126.739 21.7891 126.615C20.7821 126.112 20.419 125.168 20.4375 124.123C20.4557 123.104 20.8304 121.918 21.3613 120.732C22.2664 118.71 23.692 116.549 24.9072 114.934H19.8809C19.8821 114.966 19.8838 114.998 19.8848 115.031C19.916 116.029 19.8417 116.929 19.6045 117.597C19.4848 117.934 19.3115 118.245 19.0605 118.475C18.799 118.714 18.4729 118.847 18.1016 118.847C17.5433 118.847 17.0527 118.583 16.6377 118.198C16.2246 117.814 15.8529 117.28 15.5166 116.659C14.8435 115.417 14.2573 113.723 13.7568 111.877C12.7537 108.177 12.0649 103.748 11.7373 100.8L11.7109 100.562L11.8809 100.392C12.1771 100.096 12.5104 99.892 12.8789 99.8098C13.2498 99.7271 13.6156 99.7763 13.958 99.9153C14.6196 100.184 15.2236 100.799 15.7598 101.556C16.5728 102.704 17.3349 104.33 17.9775 106.111H27.4219C27.4935 105.647 27.6631 105.101 27.9668 104.524L27.8789 104.656L27.6006 105.072C27.0823 104.725 26.5625 104.061 26.0488 103.249C25.5242 102.421 24.9664 101.373 24.3887 100.196C23.234 97.8415 21.9716 94.9096 20.7012 92.0579C19.4258 89.1949 18.1417 86.411 16.9316 84.3137C16.326 83.2641 15.7496 82.4056 15.2148 81.801C14.6629 81.177 14.2287 80.909 13.9199 80.8694C13.5658 80.8241 13.3819 80.9258 13.249 81.1038C13.0826 81.3269 12.9554 81.731 12.9121 82.3616C12.8265 83.6112 13.0872 85.4424 13.5312 87.5725C13.9726 89.6897 14.5819 92.0485 15.166 94.3391C15.7481 96.6218 16.3071 98.8425 16.6367 100.656L16.1445 100.744L15.6523 100.834C15.3301 99.062 14.7813 96.8767 14.1973 94.5862C13.6153 92.304 12.9997 89.9196 12.5527 87.7756C12.1085 85.6445 11.8181 83.6937 11.9141 82.2932C11.9616 81.5993 12.1081 80.9606 12.4482 80.5051C12.8221 80.0047 13.3783 79.792 14.0459 79.8772ZM156.907 103.457L153.839 106.526L180.246 123.502C181.13 121.987 183.158 119.355 186.07 117.899C186.096 117.886 186.109 117.873 186.118 117.866C186.117 117.856 186.116 117.838 186.109 117.815C186.095 117.766 186.066 117.697 186.014 117.609C185.792 117.234 185.283 116.709 184.485 116.055C182.91 114.764 180.395 113.118 177.432 111.343C171.635 107.871 164.209 103.96 159.011 101.353L156.907 103.457ZM5.75879 104.96C6.35881 104.384 7.06486 104.234 7.77734 104.458C8.44171 104.668 9.06849 105.188 9.63672 105.844C10.7818 107.165 11.8667 109.245 12.6953 111.405C13.5255 113.568 14.1224 115.872 14.2578 117.666C14.3249 118.556 14.2826 119.372 14.0625 119.992C13.9507 120.307 13.7834 120.598 13.5361 120.816C13.2814 121.04 12.9675 121.164 12.6133 121.178C11.8882 121.207 11.2498 120.83 10.6963 120.258C10.7326 120.867 10.6707 121.448 10.4346 121.911C10.1541 122.461 9.65274 122.793 8.97363 122.821C7.95915 122.861 7.07146 122.295 6.33301 121.5C5.58946 120.7 4.93158 119.6 4.36328 118.408C3.22463 116.021 2.39586 113.151 1.97949 111.236L1.9082 110.907L2.18359 110.718C3.44883 109.845 4.85918 110.377 6.0166 111.329C6.42272 111.664 6.8195 112.066 7.2002 112.514C6.47831 109.961 5.93218 107.327 5.6123 105.404L5.56836 105.143L5.75879 104.96ZM5.38086 112.102C4.46786 111.35 3.68295 111.121 3.03906 111.384C3.46648 113.239 4.23948 115.826 5.26562 117.977C5.81404 119.126 6.42121 120.125 7.06641 120.82C7.71648 121.519 8.3413 121.845 8.93359 121.822C9.25827 121.808 9.43087 121.678 9.54395 121.456C9.67822 121.193 9.74178 120.764 9.68848 120.169C9.62508 119.463 9.40374 118.613 9.06641 117.716C8.85643 117.274 8.65292 116.804 8.45898 116.313C8.38898 116.17 8.31787 116.025 8.24316 115.883C7.44363 114.359 6.41602 112.954 5.38086 112.102ZM7.47656 105.411C7.18886 105.321 6.92139 105.34 6.64844 105.524C7.08843 108.086 7.90022 111.764 8.9707 114.821C9.10169 115.195 9.2367 115.558 9.37402 115.907C9.60341 116.379 9.81034 116.856 9.98926 117.328C10.2514 117.876 10.5208 118.367 10.7979 118.781C11.4755 119.796 12.0794 120.199 12.5732 120.179C12.7074 120.174 12.8003 120.131 12.876 120.065C12.9589 119.991 13.0466 119.865 13.1201 119.658C13.2709 119.234 13.3241 118.582 13.2607 117.741C13.135 116.076 12.5708 113.871 11.7617 111.762C10.9511 109.649 9.91706 107.693 8.88184 106.498C8.35991 105.896 7.88067 105.539 7.47656 105.411ZM144.831 89.6135C144.562 89.8055 144.203 90.0988 143.766 90.4836V90.9709C143.766 91.2468 143.542 91.4707 143.266 91.4709C143.11 91.4709 142.973 91.3981 142.881 91.2864C141.466 92.6014 139.588 94.472 137.512 96.6008C133.169 101.055 127.981 106.614 124.403 110.512C126.028 112.124 128.377 114.372 130.54 116.263C131.701 117.278 132.8 118.183 133.7 118.831C134.151 119.156 134.541 119.41 134.858 119.579C135.197 119.761 135.381 119.807 135.442 119.807C135.414 119.807 135.478 119.807 135.676 119.684C135.852 119.574 136.077 119.401 136.348 119.165C136.888 118.695 137.569 118.008 138.343 117.158C139.888 115.462 141.772 113.153 143.599 110.717C145.425 108.281 147.187 105.729 148.489 103.549C149.141 102.458 149.672 101.469 150.039 100.639C150.414 99.7908 150.588 99.1707 150.588 98.7942C150.588 97.9393 150.267 97.05 149.739 96.1418C149.213 95.2355 148.504 94.3467 147.775 93.4963C147.061 92.6627 146.303 91.8397 145.744 91.1262C145.462 90.7652 145.212 90.4105 145.032 90.0715C144.954 89.9237 144.885 89.7697 144.831 89.6135ZM13.0967 100.786C12.9967 100.809 12.8849 100.858 12.7617 100.949C13.0967 103.864 13.7654 108.088 14.7217 111.615C15.2151 113.436 15.7774 115.042 16.3955 116.183C16.705 116.754 17.016 117.183 17.3184 117.464C17.6189 117.743 17.8776 117.847 18.1016 117.847C18.2188 117.847 18.3055 117.811 18.3857 117.738C18.4764 117.654 18.5757 117.506 18.6621 117.263C18.8371 116.77 18.9147 116.018 18.8848 115.062C18.8254 113.163 18.3486 110.641 17.623 108.223C16.8958 105.799 15.9364 103.536 14.9434 102.134C14.4408 101.425 13.9745 101.001 13.582 100.842C13.3975 100.767 13.2394 100.755 13.0967 100.786ZM111.478 93.0403C111.312 93.0397 111.026 93.0939 110.618 93.2434C109.756 93.5596 108.572 94.2062 107.371 95.0471C106.172 95.8863 104.984 96.8992 104.103 97.928C103.233 98.9432 102.729 99.8966 102.698 100.674V103.199H102.555C102.514 103.654 102.468 104.131 102.418 104.62C102.265 106.124 102.083 107.763 101.961 109.344C101.839 110.926 101.78 112.425 101.869 113.639C101.914 114.246 101.994 114.766 102.114 115.183C102.236 115.605 102.388 115.882 102.549 116.042C102.607 116.1 102.738 116.169 103.036 116.158C103.333 116.147 103.726 116.057 104.209 115.881C105.171 115.531 106.378 114.882 107.677 114.073C110.16 112.527 112.895 110.444 114.746 108.926C113.926 105.25 113.121 101.574 112.516 98.6731C112.205 97.1832 111.946 95.8944 111.765 94.9133C111.674 94.4232 111.603 94.006 111.554 93.678C111.516 93.4251 111.487 93.2048 111.478 93.0403ZM98.3027 99.2883C94.0808 99.6141 87.6657 100.393 82.1172 101.671C79.3359 102.312 76.7941 103.073 74.8604 103.955C73.8935 104.396 73.0954 104.86 72.499 105.343C71.9927 105.753 71.6547 106.159 71.4688 106.554L74.4512 111.028C74.717 111.426 74.903 111.705 75.0264 111.89L99.7422 104.286V102.199H101.632C101.671 101.655 101.695 101.166 101.695 100.749C101.695 100.725 101.698 100.7 101.698 100.676V99.2883H98.3027ZM124.112 66.5442C124.348 66.4147 124.624 66.3258 124.907 66.3772C125.214 66.4331 125.425 66.6329 125.55 66.8616C125.667 67.0768 125.718 67.3317 125.736 67.5823C125.807 68.5669 125.397 70.1292 124.646 71.6311C123.889 73.1454 122.734 74.7013 121.22 75.6233C119.675 76.5632 117.781 76.8248 115.663 75.7659L116.11 74.8713C117.903 75.7678 119.433 75.5404 120.699 74.7698C121.996 73.9806 123.042 72.6028 123.752 71.1838C124.468 69.7523 124.791 68.3802 124.739 67.6536C124.729 67.5165 124.704 67.4291 124.685 67.3772C124.662 67.3856 124.632 67.3993 124.594 67.4202C124.466 67.4904 124.289 67.6233 124.063 67.8489C122.343 69.5693 119.874 69.89 117.596 69.6555C115.307 69.4198 113.097 68.6151 111.752 67.9426L112.199 67.0481C113.462 67.6793 115.555 68.4396 117.698 68.6604C119.853 68.8822 121.948 68.5501 123.356 67.1418C123.619 66.8791 123.872 66.6764 124.112 66.5442ZM154.706 63.1633C155.472 62.9965 156.306 63.0907 157.182 63.5286L156.734 64.4231C156.046 64.0787 155.444 64.0265 154.919 64.1409C154.385 64.2572 153.888 64.5549 153.437 64.9768C152.524 65.8292 151.876 67.114 151.565 68.0452L151.091 67.8879L150.616 67.7297C150.958 66.7054 151.678 65.2517 152.754 64.2463C153.296 63.7394 153.949 63.3283 154.706 63.1633ZM107.604 0.0891051C108.637 -0.104564 109.706 -0.0110368 110.372 0.654535C111.261 1.5428 113.119 2.4915 115.54 3.21801C117.941 3.93845 120.828 4.42016 123.709 4.42016C125.135 4.42007 127.056 4.18058 129.231 3.87426C131.392 3.56996 133.79 3.20095 136.124 2.95532C138.456 2.70983 140.757 2.58365 142.732 2.77172C144.666 2.95592 146.382 3.45032 147.487 4.52465C153.379 8.457 157.307 12.3872 159.265 14.345C159.557 14.6374 159.859 15.0812 160.159 15.6077C160.464 16.1421 160.785 16.7926 161.11 17.5198C161.76 18.9747 162.438 20.7635 163.053 22.6077C163.668 24.4525 164.223 26.3621 164.624 28.0598C165.023 29.7463 165.278 31.2609 165.278 32.3C165.278 32.5462 165.287 32.7247 165.299 32.8518C165.343 32.8257 165.395 32.7976 165.451 32.7639C165.669 32.6338 165.959 32.4626 166.305 32.3245C167.018 32.0393 167.951 31.9027 169.1 32.3899C170.222 32.8664 171.509 33.9214 173.002 35.9114C176.034 39.9542 176.532 44.4969 176.031 48.2561C175.781 50.1357 175.279 51.8287 174.713 53.1809C174.152 54.5199 173.511 55.5667 172.955 56.1223L166.941 62.136H162.823C162.395 62.136 162.062 61.9155 161.809 61.6672C161.56 61.4237 161.335 61.0994 161.124 60.7825C160.681 60.1178 160.234 59.3961 159.569 58.842C158.929 58.3087 158.076 57.9262 156.805 58.009C155.51 58.0935 153.755 58.6629 151.346 60.1086C150.343 60.7102 149.484 61.0327 148.768 61.0344C148.399 61.0352 148.059 60.9505 147.766 60.7688C147.473 60.5875 147.255 60.3277 147.1 60.0247C146.796 59.4345 146.707 58.6433 146.738 57.7707C146.77 56.8851 146.93 55.8516 147.178 54.7317C148.119 50.4816 150.392 44.7568 152.297 40.5549C148.384 40.1614 142.952 39.0799 138.555 37.0061C136.22 35.9052 134.14 34.5075 132.741 32.7522C131.479 31.168 130.78 29.2966 130.945 27.1282C127.833 27.9806 122.862 28.3815 118.549 28.1545C116.208 28.0313 114.017 27.7219 112.396 27.1819C111.589 26.9125 110.887 26.5746 110.38 26.1467C109.947 25.7817 109.634 25.33 109.545 24.7932C109.046 25.4363 108.337 26.6517 107.527 28.1819C105.905 31.2473 103.954 35.4407 102.652 38.3704L101.946 39.9582L101.701 38.2375C101.372 35.9347 101.075 32.3792 101.257 29.1907C101.348 27.5983 101.559 26.0714 101.958 24.8303C102.312 23.7301 102.842 22.7699 103.648 22.2366C103.621 19.4935 103.207 13.4455 101.722 8.98852C100.653 5.78134 102.28 3.13177 104.341 1.58618C105.372 0.812664 106.542 0.288271 107.604 0.0891051ZM117.371 47.7825C117.458 47.5207 117.741 47.379 118.003 47.4661C118.265 47.5536 118.407 47.8371 118.319 48.0989C117.799 49.6609 116.669 51.214 115.474 52.6545C114.245 54.1357 112.985 55.4575 112.033 56.7024C111.566 57.3138 111.205 57.8679 110.988 58.3606C110.77 58.8555 110.719 59.237 110.794 59.5344C110.865 59.8157 111.072 60.1143 111.573 60.3997C112.085 60.6904 112.869 60.9469 114.016 61.1379C114.288 61.1835 114.472 61.4409 114.427 61.7131C114.381 61.985 114.124 62.1693 113.852 62.1243C112.652 61.9243 111.736 61.6424 111.079 61.2688C110.412 60.8897 109.98 60.3953 109.824 59.7786C109.673 59.178 109.809 58.5542 110.072 57.9573C110.336 57.3575 110.752 56.7302 111.238 56.095C112.193 54.8466 113.55 53.4068 114.704 52.0159C115.892 50.5841 116.914 49.1538 117.371 47.7825ZM131.284 49.0237C131.382 48.9986 131.502 48.9951 131.625 49.0422C131.744 49.0881 131.826 49.1663 131.878 49.2356C131.969 49.3587 131.999 49.4975 132.013 49.5793C132.028 49.6756 132.034 49.783 132.034 49.8948C132.034 50.9858 131.506 52.5351 131.003 53.5413C130.874 53.7986 130.741 54.0337 130.61 54.2258C130.489 54.4043 130.337 54.594 130.161 54.7112C130.073 54.7701 129.923 54.8486 129.733 54.8391C129.514 54.8278 129.35 54.7056 129.253 54.5666C129.168 54.4446 129.129 54.3075 129.108 54.1965C129.087 54.0788 129.078 53.9471 129.078 53.8069V53.7248L129.104 53.6487C129.431 52.667 129.926 51.2797 130.343 50.3293C130.447 50.0912 130.55 49.8735 130.646 49.6936C130.737 49.525 130.841 49.3497 130.956 49.2278C131.006 49.175 131.117 49.0669 131.284 49.0237ZM109.771 43.5461C109.869 43.5211 109.99 43.5176 110.112 43.5647C110.232 43.6106 110.314 43.6888 110.365 43.758C110.457 43.8812 110.487 44.0201 110.5 44.1018C110.516 44.1981 110.521 44.3054 110.521 44.4172C110.521 45.5083 109.993 47.0575 109.49 48.0637C109.362 48.321 109.229 48.5562 109.098 48.7483C108.976 48.9268 108.824 49.1165 108.648 49.2336C108.56 49.2926 108.41 49.371 108.221 49.3616C108.001 49.3503 107.838 49.2281 107.74 49.0891C107.655 48.967 107.616 48.83 107.596 48.719C107.574 48.6013 107.565 48.4696 107.565 48.3293V48.2473L107.591 48.1711C107.918 47.1895 108.413 45.8022 108.83 44.8518C108.935 44.6136 109.038 44.396 109.134 44.2161C109.224 44.0474 109.329 43.8721 109.443 43.7502C109.493 43.6974 109.604 43.5893 109.771 43.5461ZM131.791 40.1096C132.847 39.9497 134.431 39.9011 135.71 40.3205C136.354 40.5319 136.966 40.8771 137.376 41.4329C137.796 42.0032 137.958 42.7345 137.806 43.6164C137.759 43.8884 137.501 44.0706 137.229 44.0237C136.957 43.9766 136.774 43.7185 136.82 43.4465C136.934 42.7872 136.804 42.3425 136.571 42.0266C136.328 41.6967 135.928 41.4444 135.398 41.2707C134.33 40.9203 132.923 40.949 131.94 41.0979C131.668 41.1392 131.413 40.9517 131.371 40.6789C131.33 40.4061 131.518 40.1511 131.791 40.1096ZM107.907 35.7366C108.92 35.3989 110.473 35.0804 111.805 35.2756C112.475 35.3741 113.138 35.6101 113.637 36.0881C114.148 36.5784 114.433 37.2713 114.433 38.1663C114.433 38.4422 114.209 38.666 113.933 38.6663C113.657 38.6663 113.433 38.4423 113.433 38.1663C113.433 37.497 113.227 37.0814 112.944 36.8098C112.649 36.5263 112.211 36.3458 111.66 36.2649C110.548 36.1017 109.166 36.3707 108.224 36.6848C107.962 36.7721 107.678 36.6302 107.591 36.3684C107.504 36.1066 107.645 35.8239 107.907 35.7366Z" fill="black"/>
</svg>
