<svg width="212" height="269" viewBox="0 0 212 269" fill="none" xmlns="http://www.w3.org/2000/svg">
<path d="M179 129.5L150.5 114.5C151.167 112.167 153.1 107.1 153.5 107.5C154 108 180 116.5 184.5 121C186 122.5 181 128.667 179 129.5Z" fill="#0070E6"/>
<path d="M159.257 165.485L166.228 163.161L168.552 172.456L170.875 181.751L166.228 184.075L159.257 165.485Z" fill="#DA2525"/>
<path d="M103.488 142.247L96.5166 149.218L98.8403 163.161V181.75L122.077 184.074L133.696 179.427L138.343 151.542L133.696 149.218L103.488 142.247Z" fill="#FFD445" stroke="black"/>
<path d="M98.8395 181.75L47.7178 177.102V174.779L52.3652 144.57L91.8684 146.894L98.8395 160.836V181.75Z" fill="#0070E6"/>
<path d="M40.7467 107.392C61.1954 99.9562 60.111 116.687 57.0127 125.982L50.0417 144.571L45.3943 177.103H36.0994L33.7757 170.132V179.427L22.1571 186.398L12.8622 179.427L8.21481 170.132L10.5385 163.161L17.5097 149.219L10.5385 139.924L8.21481 125.982L3.56738 119.01C4.34195 115.912 7.28533 109.716 12.8622 109.716C18.4392 109.716 21.3824 111.265 22.157 112.039C19.8333 113.589 20.298 114.828 40.7467 107.392Z" fill="#FF8A7A"/>
<path d="M3.56918 253.786C-3.86671 251.927 2.02004 201.889 5.8929 177.103C26.3418 197.552 33.0028 185.623 33.7773 177.103C61.6619 180.201 118.825 186.398 124.402 186.398C129.979 186.398 136.021 172.456 138.344 165.484C143.766 166.259 155.075 167.808 156.934 167.808C159.258 167.808 166.229 186.398 166.229 193.369C166.229 198.946 161.582 214.282 159.258 221.254H133.697L138.344 228.225L119.755 249.138L129.05 263.08C125.177 263.855 116.966 265.869 115.107 267.728C112.784 270.052 12.864 256.109 3.56918 253.786Z" fill="#FFC15D"/>
<path d="M110.616 96.24C105.194 96.24 94.3503 95.3106 94.3503 91.5926C94.3503 86.9452 71.1131 86.9452 82.7317 66.0317C94.3503 45.1183 85.0552 47.442 85.0552 35.8234C85.0552 24.2048 92.0268 3.2914 110.616 0.967684C129.206 -1.35603 138.501 5.61512 140.824 7.93883C142.94 10.0549 148.91 17.9515 148.206 21.1008C148.772 20.7083 150.011 20.6647 152.443 21.8809C157.09 24.2046 161.738 28.8521 161.738 31.1758C164.062 33.4995 164.062 52.0892 161.738 56.7366C159.414 61.3841 168.709 70.6789 166.385 77.6501C164.062 84.6212 159.414 96.2398 152.443 93.9161C146.866 92.0571 140.824 93.1415 138.501 93.9161V79.9738C140.05 76.8755 143.613 70.6789 145.472 70.6789C147.331 70.6789 148.676 65.0315 151 62.7078C151.775 60.3841 154 55.5 151 51.5C150.7 51.1 149.5 49.7655 145.472 50.1763C143.622 50.3649 144.275 52.0892 143.5 52.0892C142.725 52.0892 140.824 53.4834 140.824 49.7655C140.824 46.0476 137.726 45.1181 136.177 45.1181C132.304 41.2452 125.023 32.57 126.882 28.8521C129.206 24.2046 96.6738 42.7944 92.0264 40.4706C88.3084 38.6117 92.0265 59.8349 94.3503 70.6789C96.6739 76.8755 103.18 89.2687 110.616 89.2687C118.41 89.2687 124.571 89.2687 127.727 87.8984C129.141 86.8489 129.818 86.3332 129.206 86.945C128.831 87.3201 128.334 87.6346 127.727 87.8984C123.77 90.8353 114.04 97.9521 110.616 96.24Z" fill="black" stroke="black"/>
<path d="M138.497 96.2402L140.821 100.888M140.821 100.888H143.144C143.919 101.662 145.468 104.141 145.468 107.859M119.907 124.125L124.555 117.154L140.821 100.888M145.468 107.859C145.468 112.506 133.85 124.125 133.85 126.449L124.555 117.154M145.468 107.859H152.439M119.907 124.125L110.612 107.859V98.564C108.289 100.888 103.641 106 103.641 107.859M119.907 124.125L115.26 117.154L103.641 124.125C103.641 119.477 103.641 109.718 103.641 107.859M119.907 124.125L117.584 133.42M103.641 107.859H98.9938M152.439 107.859C152.439 107.859 152.904 107.859 154.763 107.859C157.087 107.859 184.971 119.477 184.971 121.801C184.971 124.125 180.324 131.096 178 128.772C176.141 126.913 158.636 118.703 150.116 114.83L152.439 107.859ZM184.971 126.449C195.815 142.715 215.644 176.641 208.208 182.218C198.914 189.189 178 196.16 175.676 193.836C173.817 191.977 168.705 171.374 166.382 161.304M178 193.836L180.324 203.131M182.648 200.807C174.902 209.328 158.481 225.904 154.763 224.045C150.116 221.721 136.173 219.397 133.85 221.721C131.991 223.58 133.075 225.594 133.85 226.368C135.399 227.143 138.962 228.692 140.821 228.692C143.144 228.692 119.907 242.634 122.231 244.958C124.09 246.817 126.104 247.282 126.878 247.282L138.497 240.311M124.555 247.282C123.78 248.056 122.231 250.07 122.231 251.929C122.231 254.253 122.231 254.253 124.555 254.253C126.414 254.253 136.173 249.605 140.821 247.282M126.878 256.577C126.878 257.351 127.808 258.9 131.526 258.9C135.244 258.9 140.821 254.253 143.144 251.929M131.526 261.224C131.526 262.773 132.455 265.407 136.173 263.548C140.821 261.224 150.116 256.577 154.763 251.929C158.481 248.211 160.96 244.183 161.734 242.634M203.561 184.541C208.208 189.963 215.644 203.131 208.208 212.426C198.914 224.045 168.705 240.311 166.382 240.311M180.324 235.663L182.648 254.253M73.5302 121.801C73.7132 123.135 74.2399 124.125 75.7566 124.125C78.0803 124.125 103.641 114.83 101.317 112.506C99.4585 110.647 98.9938 108.633 98.9938 107.859H96.6701C88.9243 110.957 73.4329 117.618 73.4329 119.477C73.4329 120.284 73.4329 121.091 73.5302 121.801ZM73.5302 121.801L71.1092 124.125L68.7855 131.096M68.7855 131.096C63.2086 131.096 59.3366 140.698 59.3366 144.571M68.7855 131.096C70.3346 131.096 73.8976 131.096 75.7566 131.096C78.0803 131.096 80.25 130.629 82.5737 132.952C84.8975 135.276 87.2212 144.571 87.2212 146.895M98.9938 182.218C98.9938 180.669 98.9938 176.176 98.9938 170.599C98.9938 163.628 96.6701 154.333 94.3463 149.686C92.4874 145.968 67.2363 145.038 54.8432 145.038C53.294 145.038 52.5197 145.038 50.1957 147.362C48.5525 149.005 45.5483 175.247 47.872 177.57M19.9877 163.628C21.5369 163.628 25.5646 164.093 29.2826 165.952C33.93 168.275 33.93 170.599 33.93 172.923C33.93 174.782 32.3809 179.894 31.6063 182.218C29.2826 184.541 23.2409 187.795 17.664 182.218C10.6929 175.247 8.36914 175.247 8.36914 168.275C8.36914 161.304 17.5097 151.542 19.8334 151.542" stroke="black"/>
<path d="M31.6055 107.85C45.7224 107.85 57.167 118.774 57.167 132.249L57.1582 132.878C56.8084 146.062 45.5018 156.647 31.6055 156.647C17.7093 156.647 6.40353 146.062 6.05371 132.878L6.04492 132.249C6.04492 118.774 17.4888 107.85 31.6055 107.85ZM31.6055 108.85C17.9967 108.85 7.04492 119.37 7.04492 132.249C7.04528 145.128 17.9969 155.647 31.6055 155.647C45.2142 155.647 56.1666 145.128 56.167 132.249C56.167 119.369 45.2144 108.85 31.6055 108.85Z" fill="black"/>
<path d="M96.6715 149.685C98.2207 147.361 101.784 142.714 103.643 142.714C105.502 142.714 113.712 144.263 117.585 145.038C123.007 145.812 133.851 147.826 133.851 149.685M133.851 149.685C133.851 151.544 127.654 172.148 124.556 182.217L133.851 149.685ZM133.851 149.685L138.498 152.009C137.724 159.754 135.71 175.711 133.851 177.57M138.498 165.951C145.47 165.951 159.412 166.416 159.412 168.275M159.412 168.275C159.412 170.598 124.556 184.541 122.232 184.541M122.232 184.541L133.851 205.454C141.104 202.864 153.209 198.333 160.43 195.06C164.005 193.44 166.383 192.127 166.383 191.512C166.383 189.653 161.736 175.246 159.412 168.275M122.232 184.541C120.373 184.541 62.5904 179.893 33.9312 177.57M122.232 184.541C120.683 211.651 117.585 266.336 117.585 268.195M8.37034 175.246C7.59577 174.471 6.04662 173.387 6.04662 175.246C6.04662 177.57 1.39919 254.252 3.72291 256.576C6.04662 258.9 117.585 270.518 117.585 268.195M117.585 268.195L131.527 263.547V265.871M160.43 195.06V221.72" stroke="black"/>
<path d="M101.318 49.7619C100.136 47.5239 99.4592 56.726 101.318 56.7331C101.85 56.7351 102.5 52 101.318 49.7619Z" fill="black" stroke="black" stroke-width="0.8"/>
<path d="M123.058 50.1389C122.115 47.7778 121.199 57.103 123.058 57.1101C123.59 57.1121 124 52.5 123.058 50.1389Z" fill="black" stroke="black" stroke-width="0.8"/>
<path d="M96.6709 45.1167C98.22 43.5676 101.783 41.3988 103.642 45.1167M119.908 45.1164C122.232 42.7927 126.879 39.5395 126.879 45.1164M110.613 54.4113C107.515 57.5096 103.177 64.171 110.613 66.0299M108.289 73.0011L122.232 70.6774C121.457 74.5502 118.979 81.8312 115.261 79.9722" stroke="black" stroke-width="0.8"/>
<path d="M8.21702 128.303C-5.7252 116.684 5.89253 100.419 24.4828 112.037" stroke="black"/>
<path d="M39.0964 111.073C49.1252 95.946 70.9588 112.038 54.6915 128.309" stroke="black"/>
<circle cx="26.8042" cy="137.599" r="2.32372" fill="black"/>
<circle cx="36.1001" cy="137.599" r="2.32372" fill="black"/>
<path d="M26.8047 144.57H36.0996" stroke="black"/>
<path d="M34.749 211.74L38.3289 211.911L38.2287 214.02L31.9158 213.72L32.4489 202.501L35.1818 202.631L34.749 211.74ZM44.065 214.426C43.1913 214.384 42.4117 214.16 41.7262 213.754C41.0514 213.348 40.528 212.789 40.1561 212.077C39.7947 211.366 39.6361 210.547 39.6802 209.62C39.7237 208.704 39.9644 207.909 40.4021 207.236C40.8404 206.552 41.4201 206.04 42.141 205.7C42.8619 205.361 43.6592 205.212 44.5329 205.253C45.4066 205.295 46.1862 205.519 46.8716 205.925C47.5571 206.332 48.0856 206.896 48.4571 207.618C48.829 208.33 48.9932 209.144 48.9497 210.061C48.9062 210.977 48.6599 211.777 48.211 212.46C47.7732 213.134 47.1885 213.64 46.4569 213.979C45.736 214.318 44.9387 214.467 44.065 214.426ZM44.1774 212.06C44.6995 212.085 45.1508 211.914 45.5312 211.548C45.9224 211.182 46.1349 210.642 46.1688 209.928C46.2028 209.215 46.0477 208.657 45.7037 208.256C45.3703 207.856 44.9426 207.644 44.4205 207.619C43.8878 207.594 43.4365 207.764 43.0666 208.131C42.6973 208.487 42.4954 209.028 42.461 209.752C42.4271 210.466 42.5715 211.023 42.8942 211.423C43.2276 211.823 43.6553 212.035 44.1774 212.06ZM54.289 214.911C53.5112 214.875 52.8249 214.708 52.2303 214.413C51.6356 214.118 51.1734 213.733 50.8436 213.258C50.5142 212.773 50.3419 212.241 50.3267 211.664L53.0276 211.792C53.0449 212.103 53.1768 212.36 53.4234 212.564C53.67 212.768 53.9798 212.878 54.3527 212.896C54.6936 212.912 54.9577 212.861 55.1449 212.742C55.3433 212.612 55.4475 212.441 55.4577 212.228C55.4698 211.972 55.3455 211.779 55.0847 211.65C54.8244 211.509 54.3995 211.35 53.8099 211.173C53.1777 210.993 52.6523 210.813 52.2337 210.633C51.8156 210.442 51.4605 210.164 51.1682 209.798C50.8764 209.421 50.745 208.929 50.7738 208.321C50.7981 207.81 50.9587 207.353 51.2554 206.951C51.5633 206.538 51.9948 206.222 52.5499 206.003C53.1155 205.784 53.7766 205.693 54.5331 205.729C55.6518 205.782 56.5177 206.101 57.1306 206.685C57.7542 207.27 58.0922 208.023 58.1446 208.944L55.6194 208.824C55.5915 208.513 55.4646 208.261 55.2388 208.069C55.0237 207.877 54.7297 207.772 54.3567 207.755C54.0371 207.739 53.789 207.792 53.6125 207.911C53.4364 208.021 53.3433 208.182 53.3332 208.395C53.3211 208.65 53.4451 208.849 53.7054 208.989C53.9764 209.13 54.3965 209.278 54.9657 209.433C55.6182 209.635 56.1482 209.831 56.5556 210.022C56.9636 210.201 57.3132 210.485 57.6044 210.872C57.9068 211.25 58.0487 211.748 58.03 212.366C58.0052 212.888 57.8337 213.35 57.5157 213.751C57.2088 214.143 56.7727 214.442 56.2075 214.65C55.653 214.859 55.0135 214.946 54.289 214.911ZM65.1389 212.976L65.0288 215.294L63.6384 215.228C62.6475 215.181 61.8864 214.904 61.3552 214.398C60.8244 213.882 60.5851 213.075 60.6373 211.977L60.8059 208.429L59.7191 208.378L59.8269 206.108L60.9137 206.16L61.017 203.987L63.7499 204.116L63.6466 206.29L65.4366 206.375L65.3288 208.644L63.5388 208.559L63.3687 212.139C63.356 212.406 63.4108 212.601 63.5331 212.724C63.6554 212.847 63.8657 212.916 64.164 212.93L65.1389 212.976ZM79.4791 215.98L78.4881 214.924C77.4172 215.663 76.1625 215.999 74.7241 215.931C73.8611 215.89 73.1165 215.715 72.4904 215.408C71.8648 215.09 71.3884 214.667 71.061 214.139C70.7449 213.6 70.6033 212.985 70.6362 212.292C70.6696 211.589 70.8862 210.964 71.2859 210.417C71.6969 209.86 72.2892 209.418 73.0629 209.092C72.802 208.738 72.6204 208.404 72.5178 208.089C72.4158 207.764 72.3737 207.415 72.3914 207.042C72.4167 206.509 72.5783 206.031 72.876 205.607C73.1738 205.184 73.5896 204.862 74.1233 204.641C74.6682 204.411 75.3029 204.313 76.0274 204.347C76.7626 204.382 77.3795 204.545 77.8783 204.836C78.3771 205.126 78.7437 205.502 78.9781 205.961C79.2126 206.421 79.3065 206.917 79.2599 207.448L76.6868 207.326C76.7111 207.039 76.6469 206.817 76.4942 206.66C76.3526 206.493 76.1539 206.404 75.8982 206.392C75.6425 206.379 75.4259 206.444 75.2483 206.585C75.0708 206.726 74.9764 206.914 74.9653 207.148C74.9546 207.372 75.0127 207.61 75.1396 207.861C75.2771 208.113 75.4928 208.407 75.7866 208.741L78.3927 211.54C78.4165 211.488 78.4462 211.425 78.4817 211.352C78.5279 211.279 78.5745 211.196 78.6217 211.102L79.2609 210.123L81.9938 210.253L81.1606 211.607C80.843 212.222 80.4844 212.803 80.0847 213.35L82.6595 216.131L79.4791 215.98ZM74.9568 213.731C75.6706 213.765 76.3142 213.593 76.8875 213.214L74.509 210.682C73.7231 211.04 73.3142 211.555 73.2823 212.226C73.2631 212.631 73.4014 212.979 73.6972 213.271C74.0042 213.552 74.4241 213.706 74.9568 213.731ZM38.6135 226.821L38.5095 229.01L33.9386 228.793L33.8262 231.158L37.2464 231.321L37.1454 233.447L33.7252 233.284L33.5095 237.823L30.7766 237.693L31.3097 226.474L38.6135 226.821ZM44.0495 238.452C43.1759 238.41 42.3963 238.187 41.7108 237.78C41.036 237.374 40.5126 236.816 40.1406 236.104C39.7793 235.393 39.6207 234.573 39.6647 233.646C39.7082 232.73 39.9489 231.935 40.3867 231.262C40.825 230.578 41.4046 230.066 42.1255 229.727C42.8465 229.387 43.6438 229.238 44.5174 229.28C45.3911 229.321 46.1707 229.545 46.8562 229.952C47.5417 230.358 48.0701 230.922 48.4416 231.645C48.8136 232.357 48.9778 233.171 48.9342 234.087C48.8907 235.003 48.6445 235.803 48.1955 236.487C47.7577 237.16 47.173 237.666 46.4415 238.005C45.7205 238.345 44.9232 238.493 44.0495 238.452ZM44.1619 236.087C44.684 236.111 45.1353 235.941 45.5158 235.574C45.9069 235.208 46.1195 234.669 46.1534 233.955C46.1873 233.241 46.0323 232.684 45.6882 232.283C45.3548 231.883 44.9271 231.67 44.405 231.645C43.8723 231.62 43.421 231.791 43.0512 232.157C42.6819 232.514 42.48 233.054 42.4456 233.779C42.4116 234.492 42.556 235.049 42.8788 235.449C43.2121 235.849 43.6399 236.062 44.1619 236.087ZM59.8815 230.138L59.4577 239.056L56.7248 238.926L56.7825 237.712C56.4868 238.093 56.0934 238.394 55.6023 238.617C55.1223 238.829 54.5947 238.921 54.0193 238.894C53.3374 238.861 52.7425 238.684 52.2346 238.36C51.7272 238.027 51.3434 237.565 51.083 236.976C50.8227 236.387 50.711 235.704 50.748 234.926L50.9955 229.716L53.7125 229.845L53.4824 234.687C53.454 235.284 53.5865 235.755 53.8798 236.1C54.1731 236.445 54.5807 236.63 55.1028 236.655C55.6356 236.68 56.0643 236.535 56.3889 236.219C56.7136 235.904 56.8901 235.447 56.9185 234.851L57.1486 230.008L59.8815 230.138ZM67.7624 230.416C68.8066 230.466 69.6215 230.847 70.207 231.558C70.8037 232.259 71.074 233.201 71.0178 234.383L70.7702 239.594L68.0533 239.464L68.2834 234.622C68.3118 234.025 68.1793 233.554 67.886 233.209C67.5927 232.865 67.185 232.68 66.663 232.655C66.1409 232.63 65.7175 232.775 65.3928 233.091C65.0681 233.407 64.8916 233.863 64.8633 234.459L64.6332 239.302L61.9002 239.172L62.324 230.254L65.0569 230.384L65.0007 231.567C65.2965 231.186 65.6841 230.894 66.1635 230.693C66.6435 230.481 67.1764 230.389 67.7624 230.416ZM72.8181 235.206C72.8616 234.29 73.0703 233.493 73.4442 232.817C73.8287 232.141 74.3281 231.631 74.9425 231.286C75.5569 230.942 76.2317 230.787 76.9668 230.822C77.5528 230.85 78.0797 230.998 78.5476 231.265C79.026 231.534 79.3939 231.882 79.6512 232.311L79.8479 228.172L82.5808 228.301L82.0188 240.128L79.2859 239.998L79.3466 238.72C79.0707 239.134 78.6869 239.457 78.1953 239.69C77.7143 239.924 77.1595 240.025 76.5309 239.995C75.7957 239.961 75.1387 239.742 74.5597 239.341C73.9813 238.929 73.5327 238.369 73.214 237.659C72.9065 236.94 72.7745 236.122 72.8181 235.206ZM79.4978 235.539C79.5302 234.857 79.3639 234.31 78.9991 233.898C78.6449 233.486 78.1961 233.267 77.6528 233.241C77.1094 233.215 76.6365 233.39 76.2342 233.766C75.8431 234.132 75.6313 234.656 75.5989 235.338C75.5665 236.02 75.7271 236.572 76.0808 236.995C76.4457 237.407 76.8998 237.626 77.4432 237.652C77.9865 237.678 78.4541 237.503 78.8457 237.126C79.248 236.75 79.4654 236.221 79.4978 235.539Z" fill="black"/>
<path d="M59.337 153.865C57.478 153.865 58.5624 163.16 59.337 167.807C66.3081 167.033 81.1797 165.484 84.8977 165.484C89.5451 165.484 84.8977 160.836 84.8977 156.189C84.8977 151.541 61.6607 153.865 59.337 153.865Z" stroke="black"/>
<path d="M66.3076 144.571C66.3076 142.247 66.7724 137.6 68.6313 137.6C70.4903 137.6 74.0533 137.6 75.6025 137.6C77.9262 137.6 82.1089 139.459 80.2499 146.894" stroke="black"/>
</svg>
