<svg width="308" height="277" viewBox="0 0 308 277" fill="none" xmlns="http://www.w3.org/2000/svg">
<path d="M134.568 78.8698C132.568 93.6698 156.401 95.7031 168.568 94.8698V92.8696C154.568 92.0696 150.068 72.5363 149.567 62.8696C148.401 54.5363 147.067 38.1696 151.067 39.3696C156.067 40.8696 181.067 27.3696 186.067 27.3696C184.467 39.3696 195.067 45.3696 200.567 46.8696V54.3696C201.567 54.5363 204.467 54.2697 208.067 51.8698C212.567 48.87 212.067 51.8698 214.067 51.8698C216.067 51.8698 215.067 56.3696 215.567 60.3696C216.067 64.3696 211.067 64.8696 203.567 71.3696C197.567 76.5696 197.734 87.8696 198.567 92.8696C199.901 93.203 205.667 93.6696 218.067 92.8696C230.467 92.0696 226.567 73.8696 223.067 64.8696C224.234 62.0363 226.367 53.1696 225.567 40.3696C224.767 27.5696 210.567 19.703 203.567 17.3696C202.234 12.8697 196.267 3.26981 183.067 0.869811C166.567 -2.13019 151.067 13.8698 144.067 21.8698C138.467 28.2698 140.734 44.5365 142.567 51.8698C140.734 54.7031 136.568 64.0698 134.568 78.8698Z" fill="black" stroke="black"/>
<path d="M93.6344 113.713C91.3838 104.557 73.1913 116.074 64.3764 122.978L61.0005 141.508L67.1897 151.318C77.6925 148.593 98.9233 142.489 99.8236 139.873C100.949 136.603 96.4476 125.158 93.6344 113.713Z" fill="#FFFFAD"/>
<path d="M253.603 137.372C254.507 137.968 255.418 139.211 256.315 140.849C257.225 142.509 258.161 144.652 259.093 147.133C260.956 152.099 262.815 158.467 264.407 165.153C265.999 171.841 267.327 178.86 268.124 185.129C268.919 191.385 269.192 196.937 268.652 200.671L268.629 200.837L268.51 200.955C267.221 202.228 265.856 203.317 264.436 204.245H264.666V233.319H263.666V204.73C258.607 207.791 252.921 208.885 247.556 208.898C244.581 208.905 241.698 208.58 239.06 208.072V233.319H238.06V207.864C234.769 207.156 231.912 206.183 229.818 205.243L229.523 205.11V172.511H230.523V204.458C232.483 205.311 235.083 206.187 238.06 206.842V204.245H239.06V207.051C241.689 207.57 244.576 207.905 247.554 207.898C254.499 207.881 261.891 206.01 267.684 200.361C268.172 196.767 267.913 191.399 267.132 185.255C266.34 179.027 265.02 172.044 263.435 165.384C261.849 158.724 260 152.399 258.156 147.485C257.234 145.027 256.316 142.933 255.438 141.33C254.549 139.706 253.737 138.658 253.053 138.208L253.328 137.79L253.603 137.372ZM136.587 157.727C135.187 160.793 133.495 166.136 133.002 172.149C132.509 178.163 133.218 184.798 136.562 190.494C140.034 196.407 141.465 203.94 141.858 210.915C142.252 217.897 141.609 224.375 140.891 228.219L139.908 228.036C140.612 224.266 141.249 217.868 140.86 210.971C140.471 204.067 139.057 196.716 135.7 191C132.216 185.066 131.503 178.202 132.006 172.067C132.509 165.931 134.232 160.475 135.677 157.311L136.587 157.727ZM161.508 5.47624C174.427 -1.22954 184.38 -0.564667 191.572 3.08561C198.524 6.61371 202.816 12.8901 204.719 17.7673C205.933 17.9587 207.246 18.45 208.58 19.1364C210.966 20.3638 213.537 22.2759 215.959 24.5016C218.382 26.7292 220.673 29.2853 222.494 31.8132C224.31 34.3336 225.684 36.8593 226.24 39.0231C227.336 43.2876 226.784 49.092 225.983 54.0241C225.581 56.5017 225.112 58.783 224.745 60.5671C224.561 61.461 224.404 62.2257 224.293 62.8317C224.179 63.4526 224.122 63.8619 224.122 64.068C224.122 64.5215 224.241 65.1125 224.444 66.0368C224.644 66.9429 224.913 68.1231 225.182 69.694C225.72 72.8394 226.256 77.5407 226.256 84.8346C226.256 87.8968 225.029 90.1436 223.032 91.7233C221.058 93.2853 218.36 94.175 215.429 94.6227C209.814 95.48 203.158 94.7419 198.516 93.7604V95.0973L202.388 102.635C202.717 102.346 203.028 102.076 203.32 101.828C204.147 101.126 204.834 100.584 205.323 100.268C205.555 100.119 205.796 99.9841 206.007 99.9333C206.103 99.9102 206.308 99.8746 206.509 99.9889C206.756 100.13 206.807 100.377 206.808 100.526C206.808 100.655 206.856 100.819 206.992 101.029C207.129 101.24 207.335 101.472 207.609 101.731C208.171 102.261 208.897 102.801 209.694 103.465C211.217 104.733 212.941 106.403 212.941 108.715C212.941 108.719 212.94 108.724 212.94 108.729L213.273 108.331L218.818 112.964L221.047 110.607L221.308 110.332L221.644 110.509C227.287 113.494 235.546 118.085 241.975 122.158C245.184 124.191 247.959 126.109 249.725 127.64C250.598 128.397 251.27 129.099 251.607 129.701C251.775 130 251.898 130.341 251.854 130.686C251.806 131.07 251.567 131.35 251.243 131.521C247.99 133.242 245.797 136.568 245.119 138.003L244.869 138.531L244.386 138.202L214.786 118.074L214.301 117.744L214.704 117.317L218.13 113.692L212.873 109.299C212.764 109.824 212.531 110.433 212.223 111.081C211.782 112.006 211.155 113.086 210.405 114.251C208.904 116.582 206.885 119.295 204.802 121.872C202.718 124.449 200.562 126.901 198.783 128.714C197.895 129.618 197.093 130.372 196.436 130.903C196.108 131.168 195.805 131.386 195.539 131.541C195.293 131.683 195.003 131.817 194.724 131.817C194.412 131.817 194.036 131.717 193.646 131.576C193.245 131.43 192.781 131.221 192.274 130.965C191.261 130.455 190.049 129.743 188.784 128.927C186.448 127.421 183.898 125.543 182.046 123.894L175.776 133.588C173.216 147.232 172.375 167.168 173.059 185.147C173.401 194.154 174.126 202.657 175.205 209.62C176.288 216.609 177.718 221.968 179.432 224.75L179.006 225.012L178.58 225.274C176.75 222.303 175.3 216.759 174.217 209.773C173.13 202.761 172.402 194.218 172.059 185.185C171.374 167.173 172.213 147.162 174.791 133.416C174.058 130.467 173.089 126.525 172.119 122.507C170.17 123.97 168.064 125.383 166.195 126.295C165.165 126.797 164.178 127.163 163.311 127.288C162.451 127.412 161.617 127.309 161.015 126.751C160.335 126.12 159.943 125.004 159.697 123.757C159.446 122.481 159.328 120.951 159.28 119.378C159.185 116.253 159.366 112.804 159.366 110.8C159.366 109.598 160.004 108.455 160.865 107.483C161.733 106.503 162.878 105.636 164.01 104.974C165.137 104.316 166.29 103.839 167.188 103.664C167.522 103.599 167.858 103.568 168.158 103.607V95.7204C165.976 96.0674 162.436 96.2699 158.789 95.7653C155.182 95.2663 151.399 94.0661 148.734 91.5622C140.036 91.4647 133.498 85.058 133.498 76.528C133.498 74.3768 134.049 71.8543 134.854 69.2731C135.662 66.6855 136.737 64.0058 137.807 61.5329C138.875 59.0642 139.948 56.7771 140.743 55.0046C141.143 54.1133 141.471 53.3536 141.699 52.7555C141.813 52.4565 141.899 52.2049 141.956 52.0026C142.015 51.7919 142.033 51.6666 142.033 51.6071C142.033 51.556 142.005 51.396 141.915 51.0661C141.831 50.7574 141.711 50.3607 141.566 49.8717C141.278 48.8996 140.899 47.597 140.545 46.0397C139.838 42.9257 139.229 38.7815 139.635 34.1706C140.45 24.9127 145.355 13.8606 161.508 5.47624ZM44.2158 113.435C47.5115 112.366 52.7716 112.218 56.5088 113.207C58.3584 113.696 59.9768 114.501 60.7168 115.747C61.4986 117.064 61.1917 118.651 59.7383 120.41C60.4868 120.534 61.1952 120.691 61.8447 120.886C63.0399 121.246 64.0795 121.748 64.7959 122.445C65.5315 123.161 65.9136 124.075 65.7861 125.174C65.6721 126.154 65.1539 127.237 64.2217 128.44C64.3674 128.566 64.5094 128.697 64.6435 128.836C66.2566 130.507 66.8944 133.021 66.2617 136.531C67.6286 137.496 68.619 138.311 69.2734 138.999C69.6212 139.364 69.8874 139.708 70.0644 140.03C70.2401 140.35 70.3469 140.683 70.3213 141.014C70.264 141.75 69.627 142.108 68.997 142.274C68.3394 142.448 67.4535 142.489 66.4433 142.445C62.396 142.269 55.6233 140.695 50.6455 139.311L50.9072 138.349C55.8874 139.734 62.5591 141.277 66.4785 141.447C67.4593 141.49 68.2232 141.443 68.7324 141.308C69.269 141.166 69.3172 140.993 69.3222 140.928C69.3275 140.859 69.309 140.725 69.1875 140.504C69.067 140.284 68.8628 140.012 68.5498 139.683C67.923 139.025 66.9122 138.192 65.4297 137.162C59.5718 133.09 54.2053 132.599 49.8808 133.605C45.6607 134.587 42.4042 137.003 40.6445 138.981C41.3872 142.804 43.5377 147.04 46.8496 150.108C50.2172 153.228 54.7734 155.132 60.291 154.192L60.7363 154.116L60.8603 154.55C63.6769 164.363 67.3696 179.081 72.6875 191.219C75.3462 197.288 78.3957 202.671 81.914 206.461C85.4276 210.244 89.364 212.394 93.8261 212.125C112.273 211.01 120.418 199.482 120.998 191.448C121.227 188.273 119.744 183.906 117.297 179.848C116.834 179.081 116.34 178.329 115.819 177.602C115.185 176.991 114.55 176.388 113.918 175.799C110.74 172.834 107.643 170.145 105.633 168.091C104.633 167.069 103.85 166.154 103.462 165.404C103.27 165.032 103.137 164.63 103.187 164.241C103.244 163.806 103.516 163.491 103.904 163.301C104.247 163.135 104.782 162.7 105.494 161.981C106.192 161.277 107.021 160.341 107.946 159.226C109.797 156.997 112.017 154.073 114.335 150.892C118.97 144.532 123.981 137.166 127.179 132.325L128.013 132.876C124.809 137.725 119.79 145.105 115.144 151.481C112.821 154.669 110.586 157.612 108.716 159.865C107.781 160.991 106.932 161.951 106.205 162.685C105.492 163.405 104.852 163.952 104.342 164.201C104.198 164.271 104.185 164.328 104.18 164.371C104.168 164.46 104.193 164.64 104.351 164.945C104.663 165.549 105.348 166.37 106.348 167.392C106.998 168.057 107.761 168.783 108.604 169.567L108.62 169.539C111.489 171.031 114.276 173.766 116.555 176.922C119.13 179.407 121.683 182.073 123.727 184.767C126.214 188.048 128.005 191.446 128.092 194.66C128.335 194.824 128.624 194.858 128.989 194.762C129.457 194.64 130.005 194.315 130.588 193.84C131.746 192.895 132.888 191.483 133.585 190.465L133.998 190.749L134.41 191.031C133.685 192.09 132.48 193.586 131.22 194.614C130.593 195.125 129.913 195.553 129.243 195.729C128.547 195.912 127.828 195.825 127.247 195.26L127.096 195.113V194.902C127.096 191.957 125.448 188.693 122.93 185.372C121.753 183.82 120.399 182.274 118.964 180.76C120.983 184.496 122.219 188.447 121.997 191.529C121.377 200.125 112.77 211.981 93.8955 213.122C89.0278 213.416 84.8162 211.052 81.1806 207.136C77.5496 203.226 74.4474 197.722 71.7705 191.612C66.4949 179.57 62.8049 165.007 60.0175 155.245C54.3484 156.069 49.6423 154.052 46.1709 150.837C42.6205 147.548 40.3493 142.998 39.6142 138.914L39.6064 138.87V138.826L39.6054 130.594C39.2439 129.5 38.9283 127.807 39.1299 126.149C39.3195 124.59 39.9784 123.008 41.5351 122.037C40.8874 120.947 40.286 119.409 40.3535 117.881C40.3929 116.989 40.6614 116.093 41.2871 115.304C41.9115 114.518 42.8647 113.874 44.2158 113.435ZM87.1718 82.2692C87.2834 82.2904 87.3752 82.3388 87.4414 82.3835C87.5305 82.4438 87.6047 82.5193 87.665 82.5905C87.7857 82.7328 87.9019 82.921 88.0136 83.1315C88.2398 83.5576 88.4951 84.1644 88.7724 84.9128C89.3292 86.4152 90.0007 88.5555 90.7353 91.1227C92.2056 96.2608 93.9413 103.149 95.5429 110.164C97.1446 117.178 98.614 124.327 99.5498 129.987C100.017 132.815 100.353 135.281 100.505 137.175C100.581 138.122 100.612 138.937 100.588 139.588C100.565 140.214 100.49 140.768 100.302 141.135C99.9638 141.793 99.182 142.406 98.205 142.977C97.2027 143.563 95.9002 144.158 94.4052 144.747C91.413 145.925 87.5914 147.098 83.7158 148.138C82.2383 148.535 80.7503 148.912 79.2959 149.263C82.3078 152.138 86.3578 157.004 90.205 162.223C94.2456 167.705 98.0936 173.614 100.305 178.069L99.4072 178.506C97.2338 174.127 93.4259 168.27 89.4004 162.809C85.373 157.346 81.1571 152.318 78.1797 149.58L78.2373 149.516C76.2549 149.984 74.3549 150.399 72.6484 150.742C69.4258 151.389 66.8409 151.79 65.7148 151.79C63.6724 151.79 62.4871 150.122 61.831 148.348C61.1637 146.544 60.9472 144.404 60.9472 142.983H61.9472C61.9472 144.331 62.1566 146.345 62.7695 148.002C63.3938 149.689 64.3431 150.79 65.7148 150.79C66.7234 150.79 69.2069 150.412 72.4511 149.761C75.6748 149.115 79.599 148.208 83.456 147.173C87.3154 146.136 91.0967 144.974 94.039 143.816C95.5112 143.237 96.7606 142.663 97.7002 142.114C98.6645 141.55 99.2164 141.059 99.4121 140.678C99.4902 140.526 99.566 140.171 99.5888 139.55C99.6107 138.954 99.583 138.183 99.5088 137.256C99.3603 135.402 99.0293 132.968 98.5634 130.15C97.6321 124.518 96.1675 117.39 94.5683 110.386C92.9692 103.383 91.2372 96.5127 89.7734 91.3971C89.0411 88.8379 88.3784 86.7269 87.8349 85.2604C87.5623 84.5246 87.3255 83.9671 87.1308 83.6003C87.0455 83.4395 86.974 83.3328 86.9228 83.2663C86.6105 83.2887 85.9413 83.3734 84.958 83.5241C83.8253 83.6977 82.3202 83.9487 80.5722 84.2565C77.076 84.8722 72.6117 85.7152 68.2158 86.6227C63.8183 87.5305 59.4956 88.5017 56.2763 89.3737C54.6643 89.8104 53.3431 90.219 52.4316 90.5778C51.9731 90.7583 51.6397 90.9176 51.4297 91.0514C51.3571 91.0977 51.3092 91.1353 51.2793 91.1618C51.2937 91.7027 51.418 92.9138 51.6074 94.5114C51.8071 96.1957 52.073 98.2701 52.3398 100.347C52.6064 102.423 52.8738 104.502 53.0742 106.192C53.2726 107.865 53.4111 109.199 53.4111 109.756H52.4111C52.4111 109.273 52.2827 108.011 52.081 106.31C51.8813 104.626 51.6154 102.552 51.3486 100.474C51.082 98.3984 50.8146 96.3188 50.6142 94.6286C50.4158 92.9549 50.2773 91.6211 50.2773 91.0651C50.2774 90.826 50.3985 90.6423 50.5019 90.526C50.6095 90.4052 50.7482 90.2997 50.8925 90.2077C51.1836 90.0223 51.5868 89.8355 52.0654 89.6471C53.0293 89.2678 54.3929 88.8482 56.0146 88.4089C59.2634 87.5288 63.6097 86.5524 68.0136 85.6432C72.4197 84.7337 76.8931 83.8894 80.3984 83.2721C82.1508 82.9635 83.664 82.711 84.8066 82.5358C85.9264 82.3642 86.7395 82.2585 87.0537 82.2585L87.1718 82.2692ZM57.6084 127.297C52.2878 127.055 45.434 128.964 40.6064 130.866L40.6074 137.567C42.5792 135.637 45.715 133.547 49.6455 132.632C54.0845 131.6 59.5061 132.074 65.3515 135.909C65.8185 132.839 65.1793 130.823 63.9258 129.524C62.5511 128.1 60.3289 127.42 57.6084 127.297ZM151.893 111.628L155.461 112.539L155.837 112.635V116.517L155.635 116.667L133.597 133.002L133.553 133.034L133.502 133.056L133.299 132.599C133.5 133.054 133.502 133.057 133.501 133.057H133.5L133.497 133.058C133.495 133.059 133.493 133.06 133.491 133.061C133.487 133.063 133.483 133.065 133.478 133.067C133.467 133.071 133.454 133.076 133.438 133.082C133.408 133.092 133.367 133.105 133.317 133.118C133.219 133.143 133.083 133.167 132.915 133.176C132.576 133.195 132.112 133.149 131.546 132.926C130.417 132.483 128.919 131.355 127.18 128.721L127.046 128.519L127.122 128.29C127.584 126.89 128.793 125.202 130.43 123.47C132.079 121.726 134.206 119.893 136.564 118.204C141.264 114.838 146.97 111.984 151.729 111.614L151.812 111.607L151.893 111.628ZM191.12 3.97721C184.264 0.497847 174.655 -0.221871 161.969 6.36295C146.115 14.5919 141.416 25.3455 140.631 34.2585C140.237 38.7328 140.827 42.7669 141.52 45.818C141.867 47.3429 142.239 48.621 142.525 49.5876C142.668 50.0674 142.792 50.4805 142.88 50.8034C142.962 51.1035 143.033 51.398 143.033 51.6071C143.033 51.807 142.985 52.0391 142.919 52.2731C142.851 52.5159 142.753 52.7987 142.634 53.112C142.395 53.7387 142.057 54.5206 141.656 55.4137C140.851 57.2105 139.79 59.4669 138.725 61.9303C137.661 64.3893 136.601 67.032 135.809 69.571C135.014 72.1161 134.498 74.526 134.498 76.528C134.498 84.5459 140.663 90.5649 148.936 90.5651H149.139L149.284 90.7067C151.734 93.091 155.345 94.2795 158.927 94.7751C162.499 95.2693 165.97 95.0643 168.061 94.7253L168.158 95.3258V92.6188H169.158V104.635L169.176 104.856C169.188 104.961 169.208 105.097 169.235 105.267C169.288 105.595 169.367 106.02 169.469 106.53C169.671 107.549 169.962 108.894 170.313 110.457C171.016 113.581 171.957 117.566 172.912 121.532C173.833 125.355 174.766 129.16 175.51 132.16L181.526 122.857L181.555 122.814L181.591 122.777C185.653 118.666 191.748 112.6 196.828 107.766C198.584 106.096 200.222 104.57 201.615 103.321L197.57 95.4469L197.516 95.3395V80.6813C197.516 78.9056 198.267 76.7457 199.162 74.8122C200.064 72.8633 201.145 71.0738 201.87 70.0153L201.945 69.9059L202.064 69.8483C203.48 69.1594 205.712 68.0212 207.8 66.8503C209.91 65.6667 211.805 64.4863 212.603 63.7096C213.576 62.7635 214.601 60.7989 214.856 58.5592C215.11 56.3411 214.603 53.9114 212.603 51.9655L212.545 51.9089L212.508 51.8356C212.196 51.2298 211.623 50.9493 210.74 50.9645C209.836 50.9803 208.694 51.3136 207.444 51.8581C204.955 52.9425 202.217 54.7839 200.456 56.1549L199.649 56.7839V47.943C194.557 47.7465 191.018 44.5566 188.679 40.7048C186.266 36.7332 185.076 31.9857 184.715 28.82L185.709 28.7067C186.059 31.771 187.215 36.3692 189.533 40.1852C191.848 43.9961 195.269 46.9537 200.149 46.9538H200.649V54.7565C202.418 53.4551 204.811 51.9142 207.045 50.9411C208.337 50.3782 209.623 49.9845 210.724 49.9655C211.817 49.9467 212.802 50.3061 213.353 51.3024C215.577 53.501 216.128 56.2375 215.85 58.6725C215.572 61.1054 214.462 63.2949 213.301 64.4255C212.392 65.3101 210.375 66.5526 208.289 67.7223C206.239 68.8718 204.056 69.9869 202.623 70.6872C201.926 71.7177 200.915 73.4042 200.069 75.2321C199.186 77.1404 198.516 79.1343 198.516 80.6813V92.737C203.1 93.7268 209.744 94.4797 215.278 93.6344C218.126 93.1995 220.63 92.3493 222.412 90.9391C224.172 89.5466 225.256 87.5871 225.256 84.8346C225.256 77.592 224.725 72.9476 224.196 69.863C223.932 68.3193 223.668 67.1624 223.468 66.2516C223.271 65.3595 223.122 64.6527 223.122 64.068C223.122 63.755 223.199 63.255 223.31 62.651C223.423 62.0323 223.583 61.2553 223.766 60.3649C224.132 58.5798 224.598 56.3181 224.996 53.8639C225.796 48.9318 226.31 43.3134 225.271 39.2712C224.76 37.2816 223.467 34.8745 221.683 32.3981C219.903 29.9292 217.66 27.4232 215.282 25.238C212.903 23.0507 210.405 21.1989 208.123 20.0251C205.815 18.8376 203.838 18.4008 202.437 18.8551L202.129 17.904C202.591 17.7539 203.086 17.6825 203.606 17.6794C201.688 13.0458 197.592 7.26199 191.12 3.97721ZM205.865 101.109C205.435 101.387 204.789 101.891 203.967 102.59C202.329 103.98 200.053 106.078 197.517 108.491C192.597 113.171 186.721 119.014 182.669 123.109C184.473 124.721 186.999 126.587 189.326 128.087C190.573 128.89 191.753 129.583 192.725 130.073C193.21 130.318 193.637 130.508 193.988 130.635C194.352 130.768 194.593 130.817 194.724 130.817C194.724 130.817 194.816 130.804 195.037 130.676C195.241 130.558 195.499 130.374 195.807 130.126C196.421 129.629 197.194 128.906 198.07 128.013C199.821 126.23 201.955 123.802 204.024 121.243C206.094 118.683 208.089 116.001 209.564 113.71C210.302 112.563 210.904 111.523 211.319 110.651C211.745 109.758 211.941 109.107 211.941 108.715C211.941 106.917 210.599 105.519 209.055 104.234C208.319 103.622 207.512 103.015 206.923 102.459C206.622 102.175 206.35 101.879 206.151 101.571C206.053 101.418 205.968 101.255 205.907 101.084C205.894 101.092 205.879 101.1 205.865 101.109ZM57.6718 121.156C54.78 120.9 51.4805 121.027 48.6367 121.349C47.2163 121.51 45.9163 121.719 44.8437 121.95C43.7611 122.183 42.9417 122.432 42.4638 122.665C40.9578 123.398 40.3082 124.771 40.125 126.278C39.9695 127.557 40.1614 128.884 40.4277 129.86C45.2926 127.965 52.1888 126.051 57.6455 126.299C59.8367 126.398 61.8535 126.852 63.414 127.843C64.2955 126.71 64.7052 125.788 64.791 125.05C64.8799 124.284 64.6293 123.672 64.0986 123.156C63.548 122.62 62.6853 122.18 61.5634 121.842C60.4485 121.507 59.1178 121.284 57.6718 121.156ZM168.129 104.619C168.009 104.581 167.765 104.57 167.38 104.645C166.629 104.791 165.585 105.213 164.515 105.839C163.448 106.461 162.395 107.265 161.614 108.146C160.827 109.036 160.366 109.949 160.366 110.8C160.366 112.906 160.184 116.221 160.279 119.347C160.327 120.9 160.443 122.367 160.679 123.564C160.92 124.789 161.267 125.62 161.694 126.017C161.978 126.28 162.446 126.402 163.169 126.298C163.887 126.194 164.767 125.879 165.757 125.396C167.651 124.472 169.838 122.987 171.862 121.447C170.933 117.585 170.023 113.724 169.338 110.675C168.986 109.11 168.693 107.756 168.488 106.725C168.386 106.21 168.304 105.772 168.248 105.427C168.194 105.095 168.158 104.814 168.158 104.635C168.158 104.634 168.157 104.632 168.157 104.631C168.15 104.627 168.141 104.623 168.129 104.619ZM56.2597 114.172C52.702 113.23 47.6398 113.377 44.5342 114.384C43.3254 114.777 42.5532 115.325 42.0752 115.927C41.5986 116.528 41.3862 117.216 41.3545 117.933C41.2972 119.232 41.8343 120.606 42.4306 121.59C42.9992 121.369 43.7531 121.162 44.623 120.974C45.7342 120.735 47.0689 120.521 48.5156 120.357C51.4064 120.03 54.7758 119.898 57.7519 120.161C58.3908 120.217 59.0138 120.295 59.6123 120.39L59.3125 120.14L58.9267 119.818C60.2904 118.189 60.3314 117.053 59.8554 116.251C59.3299 115.365 58.0574 114.647 56.2597 114.172ZM149.434 41.2546C148.724 52.9941 149.904 69.2869 155.671 80.1354C158.547 85.5462 162.535 89.5493 167.95 91.0114C173.371 92.4748 180.337 91.4237 189.235 86.4753L189.478 86.9118L189.722 87.3493C180.696 92.3685 173.454 93.5326 167.689 91.9762C161.919 90.4183 157.744 86.1662 154.788 80.6051C148.89 69.5098 147.723 52.9904 148.436 41.194L149.434 41.2546ZM179.36 71.0592C179.634 70.9784 179.896 71.0533 180.09 71.2253C180.256 71.3735 180.355 71.5768 180.417 71.7585C180.544 72.1298 180.595 72.6344 180.586 73.1852C180.577 73.7465 180.506 74.3946 180.367 75.071C180.09 76.4173 179.533 77.9251 178.603 79.1081C177.665 80.3027 176.329 81.1813 174.542 81.1813V80.1813C175.955 80.1813 177.021 79.5024 177.816 78.4909C178.621 77.4674 179.131 76.1192 179.388 74.8698C179.515 74.2485 179.578 73.6628 179.586 73.1696C179.593 72.7429 179.554 72.4117 179.499 72.1911C179.429 72.2882 179.347 72.4231 179.255 72.6032C178.754 73.5779 177.844 74.231 176.776 74.6618C175.708 75.0926 174.439 75.3204 173.14 75.4176C170.54 75.6122 167.719 75.2939 165.911 74.9421L166.007 74.4518L166.103 73.9606C167.851 74.3009 170.579 74.6056 173.064 74.4196C174.308 74.3265 175.466 74.1129 176.402 73.735C177.34 73.3568 178.012 72.8327 178.365 72.1462C178.508 71.8675 178.654 71.6367 178.803 71.4606C178.944 71.2929 179.128 71.128 179.36 71.0592ZM57.5752 72.07L57.1787 72.3747L56.7832 72.6803L50.3808 64.3737L51.1738 63.7624L57.5752 72.07ZM170.649 56.0905C169.595 57.2875 168.437 58.7578 167.452 60.2594C166.463 61.7679 165.669 63.2789 165.315 64.5631C164.956 65.869 165.094 66.7648 165.683 67.2799C166.314 67.8323 167.654 68.1392 170.194 67.7272L170.274 68.2204L170.354 68.7145C167.774 69.133 166.02 68.9036 165.024 68.0329C163.986 67.1246 163.964 65.7094 164.352 64.2985C164.745 62.8659 165.604 61.252 166.615 59.7106C167.631 58.1625 168.82 56.6559 169.899 55.4303L170.649 56.0905ZM95.5879 57.8376L95.9746 58.1549L87.4394 68.5387L86.666 67.904L95.2021 57.5202L95.5879 57.8376ZM208.685 58.3376C208.458 58.3377 208.144 58.4826 207.75 58.8737C207.369 59.2527 206.98 59.796 206.608 60.4274C205.866 61.6875 205.238 63.2125 204.89 64.2301L203.944 63.9059C204.307 62.8468 204.96 61.2553 205.747 59.9196C206.139 59.2537 206.578 58.6291 207.045 58.1647C207.5 57.7124 208.058 57.3377 208.685 57.3376V58.3376ZM158.182 53.2458C158.388 53.134 158.581 53.1992 158.671 53.2487C158.752 53.2936 158.803 53.3497 158.822 53.3727C158.847 53.4019 158.866 53.4301 158.878 53.4499C158.922 53.521 158.961 53.6111 158.993 53.6891C159.062 53.8595 159.147 54.1068 159.234 54.3991C159.411 54.9866 159.614 55.7969 159.745 56.6198C159.874 57.4308 159.943 58.305 159.82 58.9967C159.759 59.3424 159.642 59.6928 159.415 59.9645C159.171 60.2569 158.828 60.4244 158.414 60.4245C158.091 60.4244 157.8 60.3217 157.566 60.1178C157.342 59.922 157.204 59.662 157.118 59.3962C156.951 58.875 156.946 58.2071 157.01 57.5397C157.139 56.189 157.578 54.5928 157.939 53.5368C157.955 53.4902 158.012 53.3379 158.182 53.2458ZM180.711 51.1589C180.917 51.0469 181.11 51.1123 181.2 51.1618C181.281 51.2066 181.332 51.2627 181.352 51.2858C181.376 51.3149 181.395 51.3432 181.407 51.363C181.452 51.4341 181.491 51.5242 181.522 51.6022C181.592 51.7726 181.676 52.0199 181.764 52.3122C181.94 52.8997 182.143 53.7099 182.274 54.5329C182.404 55.3439 182.472 56.2181 182.35 56.9098C182.288 57.2557 182.171 57.6058 181.944 57.8776C181.7 58.17 181.357 58.3376 180.943 58.3376C180.62 58.3375 180.329 58.2347 180.096 58.0309C179.872 57.8351 179.733 57.575 179.647 57.3092C179.48 56.7881 179.475 56.1201 179.539 55.4528C179.669 54.1021 180.107 52.5059 180.469 51.4499C180.484 51.4036 180.541 51.2512 180.711 51.1589ZM183.26 43.528C184.168 43.5662 185.084 43.8255 185.893 44.4333C186.701 45.0412 187.367 45.9715 187.819 47.2926L187.346 47.4548L186.873 47.6159C186.472 46.4456 185.91 45.6971 185.292 45.2321C184.674 44.7672 183.962 44.5583 183.218 44.527C181.706 44.4637 180.101 45.1361 179.083 45.7965L178.811 45.3776L178.538 44.9577C179.654 44.2338 181.465 43.4529 183.26 43.528ZM157.117 42.2936C157.972 41.9891 158.922 41.8864 159.909 42.1462C160.895 42.4058 161.876 43.0167 162.813 44.0671L162.063 44.7174C161.231 43.7852 160.415 43.3037 159.661 43.1051C158.907 42.9069 158.17 42.9793 157.471 43.2282C156.051 43.7337 154.835 44.9531 154.155 45.943L153.319 45.3786C154.064 44.2935 155.428 42.895 157.117 42.2936ZM185.456 27.1237C180.442 29.912 172.09 33.4542 164.355 36.0905C160.487 37.4091 156.759 38.5054 153.67 39.1686C152.126 39.5001 150.731 39.7262 149.553 39.8151C148.387 39.903 147.383 39.861 146.648 39.6227L146.957 38.6715C147.503 38.8484 148.348 38.9032 149.478 38.818C150.594 38.7338 151.941 38.5172 153.46 38.1911C156.497 37.5391 160.184 36.4558 164.032 35.1442C171.733 32.5195 180.025 29.0002 184.97 26.2507L185.456 27.1237Z" fill="black"/>
<path opacity="0.58" d="M230 173.239C223.214 179.429 165.34 165.871 137.252 158.318C131.823 161.413 132.727 175.45 133.859 182.082L230 200.318V173.239Z" fill="#FF383C"/>
<circle cx="151" cy="72.3184" r="9" fill="#FFB8B8"/>
<circle cx="193" cy="63.3184" r="9" fill="#FFB8B8"/>
<path d="M82.5674 66.3701V58.8701" stroke="black"/>
<path d="M64.9305 260.561L61.7525 266.637V270.319H60.4785V266.637L57.2865 260.561H58.7005L61.1085 265.503L63.5165 260.561H64.9305ZM70.0402 270.445C69.3216 270.445 68.6682 270.282 68.0802 269.955C67.5016 269.629 67.0442 269.167 66.7082 268.569C66.3816 267.963 66.2182 267.263 66.2182 266.469C66.2182 265.685 66.3862 264.995 66.7222 264.397C67.0676 263.791 67.5342 263.329 68.1222 263.011C68.7102 262.685 69.3682 262.521 70.0962 262.521C70.8242 262.521 71.4822 262.685 72.0702 263.011C72.6582 263.329 73.1202 263.786 73.4562 264.383C73.8016 264.981 73.9742 265.676 73.9742 266.469C73.9742 267.263 73.7969 267.963 73.4422 268.569C73.0969 269.167 72.6256 269.629 72.0282 269.955C71.4309 270.282 70.7682 270.445 70.0402 270.445ZM70.0402 269.325C70.4976 269.325 70.9269 269.218 71.3282 269.003C71.7296 268.789 72.0516 268.467 72.2942 268.037C72.5462 267.608 72.6722 267.085 72.6722 266.469C72.6722 265.853 72.5509 265.331 72.3082 264.901C72.0656 264.472 71.7482 264.155 71.3562 263.949C70.9642 263.735 70.5396 263.627 70.0822 263.627C69.6156 263.627 69.1862 263.735 68.7942 263.949C68.4116 264.155 68.1036 264.472 67.8702 264.901C67.6369 265.331 67.5202 265.853 67.5202 266.469C67.5202 267.095 67.6322 267.622 67.8562 268.051C68.0896 268.481 68.3976 268.803 68.7802 269.017C69.1629 269.223 69.5829 269.325 70.0402 269.325ZM82.8733 262.647V270.319H81.5993V269.185C81.3567 269.577 81.016 269.885 80.5773 270.109C80.148 270.324 79.672 270.431 79.1493 270.431C78.552 270.431 78.0153 270.31 77.5393 270.067C77.0633 269.815 76.6853 269.442 76.4053 268.947C76.1347 268.453 75.9993 267.851 75.9993 267.141V262.647H77.2593V266.973C77.2593 267.729 77.4507 268.313 77.8333 268.723C78.216 269.125 78.7387 269.325 79.4013 269.325C80.0827 269.325 80.6193 269.115 81.0113 268.695C81.4033 268.275 81.5993 267.664 81.5993 266.861V262.647H82.8733ZM92.7608 262.521C93.4235 262.521 94.0022 262.666 94.4968 262.955C95.0008 263.245 95.3742 263.609 95.6168 264.047V262.647H96.9048V270.487C96.9048 271.187 96.7555 271.808 96.4568 272.349C96.1582 272.9 95.7288 273.329 95.1688 273.637C94.6182 273.945 93.9742 274.099 93.2368 274.099C92.2288 274.099 91.3888 273.861 90.7168 273.385C90.0448 272.909 89.6482 272.261 89.5268 271.439H90.7868C90.9268 271.906 91.2162 272.279 91.6548 272.559C92.0935 272.849 92.6208 272.993 93.2368 272.993C93.9368 272.993 94.5062 272.774 94.9448 272.335C95.3928 271.897 95.6168 271.281 95.6168 270.487V268.877C95.3648 269.325 94.9915 269.699 94.4968 269.997C94.0022 270.296 93.4235 270.445 92.7608 270.445C92.0795 270.445 91.4588 270.277 90.8988 269.941C90.3482 269.605 89.9142 269.134 89.5968 268.527C89.2795 267.921 89.1208 267.23 89.1208 266.455C89.1208 265.671 89.2795 264.985 89.5968 264.397C89.9142 263.8 90.3482 263.338 90.8988 263.011C91.4588 262.685 92.0795 262.521 92.7608 262.521ZM95.6168 266.469C95.6168 265.891 95.5002 265.387 95.2668 264.957C95.0335 264.528 94.7162 264.201 94.3148 263.977C93.9228 263.744 93.4888 263.627 93.0128 263.627C92.5368 263.627 92.1028 263.739 91.7108 263.963C91.3188 264.187 91.0062 264.514 90.7728 264.943C90.5395 265.373 90.4228 265.877 90.4228 266.455C90.4228 267.043 90.5395 267.557 90.7728 267.995C91.0062 268.425 91.3188 268.756 91.7108 268.989C92.1028 269.213 92.5368 269.325 93.0128 269.325C93.4888 269.325 93.9228 269.213 94.3148 268.989C94.7162 268.756 95.0335 268.425 95.2668 267.995C95.5002 267.557 95.6168 267.048 95.6168 266.469ZM102.824 270.445C102.105 270.445 101.452 270.282 100.864 269.955C100.285 269.629 99.8278 269.167 99.4918 268.569C99.1651 267.963 99.0018 267.263 99.0018 266.469C99.0018 265.685 99.1698 264.995 99.5058 264.397C99.8511 263.791 100.318 263.329 100.906 263.011C101.494 262.685 102.152 262.521 102.88 262.521C103.608 262.521 104.266 262.685 104.854 263.011C105.442 263.329 105.904 263.786 106.24 264.383C106.585 264.981 106.758 265.676 106.758 266.469C106.758 267.263 106.58 267.963 106.226 268.569C105.88 269.167 105.409 269.629 104.812 269.955C104.214 270.282 103.552 270.445 102.824 270.445ZM102.824 269.325C103.281 269.325 103.71 269.218 104.112 269.003C104.513 268.789 104.835 268.467 105.078 268.037C105.33 267.608 105.456 267.085 105.456 266.469C105.456 265.853 105.334 265.331 105.092 264.901C104.849 264.472 104.532 264.155 104.14 263.949C103.748 263.735 103.323 263.627 102.866 263.627C102.399 263.627 101.97 263.735 101.578 263.949C101.195 264.155 100.887 264.472 100.654 264.901C100.42 265.331 100.304 265.853 100.304 266.469C100.304 267.095 100.416 267.622 100.64 268.051C100.873 268.481 101.181 268.803 101.564 269.017C101.946 269.223 102.366 269.325 102.824 269.325ZM110.407 263.697V268.219C110.407 268.593 110.486 268.859 110.645 269.017C110.804 269.167 111.079 269.241 111.471 269.241H112.409V270.319H111.261C110.552 270.319 110.02 270.156 109.665 269.829C109.31 269.503 109.133 268.966 109.133 268.219V263.697H108.139V262.647H109.133V260.715H110.407V262.647H112.409V263.697H110.407ZM122.263 262.507C123.196 262.507 123.952 262.792 124.531 263.361C125.11 263.921 125.399 264.733 125.399 265.797V270.319H124.139V265.979C124.139 265.214 123.948 264.631 123.565 264.229C123.182 263.819 122.66 263.613 121.997 263.613C121.325 263.613 120.788 263.823 120.387 264.243C119.995 264.663 119.799 265.275 119.799 266.077V270.319H118.525V262.647H119.799V263.739C120.051 263.347 120.392 263.044 120.821 262.829C121.26 262.615 121.74 262.507 122.263 262.507ZM131.246 270.445C130.527 270.445 129.874 270.282 129.286 269.955C128.707 269.629 128.25 269.167 127.914 268.569C127.587 267.963 127.424 267.263 127.424 266.469C127.424 265.685 127.592 264.995 127.928 264.397C128.273 263.791 128.74 263.329 129.328 263.011C129.916 262.685 130.574 262.521 131.302 262.521C132.03 262.521 132.688 262.685 133.276 263.011C133.864 263.329 134.326 263.786 134.662 264.383C135.007 264.981 135.18 265.676 135.18 266.469C135.18 267.263 135.003 267.963 134.648 268.569C134.303 269.167 133.831 269.629 133.234 269.955C132.637 270.282 131.974 270.445 131.246 270.445ZM131.246 269.325C131.703 269.325 132.133 269.218 132.534 269.003C132.935 268.789 133.257 268.467 133.5 268.037C133.752 267.608 133.878 267.085 133.878 266.469C133.878 265.853 133.757 265.331 133.514 264.901C133.271 264.472 132.954 264.155 132.562 263.949C132.17 263.735 131.745 263.627 131.288 263.627C130.821 263.627 130.392 263.735 130 263.949C129.617 264.155 129.309 264.472 129.076 264.901C128.843 265.331 128.726 265.853 128.726 266.469C128.726 267.095 128.838 267.622 129.062 268.051C129.295 268.481 129.603 268.803 129.986 269.017C130.369 269.223 130.789 269.325 131.246 269.325ZM145.165 262.507C146.099 262.507 146.855 262.792 147.433 263.361C148.012 263.921 148.301 264.733 148.301 265.797V270.319H147.041V265.979C147.041 265.214 146.85 264.631 146.467 264.229C146.085 263.819 145.562 263.613 144.899 263.613C144.227 263.613 143.691 263.823 143.289 264.243C142.897 264.663 142.701 265.275 142.701 266.077V270.319H141.427V262.647H142.701V263.739C142.953 263.347 143.294 263.044 143.723 262.829C144.162 262.615 144.643 262.507 145.165 262.507ZM154.149 270.445C153.43 270.445 152.777 270.282 152.189 269.955C151.61 269.629 151.153 269.167 150.817 268.569C150.49 267.963 150.327 267.263 150.327 266.469C150.327 265.685 150.495 264.995 150.831 264.397C151.176 263.791 151.643 263.329 152.231 263.011C152.819 262.685 153.477 262.521 154.205 262.521C154.933 262.521 155.591 262.685 156.179 263.011C156.767 263.329 157.229 263.786 157.565 264.383C157.91 264.981 158.083 265.676 158.083 266.469C158.083 267.263 157.905 267.963 157.551 268.569C157.205 269.167 156.734 269.629 156.137 269.955C155.539 270.282 154.877 270.445 154.149 270.445ZM154.149 269.325C154.606 269.325 155.035 269.218 155.437 269.003C155.838 268.789 156.16 268.467 156.403 268.037C156.655 267.608 156.781 267.085 156.781 266.469C156.781 265.853 156.659 265.331 156.417 264.901C156.174 264.472 155.857 264.155 155.465 263.949C155.073 263.735 154.648 263.627 154.191 263.627C153.724 263.627 153.295 263.735 152.903 263.949C152.52 264.155 152.212 264.472 151.979 264.901C151.745 265.331 151.629 265.853 151.629 266.469C151.629 267.095 151.741 267.622 151.965 268.051C152.198 268.481 152.506 268.803 152.889 269.017C153.271 269.223 153.691 269.325 154.149 269.325ZM161.732 263.697V268.219C161.732 268.593 161.811 268.859 161.97 269.017C162.128 269.167 162.404 269.241 162.796 269.241H163.734V270.319H162.586C161.876 270.319 161.344 270.156 160.99 269.829C160.635 269.503 160.458 268.966 160.458 268.219V263.697H159.464V262.647H160.458V260.715H161.732V262.647H163.734V263.697H161.732ZM166.355 261.401C166.113 261.401 165.907 261.317 165.739 261.149C165.571 260.981 165.487 260.776 165.487 260.533C165.487 260.291 165.571 260.085 165.739 259.917C165.907 259.749 166.113 259.665 166.355 259.665C166.589 259.665 166.785 259.749 166.943 259.917C167.111 260.085 167.195 260.291 167.195 260.533C167.195 260.776 167.111 260.981 166.943 261.149C166.785 261.317 166.589 261.401 166.355 261.401ZM166.971 262.647V270.319H165.697V262.647H166.971ZM172.685 263.697H171.075V270.319H169.801V263.697H168.807V262.647H169.801V262.101C169.801 261.243 170.02 260.617 170.459 260.225C170.907 259.824 171.621 259.623 172.601 259.623V260.687C172.041 260.687 171.644 260.799 171.411 261.023C171.187 261.238 171.075 261.597 171.075 262.101V262.647H172.685V263.697ZM175.248 261.401C175.005 261.401 174.8 261.317 174.632 261.149C174.464 260.981 174.38 260.776 174.38 260.533C174.38 260.291 174.464 260.085 174.632 259.917C174.8 259.749 175.005 259.665 175.248 259.665C175.481 259.665 175.677 259.749 175.836 259.917C176.004 260.085 176.088 260.291 176.088 260.533C176.088 260.776 176.004 260.981 175.836 261.149C175.677 261.317 175.481 261.401 175.248 261.401ZM175.864 262.647V270.319H174.59V262.647H175.864ZM177.979 266.469C177.979 265.676 178.138 264.985 178.455 264.397C178.773 263.8 179.211 263.338 179.771 263.011C180.341 262.685 180.989 262.521 181.717 262.521C182.66 262.521 183.435 262.75 184.041 263.207C184.657 263.665 185.063 264.299 185.259 265.111H183.887C183.757 264.645 183.5 264.276 183.117 264.005C182.744 263.735 182.277 263.599 181.717 263.599C180.989 263.599 180.401 263.851 179.953 264.355C179.505 264.85 179.281 265.555 179.281 266.469C179.281 267.393 179.505 268.107 179.953 268.611C180.401 269.115 180.989 269.367 181.717 269.367C182.277 269.367 182.744 269.237 183.117 268.975C183.491 268.714 183.747 268.341 183.887 267.855H185.259C185.054 268.639 184.643 269.269 184.027 269.745C183.411 270.212 182.641 270.445 181.717 270.445C180.989 270.445 180.341 270.282 179.771 269.955C179.211 269.629 178.773 269.167 178.455 268.569C178.138 267.972 177.979 267.272 177.979 266.469ZM186.903 266.455C186.903 265.671 187.062 264.985 187.379 264.397C187.697 263.8 188.131 263.338 188.681 263.011C189.241 262.685 189.862 262.521 190.543 262.521C191.215 262.521 191.799 262.666 192.293 262.955C192.788 263.245 193.157 263.609 193.399 264.047V262.647H194.687V270.319H193.399V268.891C193.147 269.339 192.769 269.713 192.265 270.011C191.771 270.301 191.192 270.445 190.529 270.445C189.848 270.445 189.232 270.277 188.681 269.941C188.131 269.605 187.697 269.134 187.379 268.527C187.062 267.921 186.903 267.23 186.903 266.455ZM193.399 266.469C193.399 265.891 193.283 265.387 193.049 264.957C192.816 264.528 192.499 264.201 192.097 263.977C191.705 263.744 191.271 263.627 190.795 263.627C190.319 263.627 189.885 263.739 189.493 263.963C189.101 264.187 188.789 264.514 188.555 264.943C188.322 265.373 188.205 265.877 188.205 266.455C188.205 267.043 188.322 267.557 188.555 267.995C188.789 268.425 189.101 268.756 189.493 268.989C189.885 269.213 190.319 269.325 190.795 269.325C191.271 269.325 191.705 269.213 192.097 268.989C192.499 268.756 192.816 268.425 193.049 267.995C193.283 267.557 193.399 267.048 193.399 266.469ZM198.814 263.697V268.219C198.814 268.593 198.893 268.859 199.052 269.017C199.211 269.167 199.486 269.241 199.878 269.241H200.816V270.319H199.668C198.959 270.319 198.427 270.156 198.072 269.829C197.717 269.503 197.54 268.966 197.54 268.219V263.697H196.546V262.647H197.54V260.715H198.814V262.647H200.816V263.697H198.814ZM203.438 261.401C203.195 261.401 202.99 261.317 202.822 261.149C202.654 260.981 202.57 260.776 202.57 260.533C202.57 260.291 202.654 260.085 202.822 259.917C202.99 259.749 203.195 259.665 203.438 259.665C203.671 259.665 203.867 259.749 204.026 259.917C204.194 260.085 204.278 260.291 204.278 260.533C204.278 260.776 204.194 260.981 204.026 261.149C203.867 261.317 203.671 261.401 203.438 261.401ZM204.054 262.647V270.319H202.78V262.647H204.054ZM209.991 270.445C209.272 270.445 208.619 270.282 208.031 269.955C207.452 269.629 206.995 269.167 206.659 268.569C206.332 267.963 206.169 267.263 206.169 266.469C206.169 265.685 206.337 264.995 206.673 264.397C207.018 263.791 207.485 263.329 208.073 263.011C208.661 262.685 209.319 262.521 210.047 262.521C210.775 262.521 211.433 262.685 212.021 263.011C212.609 263.329 213.071 263.786 213.407 264.383C213.752 264.981 213.925 265.676 213.925 266.469C213.925 267.263 213.748 267.963 213.393 268.569C213.048 269.167 212.576 269.629 211.979 269.955C211.382 270.282 210.719 270.445 209.991 270.445ZM209.991 269.325C210.448 269.325 210.878 269.218 211.279 269.003C211.68 268.789 212.002 268.467 212.245 268.037C212.497 267.608 212.623 267.085 212.623 266.469C212.623 265.853 212.502 265.331 212.259 264.901C212.016 264.472 211.699 264.155 211.307 263.949C210.915 263.735 210.49 263.627 210.033 263.627C209.566 263.627 209.137 263.735 208.745 263.949C208.362 264.155 208.054 264.472 207.821 264.901C207.588 265.331 207.471 265.853 207.471 266.469C207.471 267.095 207.583 267.622 207.807 268.051C208.04 268.481 208.348 268.803 208.731 269.017C209.114 269.223 209.534 269.325 209.991 269.325ZM219.758 262.507C220.691 262.507 221.447 262.792 222.026 263.361C222.605 263.921 222.894 264.733 222.894 265.797V270.319H221.634V265.979C221.634 265.214 221.443 264.631 221.06 264.229C220.677 263.819 220.155 263.613 219.492 263.613C218.82 263.613 218.283 263.823 217.882 264.243C217.49 264.663 217.294 265.275 217.294 266.077V270.319H216.02V262.647H217.294V263.739C217.546 263.347 217.887 263.044 218.316 262.829C218.755 262.615 219.235 262.507 219.758 262.507ZM236.156 262.647L231.536 273.931H230.22L231.732 270.235L228.638 262.647H230.052L232.46 268.863L234.84 262.647H236.156ZM244.856 266.189C244.856 266.432 244.842 266.689 244.814 266.959H238.682C238.729 267.715 238.986 268.308 239.452 268.737C239.928 269.157 240.502 269.367 241.174 269.367C241.725 269.367 242.182 269.241 242.546 268.989C242.92 268.728 243.181 268.383 243.33 267.953H244.702C244.497 268.691 244.086 269.293 243.47 269.759C242.854 270.217 242.089 270.445 241.174 270.445C240.446 270.445 239.793 270.282 239.214 269.955C238.645 269.629 238.197 269.167 237.87 268.569C237.544 267.963 237.38 267.263 237.38 266.469C237.38 265.676 237.539 264.981 237.856 264.383C238.174 263.786 238.617 263.329 239.186 263.011C239.765 262.685 240.428 262.521 241.174 262.521C241.902 262.521 242.546 262.68 243.106 262.997C243.666 263.315 244.096 263.753 244.394 264.313C244.702 264.864 244.856 265.489 244.856 266.189ZM243.54 265.923C243.54 265.438 243.433 265.023 243.218 264.677C243.004 264.323 242.71 264.057 242.336 263.879C241.972 263.693 241.566 263.599 241.118 263.599C240.474 263.599 239.924 263.805 239.466 264.215C239.018 264.626 238.762 265.195 238.696 265.923H243.54ZM248.512 263.697V268.219C248.512 268.593 248.591 268.859 248.75 269.017C248.909 269.167 249.184 269.241 249.576 269.241H250.514V270.319H249.366C248.657 270.319 248.125 270.156 247.77 269.829C247.415 269.503 247.238 268.966 247.238 268.219V263.697H246.244V262.647H247.238V260.715H248.512V262.647H250.514V263.697H248.512Z" fill="#667085"/>
</svg>
